<svg width="207" height="37" viewBox="0 0 207 37" fill="none" xmlns="http://www.w3.org/2000/svg">
<path d="M193.709 29.9843C200.577 29.9843 206.144 24.4174 206.144 17.5503C206.144 10.6831 200.577 5.11621 193.709 5.11621C186.842 5.11621 181.275 10.6831 181.275 17.5503C181.275 24.4174 186.842 29.9843 193.709 29.9843Z" fill="#8757E8"/>
<path d="M31.0354 8.5049H20.3918V35.5117H10.6933V8.5049H0V0.696309H31.0354V8.5049ZM51.4906 0.696309C54.6406 0.696309 57.3761 1.22683 59.6971 2.28787C62.0182 3.31575 63.8087 4.80784 65.0686 6.76413C66.3286 8.68727 66.9586 10.9586 66.9586 13.578C66.9586 16.1974 66.3286 18.4687 65.0686 20.3919C63.8087 22.315 62.0182 23.8071 59.6971 24.8681C57.3761 25.896 54.6406 26.41 51.4906 26.41H45.4228V35.5117H35.575V0.696309H51.4906ZM50.8938 18.6511C52.9164 18.6511 54.4417 18.2201 55.4695 17.358C56.4974 16.4627 57.0114 15.2027 57.0114 13.578C57.0114 11.9533 56.4974 10.6933 55.4695 9.79805C54.4417 8.90279 52.9164 8.45517 50.8938 8.45517H45.4228V18.6511H50.8938ZM99.3719 27.902V35.5117H71.4201V0.696309H98.7253V8.30596H81.1684V14.1748H96.6364V21.5358H81.1684V27.902H99.3719ZM121.894 36.208C118.247 36.208 114.964 35.4454 112.046 33.9201C109.161 32.3617 106.89 30.2065 105.232 27.4544C103.574 24.7023 102.745 21.5855 102.745 18.104C102.745 14.6225 103.574 11.5057 105.232 8.75358C106.89 6.00151 109.161 3.86285 112.046 2.3376C114.964 0.779202 118.247 0 121.894 0C125.077 0 127.945 0.563679 130.498 1.69103C133.051 2.81839 135.173 4.44311 136.864 6.56519L130.598 12.2351C128.343 9.51621 125.607 8.15675 122.391 8.15675C120.501 8.15675 118.81 8.57122 117.318 9.40016C115.859 10.2291 114.715 11.4062 113.886 12.9314C113.091 14.4235 112.693 16.1477 112.693 18.104C112.693 20.0603 113.091 21.8011 113.886 23.3263C114.715 24.8184 115.859 25.9789 117.318 26.8078C118.81 27.6368 120.501 28.0513 122.391 28.0513C125.607 28.0513 128.343 26.6918 130.598 23.9729L136.864 29.6428C135.173 31.7649 133.051 33.3896 130.498 34.517C127.945 35.6443 125.077 36.208 121.894 36.208ZM169.073 8.5049H158.429V35.5117H148.731V8.5049H138.037V0.696309H169.073V8.5049Z" fill="white"/>
</svg>
