<svg width="75" height="75" viewBox="0 0 75 75" fill="none" xmlns="http://www.w3.org/2000/svg">
<path d="M61.8543 41.395C61.8739 43.0172 61.8897 44.6354 61.9251 46.2537C61.9987 46.9759 62.1302 47.6914 62.3184 48.3933C60.8827 48.0071 59.4312 47.6479 58.1882 46.7364C58.0182 46.5652 57.8184 46.4253 57.5982 46.3232C56.0248 45.9099 55.5685 44.7127 55.3325 43.33C55.2971 43.1292 55.1437 42.8279 54.9982 42.7931C53.354 42.4301 52.8229 41.1826 52.4375 39.7999C52.401 39.6676 52.3537 39.5385 52.2959 39.4137C52.2762 39.3751 52.2093 39.3558 52.0992 39.2824C51.1158 40.3097 50.1049 39.9119 49.1569 39.1588C48.4568 40.3175 47.8785 40.4835 46.6788 39.7729C46.0455 39.3867 45.9708 39.8463 45.7387 40.2016C45.4516 40.6419 45.6286 40.8543 46.0613 40.9432C48.0713 41.3564 48.6338 42.8318 48.917 44.5698C48.9979 45.0485 49.2116 45.4962 49.5345 45.8636C50.278 46.6631 51.1079 47.3814 51.9969 48.2079C52.3382 47.706 52.8206 47.3122 53.3855 47.0743C53.9504 46.8364 54.5735 46.7647 55.1791 46.8678" stroke="white" stroke-width="2" stroke-linecap="round" stroke-linejoin="round"/>
<path d="M18.8414 34.3195C18.8926 32.0794 19.3292 29.9243 20.7059 28.0627C22.3383 25.8574 24.6158 24.9459 27.3339 25C27.8796 25.0228 28.4113 25.1775 28.8816 25.4504C29.3519 25.7233 29.7464 26.1059 30.03 26.5643C30.3137 27.0227 30.4777 27.5428 30.5076 28.0784C30.5375 28.614 30.4323 29.1485 30.2014 29.6346C29.8513 30.4071 30.0165 30.9323 30.6616 31.446C32.2547 32.6896 33.4898 32.5429 34.6148 30.8976C35.1396 30.1631 35.4856 29.32 35.6261 28.4334C35.7666 27.5468 35.6978 26.6404 35.4251 25.784C35.071 24.6254 34.1703 23.8954 33.0217 23.4667C32.4823 23.2397 31.9569 22.9818 31.4483 22.6943C30.5318 22.2038 29.6192 22.4046 28.628 22.6595C28.1953 21.7673 28.3172 21.4506 29.2259 21.1803C29.7176 21.0335 30.221 20.9215 30.7167 20.7941C30.8465 20.7593 31.0313 20.74 31.0825 20.655C31.9242 19.284 33.297 19.5543 34.5204 19.6856C35.7437 19.8169 37.0339 20.0718 38.2572 19.4462L38.4499 19.647C38.1549 20.0487 37.8324 20.4696 37.5649 20.9099C37.4429 21.1146 37.2895 21.4854 37.3839 21.6013C38.8826 23.4242 39.7126 25.5368 40.3459 27.8426C40.4305 27.6577 40.5002 27.4666 40.5543 27.271C40.9302 25.2731 41.8001 23.3965 43.0875 21.806C43.3865 21.4197 43.3825 21.2189 43.0285 20.8752C42.6582 20.4781 42.3733 20.0118 42.1907 19.5041C43.8585 20.2765 45.4791 19.6084 47.0957 19.6007C48.0083 19.6007 48.795 19.7165 49.4558 20.516C49.802 20.9254 50.6359 20.937 51.2495 21.1262C52.2172 21.4236 52.347 21.7017 51.9497 22.6402C50.7893 22.4046 49.6211 22.0531 48.6219 23.0882C48.4567 23.2582 48.1263 23.2813 47.8706 23.3624C45.9039 23.992 44.8694 25.2704 44.8694 27.2555C44.8118 28.7952 45.3662 30.2965 46.4153 31.4421C47.5363 32.6433 49.8413 32.288 50.4982 30.7624C50.5815 30.4625 50.5579 30.1436 50.4314 29.8586C49.3536 27.0817 51.0764 24.7837 54.0856 25.0077C57.6611 25.2704 60.2533 27.325 61.1344 30.7392C61.4895 32.1302 61.6925 33.5544 61.7402 34.9876" stroke="white" stroke-width="2" stroke-linecap="round" stroke-linejoin="round"/>
<path d="M55.069 47.505L56.2057 48.849L56.0248 49.1194C55.6314 48.7332 55.2578 48.4126 54.8683 49.0692C54.7661 49.243 54.3373 49.2468 54.0502 49.2932C53.4916 49.3781 52.9291 49.4361 52.3666 49.5095C52.1341 49.5209 51.9137 49.615 51.7465 49.7741C51.5793 49.9333 51.4768 50.1467 51.458 50.3746C51.3642 50.6414 51.223 50.8898 51.041 51.1084C50.8994 51.3363 50.746 51.5603 50.4982 51.9426C50.2898 51.7766 49.8177 51.5564 49.6879 51.2359C49.5935 50.9925 49.8807 50.5136 50.1206 50.2471C51.0843 49.1928 51.0804 48.7795 49.9908 47.8873C49.454 47.3988 48.8793 46.952 48.2719 46.551C47.851 46.3038 47.2924 46.2884 46.8007 46.1648C46.5482 46.1031 46.3039 46.0124 46.073 45.8944C44.7828 45.1606 44.2636 45.0061 43.4573 45.1992C44.1496 46.8175 44.8379 48.428 45.5341 50.0347C46.1478 51.4521 46.7889 52.8618 47.3868 54.2831C47.6307 54.8663 47.7448 55.4959 47.2138 55.998C46.9936 56.2574 46.6889 56.4341 46.3513 56.4981C46.0136 56.5622 45.6638 56.5096 45.3611 56.3494C45.2167 56.2953 45.0661 56.259 44.9127 56.2413C44.3816 58.0758 43.3707 58.4968 41.8957 57.4772C41.5731 58.1299 41.2073 58.7362 40.3223 58.7401C39.4372 58.744 39.0557 58.2457 38.7489 57.5815C36.7821 58.3539 36.0347 58.0179 35.7161 56.2065C35.488 56.2799 35.2638 56.3262 35.0592 56.4151C34.7864 56.5468 34.4751 56.5803 34.1796 56.5097C33.8841 56.4391 33.6233 56.269 33.4426 56.0289C33.2941 55.8221 33.1914 55.587 33.1413 55.3389C33.0912 55.0907 33.0946 54.835 33.1515 54.5882C33.9382 52.4988 34.8665 50.4518 35.7476 48.4087C36.2501 47.3116 36.6772 46.1826 37.026 45.0293C36.495 45.1645 35.9482 45.2688 35.429 45.4426C34.6974 45.6897 34.1349 46.3965 33.1987 46.1185C32.9784 46.0528 32.6087 46.3463 32.353 46.5356C31.6568 47.0492 30.9763 47.5745 30.3154 48.1307C29.5484 48.7795 29.5287 49.1928 30.1935 49.9536C30.3129 50.0634 30.4234 50.1822 30.5239 50.3089C30.7009 50.6063 31.0431 50.9887 30.9605 51.2127C30.8386 51.5371 30.4059 51.7534 30.0716 52.0508C29.6153 51.1972 29.3675 50.3939 28.8364 49.8648C28.4431 49.4786 27.7036 49.4554 27.1018 49.3472C26.4999 49.2391 25.8509 49.4631 25.4064 48.8104C25.3435 48.7177 24.8597 48.8992 24.545 48.9572C24.2343 48.1847 25.2688 48.1538 25.5126 47.5706L24.781 47.3119C25.1744 46.8368 26.5078 46.6862 27.1962 47.0492C27.4212 47.145 27.6235 47.2857 27.7901 47.4625C28.3605 48.1809 28.8836 48.0727 29.4304 47.4625C29.6049 47.257 29.8014 47.0706 30.0165 46.9063C30.5255 46.5558 30.953 46.1033 31.271 45.5787C31.589 45.0541 31.7902 44.4694 31.8613 43.8629C32.0501 42.376 32.8722 41.2984 34.4849 40.9817C34.9727 40.8852 35.0946 40.5955 34.8311 40.1591C34.6226 39.8038 34.5046 39.4446 33.9264 39.7729C32.7149 40.4912 32.1091 40.3367 31.4286 39.2206C30.4688 39.8269 29.4855 40.4063 28.4549 39.1549C28.2032 39.8076 28.0104 40.3136 27.798 40.8311C27.6432 41.304 27.3673 41.7299 26.9967 42.068C26.6262 42.4061 26.1734 42.6452 25.6818 42.7622C25.5662 42.8031 25.4626 42.8714 25.3802 42.961C25.2979 43.0506 25.2394 43.1587 25.2098 43.2759C25.0957 44.8208 24.3641 45.7052 22.9205 46.4429C21.5861 47.1874 20.1852 47.8105 18.7352 48.3045C18.6234 48.3324 18.5083 48.3454 18.393 48.3431C18.4874 47.3621 18.6408 46.412 18.6644 45.4194C18.6998 43.9479 18.7234 42.4764 18.747 41.001" stroke="white" stroke-width="2" stroke-linecap="round" stroke-linejoin="round"/>
<path d="M61.7402 38.1122V38.1761" stroke="white" stroke-width="3" stroke-linecap="round" stroke-linejoin="round"/>
<path d="M18.8651 37.726V37.7899" stroke="white" stroke-width="3" stroke-linecap="round" stroke-linejoin="round"/>
<path d="M40.3891 64.827C55.4331 64.827 67.6286 52.8525 67.6286 38.0813C67.6286 23.31 55.4331 11.3356 40.3891 11.3356C25.3452 11.3356 13.1497 23.31 13.1497 38.0813C13.1497 52.8525 25.3452 64.827 40.3891 64.827Z" stroke="white" stroke-width="2" stroke-miterlimit="10"/>
</svg>
