<svg width="42" height="58" viewBox="0 0 42 58" xmlns="http://www.w3.org/2000/svg">
<g>
<path d="M23.125 50C23.7118 50 24.1875 49.5628 24.1875 49.0234C24.1875 48.4841 23.7118 48.0469 23.125 48.0469C22.5382 48.0469 22.0625 48.4841 22.0625 49.0234C22.0625 49.5628 22.5382 50 23.125 50Z" />
<path d="M33.75 7.8125C32.9762 7.8125 32.2506 8.00449 31.625 8.33809V7.8125C31.625 5.65859 29.7185 3.90625 27.375 3.90625C26.6012 3.90625 25.8756 4.09824 25.25 4.43184V3.90625C25.25 1.75234 23.3435 0 21 0C18.6566 0 16.75 1.75234 16.75 3.90625V4.43184C16.1244 4.09824 15.3988 3.90625 14.625 3.90625C12.2816 3.90625 10.375 5.65859 10.375 7.8125V20.2224C9.02393 18.9535 7.14203 18.1641 5.0625 18.1641C4.47579 18.1641 4 18.6014 4 19.1406V34.7656C4 37.5167 5.42981 40.1452 7.825 41.7969L9.52489 42.9687C11.2488 44.1574 12.5 46.7038 12.5 49.0234C12.5 49.5627 12.9758 50 13.5625 50H18.3438C18.9305 50 19.4062 49.5627 19.4062 49.0234C19.4062 48.4842 18.9305 48.0469 18.3438 48.0469H14.5676C14.3023 45.7294 13.1081 42.9979 10.8 41.4062L9.10011 40.2345C7.23723 38.9498 6.125 36.9054 6.125 34.7656V20.2153C8.54686 20.669 10.375 22.6421 10.375 25V30.8594C10.375 31.3986 10.8508 31.8359 11.4375 31.8359C12.6081 31.8359 13.7595 32.0892 14.7953 32.5709C15.4383 35.0386 17.8707 36.945 21.2955 39.6269C21.9955 40.175 22.7192 40.7419 23.4881 41.36C23.6882 41.5211 23.9378 41.6016 24.1875 41.6016C24.4372 41.6016 24.6868 41.5211 24.8871 41.36C25.6558 40.7419 26.3797 40.175 27.0796 39.6269C31.0963 36.4813 33.75 34.4033 33.75 31.2344C33.75 28.351 31.5244 25.9766 28.4375 25.9766C26.327 25.9766 24.9882 27.0841 24.1875 28.1538C23.3868 27.0841 22.048 25.9766 19.9375 25.9766C17.1614 25.9766 15.0708 27.899 14.6886 30.4051C13.9831 30.1711 13.2483 30.0138 12.5 29.9371C12.5 29.3463 12.5 8.4123 12.5 7.8125C12.5 6.73555 13.4533 5.85938 14.625 5.85938C15.7967 5.85938 16.75 6.73555 16.75 7.8125V21.0938C16.75 21.633 17.2258 22.0703 17.8125 22.0703C18.3992 22.0703 18.875 21.633 18.875 21.0938V3.90625C18.875 2.8293 19.8283 1.95312 21 1.95312C22.1717 1.95312 23.125 2.8293 23.125 3.90625V21.0938C23.125 21.633 23.6008 22.0703 24.1875 22.0703C24.7742 22.0703 25.25 21.633 25.25 21.0938V7.8125C25.25 6.73555 26.2033 5.85938 27.375 5.85938C28.5467 5.85938 29.5 6.73555 29.5 7.8125V21.0938C29.5 21.633 29.9758 22.0703 30.5625 22.0703C31.1492 22.0703 31.625 21.633 31.625 21.0938V11.7188C31.625 10.6418 32.5783 9.76562 33.75 9.76562C34.9217 9.76562 35.875 10.6418 35.875 11.7188V34.9033C35.875 37.0957 35.1977 39.2322 33.9162 41.0819C32.6666 42.8857 31.814 45.5418 31.6527 48.0469H27.9062C27.3195 48.0469 26.8438 48.4842 26.8438 49.0234C26.8438 49.5627 27.3195 50 27.9062 50H32.6875C33.2742 50 33.75 49.5627 33.75 49.0234V48.8955C33.75 46.5037 34.5188 43.8484 35.7088 42.1309C37.2077 39.9673 38 37.468 38 34.9033V11.7188C38 9.56484 36.0935 7.8125 33.75 7.8125ZM19.9375 27.9297C22.3041 27.9297 23.1297 30.5218 23.1639 30.6331C23.2918 31.0553 23.7103 31.3477 24.1875 31.3477C24.666 31.3477 25.0855 31.0536 25.2122 30.6295C25.2203 30.6023 26.0454 27.9297 28.4375 27.9297C30.2547 27.9297 31.625 29.3504 31.625 31.2344C31.625 33.5015 29.3955 35.2476 25.7015 38.1402C25.2113 38.5241 24.7095 38.917 24.1875 39.3313C23.6655 38.917 23.1637 38.524 22.6735 38.1402C18.9796 35.2476 16.75 33.5015 16.75 31.2344C16.75 29.3504 18.1203 27.9297 19.9375 27.9297Z" />
</g>
</svg>
