<svg width="50" height="50" viewBox="0 0 50 50"  xmlns="http://www.w3.org/2000/svg">
<path d="M33.8349 27.7585C34.3664 27.2269 34.6592 26.5198 34.6592 25.7676C34.6592 24.7533 34.1144 23.8481 33.2887 23.3523C33.5254 22.8988 33.6593 22.3851 33.6593 21.844C33.6593 21.0026 33.3404 20.2036 32.7617 19.5944C32.4677 19.2849 32.1218 19.0396 31.7429 18.8673C31.9472 18.4345 32.0569 17.958 32.0569 17.4734C32.0569 16.6007 31.7172 15.7799 31.0995 15.1612C30.4816 14.5445 29.6608 14.2047 28.7882 14.2047H20.5719C18.7695 14.2047 17.3032 15.671 17.3032 17.4734C17.3032 17.9279 17.3954 18.3689 17.5778 18.7857C17.59 18.8134 17.6025 18.8407 17.6154 18.8681C16.4821 19.3845 15.7009 20.5279 15.7009 21.844C15.7009 22.3783 15.8287 22.8927 16.0689 23.3531C15.872 23.471 15.6892 23.613 15.5262 23.7763C14.9941 24.3073 14.7012 25.0145 14.7012 25.7677C14.7012 27.3198 15.9645 28.5823 17.5172 28.5823H17.917V29.3984C17.917 30.5009 18.188 31.5942 18.7007 32.5601C18.8322 32.8079 19.0859 32.9492 19.3482 32.9492C19.4641 32.9492 19.5816 32.9217 19.691 32.8636C20.0483 32.674 20.1842 32.2306 19.9945 31.8733C19.5937 31.1181 19.3818 30.2623 19.3818 29.3984V22.8409H20.0721C21.4423 22.8409 22.6435 22.1032 23.299 21.0039C24.5658 22.7365 26.6106 23.8169 28.8198 23.8169C29.174 23.8169 29.5296 23.7894 29.8762 23.7352L29.9785 23.7193V29.3985C29.9785 32.3198 27.6019 34.6963 24.6807 34.6963C23.6164 34.6963 22.59 34.382 21.7127 33.7872C21.3777 33.5603 20.9225 33.6478 20.6954 33.9825C20.4685 34.3174 20.556 34.7728 20.8907 34.9998C22.0116 35.7595 23.3221 36.1612 24.6806 36.1612C28.4096 36.1612 31.4433 33.1275 31.4433 29.3985V28.5824H31.8431C32.5963 28.5823 33.3035 28.2898 33.8349 27.7585ZM17.5172 27.1175C16.7722 27.1175 16.166 26.5119 16.166 25.7677C16.166 25.4063 16.3063 25.0673 16.562 24.812C16.7053 24.6685 16.8747 24.5625 17.0606 24.4967C17.323 24.685 17.6121 24.8339 17.9171 24.938V27.1175H17.5172ZM29.6502 22.2879C29.3778 22.3305 29.0985 22.3521 28.8198 22.3521C26.58 22.3521 24.5554 20.9381 23.7817 18.8335C23.6593 18.5003 23.3157 18.303 22.9659 18.3652C22.6164 18.4274 22.3618 18.7313 22.3618 19.0863C22.3618 20.3489 21.3346 21.3761 20.0721 21.3761H18.649C18.2445 21.3761 17.9166 21.704 17.9166 22.1085V23.3085C17.8375 23.2517 17.7628 23.1885 17.6936 23.1193C17.3531 22.7788 17.1657 22.326 17.1657 21.8441C17.1657 20.8876 17.913 20.0965 18.8669 20.0432C19.1586 20.0269 19.4128 19.8386 19.5135 19.5643C19.6142 19.29 19.5422 18.9821 19.3303 18.7808C19.1569 18.6161 19.0146 18.4139 18.9192 18.1972C18.8189 17.968 18.7681 17.7245 18.7681 17.4735C18.7681 16.4788 19.5772 15.6697 20.5719 15.6697H28.7882C29.27 15.6697 29.7232 15.8573 30.0638 16.1971C30.4044 16.5384 30.5921 16.9917 30.5921 17.4735C30.5921 17.9721 30.3924 18.4365 30.0298 18.7809C29.8179 18.9822 29.7459 19.2901 29.8467 19.5644C29.9474 19.8387 30.2015 20.0269 30.4933 20.0432C30.9524 20.0689 31.3809 20.2678 31.6997 20.6033C32.0189 20.9392 32.1944 21.3798 32.1944 21.8441C32.1944 22.4415 31.9007 22.9792 31.4436 23.3089V22.8639C31.4436 22.6499 31.35 22.4467 31.1875 22.3075C31.0539 22.1931 30.8846 22.1315 30.7111 22.1315C30.6736 22.1315 30.6358 22.1343 30.5983 22.1402L29.6502 22.2879ZM31.4434 24.9383C31.7523 24.8332 32.0398 24.6839 32.2983 24.4974C32.8242 24.6852 33.1942 25.1888 33.1942 25.7676C33.1942 26.1285 33.0538 26.4677 32.7988 26.7227C32.5443 26.9772 32.2049 27.1174 31.8431 27.1174H31.4433V24.9383H31.4434Z" />
<path d="M21.9179 29.2254C22.6794 29.9869 23.6798 30.3677 24.6802 30.3677C25.6806 30.3677 26.681 29.9869 27.4425 29.2254C27.7286 28.9394 27.7286 28.4757 27.4426 28.1897C27.1566 27.9036 26.6928 27.9035 26.4068 28.1897C25.4547 29.1416 23.9058 29.1416 22.9537 28.1897C22.6677 27.9035 22.2039 27.9036 21.918 28.1897C21.6318 28.4756 21.6318 28.9394 21.9179 29.2254Z" />
<path d="M23.1066 26.3821C23.5111 26.3821 23.839 26.0542 23.839 25.6497V24.4314C23.839 24.0269 23.5111 23.699 23.1066 23.699C22.7021 23.699 22.3741 24.0269 22.3741 24.4314V25.6497C22.3741 26.0542 22.7021 26.3821 23.1066 26.3821Z" />
<path d="M26.9862 25.6497V24.4314C26.9862 24.0269 26.6584 23.699 26.2538 23.699C25.8492 23.699 25.5214 24.0269 25.5214 24.4314V25.6497C25.5214 26.0542 25.8492 26.3821 26.2538 26.3821C26.6584 26.3821 26.9862 26.0542 26.9862 25.6497Z" />
<path d="M26.7242 38.2038C25.7734 37.2544 24.2265 37.2543 23.2758 38.2038L20.1648 41.3103C19.4528 42.0212 19.2496 43.0403 19.6343 43.9699C19.9788 44.8027 20.7081 45.3529 21.5796 45.4586V49.2676C21.5796 49.6721 21.9075 50 22.312 50H27.6879C28.0925 50 28.4203 49.6721 28.4203 49.2676V45.4585C29.2918 45.3528 30.0211 44.8026 30.3657 43.9698C30.7503 43.0401 30.5471 42.0211 29.8351 41.3102L26.7242 38.2038ZM29.0122 43.4097C28.9536 43.5511 28.7159 44.0122 28.1109 44.0122H27.6879C27.2833 44.0122 26.9555 44.3401 26.9555 44.7446V48.5351H23.0444V44.7446C23.0444 44.3401 22.7165 44.0122 22.312 44.0122H21.889C21.2841 44.0122 21.0463 43.5511 20.9878 43.4098C20.9293 43.2685 20.7718 42.7743 21.1998 42.3469L24.3107 39.2403C24.6908 38.8608 25.3091 38.8608 25.689 39.2403L28.8 42.3469C29.2281 42.7742 29.0707 43.2684 29.0122 43.4097Z" />
<path d="M23.2758 11.7962C23.7511 12.2709 24.3755 12.5083 25 12.5082C25.6244 12.5082 26.2489 12.2708 26.7242 11.7962L29.8351 8.68965C30.547 7.97881 30.7503 6.95967 30.3657 6.03008C30.0211 5.19727 29.2918 4.64707 28.4203 4.54141V0.732422C28.4203 0.32793 28.0925 0 27.6879 0H22.312C21.9075 0 21.5796 0.32793 21.5796 0.732422V4.5415C20.7081 4.64717 19.9788 5.19736 19.6342 6.03018C19.2496 6.95986 19.4529 7.97891 20.1648 8.68975L23.2758 11.7962ZM20.9879 6.59014C21.0464 6.44883 21.2841 5.98779 21.889 5.98779H22.3121C22.7166 5.98779 23.0445 5.65986 23.0445 5.25537V1.46484H26.9555V5.25537C26.9555 5.65986 27.2834 5.98779 27.688 5.98779H28.111C28.7159 5.98779 28.9537 6.44893 29.0123 6.59023C29.0708 6.73154 29.2282 7.22578 28.8002 7.65322L25.6892 10.7598C25.3093 11.1392 24.691 11.1393 24.3109 10.7598L21.2 7.65322C20.7718 7.22578 20.9294 6.73154 20.9879 6.59014Z" />
<path d="M6.03018 30.3658C6.34141 30.4945 6.6624 30.5574 6.97871 30.5574C7.60742 30.5574 8.2169 30.3089 8.68975 29.8351L11.7963 26.7242C12.7457 25.7735 12.7457 24.2265 11.7963 23.2758L8.68975 20.1648C7.97891 19.4528 6.95977 19.2496 6.03018 19.6343C5.19736 19.9788 4.64717 20.7081 4.5415 21.5796H0.732422C0.32793 21.5796 0 21.9075 0 22.312V27.688C0 28.0925 0.32793 28.4204 0.732422 28.4204H4.5415C4.64707 29.292 5.19736 30.0213 6.03018 30.3658ZM1.46484 26.9556V23.0445H5.25537C5.65986 23.0445 5.98779 22.7166 5.98779 22.3121V21.889C5.98779 21.2842 6.44893 21.0464 6.59014 20.9879C6.73145 20.9293 7.22559 20.7719 7.65312 21.1999L10.7597 24.3108C11.1392 24.6909 11.1392 25.3092 10.7597 25.6891L7.65312 28.8001C7.22568 29.2282 6.73154 29.0706 6.59014 29.0121C6.44883 28.9536 5.98779 28.7158 5.98779 28.1109V27.6879C5.98779 27.2834 5.65986 26.9555 5.25537 26.9555H1.46484V26.9556Z" />
<path d="M49.2676 21.5796H45.4586C45.3529 20.7081 44.8028 19.9789 43.9699 19.6343C43.0403 19.2498 42.0212 19.453 41.3104 20.1649L38.2038 23.2758C37.2544 24.2265 37.2544 25.7735 38.2038 26.7243L41.3103 29.8352C41.7833 30.3089 42.3927 30.5575 43.0214 30.5575C43.3376 30.5575 43.6588 30.4946 43.9699 30.3659C44.8028 30.0212 45.3529 29.292 45.4586 28.4206H49.2676C49.6722 28.4206 50 28.0926 50 27.6881V22.3122C50 21.9076 49.6722 21.5796 49.2676 21.5796ZM48.5352 26.9556H44.7447C44.3402 26.9556 44.0123 27.2835 44.0123 27.688V28.1111C44.0123 28.716 43.5512 28.9538 43.41 29.0122C43.2687 29.0708 42.7743 29.2282 42.3468 28.8002L39.2402 25.6893C38.8609 25.3092 38.8609 24.691 39.2402 24.311L42.3468 21.2H42.3469C42.5731 20.9735 42.818 20.911 43.0194 20.911C43.1986 20.911 43.3434 20.9605 43.4099 20.988C43.5512 21.0465 44.0123 21.2843 44.0123 21.8892V22.3123C44.0123 22.7167 44.3402 23.0447 44.7447 23.0447H48.5352V26.9556Z" />
<path d="M14.4443 33.1174L10.0479 33.1141C10.0472 33.1141 10.0467 33.1141 10.0459 33.1141C9.04072 33.1141 8.17715 33.6909 7.79199 34.6197C7.44678 35.4522 7.57344 36.357 8.11494 37.0478L5.42168 39.7413C5.13564 40.0273 5.13564 40.4911 5.42168 40.777L9.22305 44.5784C9.36035 44.7158 9.54668 44.7929 9.74092 44.7929C9.93516 44.7929 10.1215 44.7158 10.2588 44.5784L12.9522 41.8849C13.6432 42.4265 14.5478 42.5532 15.3804 42.2079C16.3098 41.8225 16.8866 40.9582 16.8859 39.9521L16.8827 35.5556C16.8817 34.2122 15.7879 33.1183 14.4443 33.1174ZM14.8193 40.8549C14.6782 40.9134 14.1839 41.0713 13.7562 40.6435L13.457 40.3444C13.3197 40.207 13.1334 40.1299 12.9392 40.1299C12.7449 40.1299 12.5586 40.207 12.4213 40.3444L9.74101 43.0248L6.97549 40.2591L9.65576 37.5789C9.9418 37.2928 9.9418 36.8291 9.65576 36.5431L9.35664 36.244C8.92891 35.8163 9.08682 35.3221 9.14531 35.1808C9.20391 35.0396 9.4418 34.5791 10.0461 34.5791H10.047L14.4435 34.5823C14.9805 34.5827 15.4177 35.0198 15.418 35.5568L15.4212 39.9533C15.4215 40.5581 14.9605 40.7962 14.8193 40.8549Z" />
<path d="M35.5567 16.8827H36.1515C36.5561 16.8827 36.8839 16.5548 36.8839 16.1503C36.8839 15.7458 36.5561 15.4179 36.1515 15.4179H35.5574C35.0201 15.4174 34.5827 14.9798 34.5822 14.4428L34.5792 10.0473C34.5788 9.44202 35.0398 9.20393 35.181 9.14534C35.3221 9.08674 35.8161 8.92893 36.244 9.35667L36.5428 9.65549C36.6801 9.7929 36.8664 9.87005 37.0608 9.87005C37.2551 9.87005 37.4412 9.7929 37.5787 9.65549L40.259 6.97512L43.0249 9.74114L40.3446 12.4215C40.2073 12.5589 40.1301 12.7451 40.1301 12.9395C40.1301 13.1338 40.2073 13.32 40.3447 13.4574L40.6435 13.7562C41.0712 14.1839 40.9134 14.6779 40.8548 14.8192C40.7963 14.9604 40.5584 15.4209 39.954 15.4209C39.9537 15.4209 39.9534 15.4209 39.9533 15.4209L39.0802 15.4199C39.0799 15.4199 39.0796 15.4199 39.0793 15.4199C38.6752 15.4199 38.3474 15.7474 38.3469 16.1515C38.3464 16.556 38.6741 16.8843 39.0784 16.8848L39.9519 16.8858H39.9536C40.9592 16.8858 41.8229 16.309 42.2079 15.3802C42.5531 14.548 42.4265 13.6435 41.8851 12.9527L44.5786 10.2592C44.8647 9.97317 44.8647 9.5094 44.5786 9.22346L40.7769 5.4217C40.6395 5.2843 40.4533 5.20715 40.2589 5.20715C40.0646 5.20715 39.8784 5.2843 39.7409 5.4217L37.0475 8.11516C36.3568 7.57385 35.4522 7.44729 34.6199 7.79241C33.6906 8.17766 33.1137 9.04212 33.1144 10.0485L33.1173 14.4443C33.1186 15.7874 34.2125 16.8814 35.5567 16.8827Z" />
<path d="M8.11516 12.9522C7.57366 13.6431 7.447 14.5478 7.79221 15.3803C8.17727 16.3091 9.04084 16.8859 10.0461 16.8859H10.0481L14.4446 16.8826C15.7881 16.8817 16.882 15.7878 16.8829 14.4443L16.8862 10.0478C16.8868 9.04171 16.31 8.17736 15.3806 7.792C14.5482 7.44679 13.6433 7.57335 12.9525 8.11495L10.2588 5.42159C9.97278 5.13546 9.50901 5.13556 9.22307 5.42159L5.4217 9.22296C5.2843 9.36027 5.20715 9.5466 5.20715 9.74083C5.20715 9.93507 5.2843 10.1214 5.4217 10.2587L8.11516 12.9522ZM9.74094 6.97531L12.4212 9.65558C12.7072 9.94161 13.171 9.94161 13.457 9.65558L13.7561 9.35646C14.1839 8.92872 14.6779 9.08654 14.8193 9.14513C14.9606 9.20372 15.4214 9.44191 15.421 10.0467L15.4178 14.4432C15.4174 14.9802 14.9803 15.4174 14.4433 15.4177L10.0468 15.4209C10.0465 15.4209 10.0462 15.4209 10.0459 15.4209C9.44162 15.4209 9.20373 14.9604 9.14514 14.8192C9.08655 14.6779 8.92873 14.1837 9.35647 13.756L9.65559 13.4568C9.79299 13.3195 9.87014 13.1332 9.87014 12.939C9.87014 12.7447 9.79299 12.5584 9.65559 12.4211L6.97532 9.74083L9.74094 6.97531Z" />
<path d="M41.8849 37.0478C42.4265 36.3569 42.553 35.4522 42.2079 34.6197C41.8229 33.6909 40.9593 33.1141 39.9539 33.1141C39.9533 33.1141 39.9527 33.1141 39.952 33.1141L35.5557 33.1174C34.212 33.1183 33.1182 34.2122 33.1172 35.5557L33.1141 39.9521C33.1133 40.9582 33.6901 41.8225 34.6195 42.208C35.4521 42.5533 36.3568 42.4266 37.0477 41.885L39.741 44.5785C39.8784 44.7159 40.0647 44.793 40.259 44.793C40.4533 44.793 40.6395 44.7159 40.777 44.5785L44.5783 40.7771C44.8644 40.4911 44.8644 40.0273 44.5783 39.7414L41.8849 37.0478ZM40.2591 43.0247L37.5789 40.3444C37.4359 40.2013 37.2485 40.1299 37.061 40.1299C36.8735 40.1299 36.686 40.2013 36.5431 40.3443L36.2439 40.6434C35.8161 41.0712 35.3219 40.9133 35.1807 40.8548C35.0395 40.7962 34.5785 40.558 34.579 39.9532L34.5821 35.5567C34.5825 35.0197 35.0196 34.5825 35.5568 34.5822L39.9531 34.579H39.954C40.5583 34.579 40.7962 35.0395 40.8548 35.1807C40.9134 35.3219 41.0713 35.8162 40.6435 36.2439L40.3444 36.543C40.0584 36.8291 40.0584 37.2927 40.3444 37.5788L43.0247 40.2591L40.2591 43.0247Z" />
</svg>
