<svg width="50" height="50" viewBox="0 0 50 50" fill="none" xmlns="http://www.w3.org/2000/svg">
<path d="M38.7148 48.2431L33.47 42.9975C33.2868 42.8144 33.0385 42.7115 32.7795 42.7115C32.779 42.7115 32.7785 42.7115 32.7781 42.7115L29.9642 42.7155C29.958 42.7155 29.9519 42.7155 29.9457 42.7155C28.3924 42.7155 26.8363 42.4298 25.38 41.8848L27.0686 40.7524C27.7597 40.2889 28.2245 39.5832 28.3773 38.7651C28.5301 37.9469 28.3514 37.1209 27.874 36.439C27.2805 35.5914 26.3246 35.1312 25.3514 35.1312C25.3356 35.1312 25.3197 35.1313 25.3038 35.1316L29.1933 31.242C30.3733 30.0618 30.3733 28.1417 29.1933 26.9615C28.9063 26.6745 28.5716 26.4523 28.2071 26.3021C28.4772 25.8429 28.6217 25.3183 28.6217 24.7716C28.6217 23.9631 28.3069 23.2029 27.7352 22.6313C27.1636 22.0596 26.4035 21.7447 25.595 21.7447C25.0483 21.7447 24.5238 21.8892 24.0646 22.1594C23.9144 21.7949 23.6922 21.4602 23.4051 21.173C22.8334 20.6013 22.0734 20.2865 21.2648 20.2865C20.4564 20.2865 19.6963 20.6013 19.1246 21.173L17.728 22.5696C17.5795 22.2424 17.3724 21.9408 17.1107 21.679C16.539 21.1073 15.7789 20.7925 14.9704 20.7925C14.1619 20.7925 13.4019 21.1074 12.8302 21.679L12.2111 22.2981L9.69444 19.7954C8.96339 19.0644 8.96339 17.8748 9.69444 17.1437C10.3793 16.4589 11.4664 16.4157 12.2021 17.0138L14.6394 19.4513C14.8301 19.642 15.08 19.7373 15.3299 19.7373C15.5798 19.7373 15.8298 19.6419 16.0204 19.4513C16.4018 19.07 16.4018 18.4515 16.0204 18.0702L11.8157 13.8654C11.0847 13.1343 11.0847 11.9446 11.8157 11.2136C12.5468 10.4824 13.7364 10.4825 14.4675 11.2136L21.8344 18.5948C22.0251 18.7856 22.275 18.8809 22.5249 18.8809C22.7748 18.8809 23.0248 18.7855 23.2154 18.5948C23.5968 18.2135 23.5968 17.5951 23.2154 17.2137L17.6159 11.5998C17.0178 10.8641 17.0611 9.77704 17.7458 9.09226C18.477 8.36119 19.6666 8.36119 20.3976 9.09226L22.4491 11.144C22.8306 11.5254 23.449 11.5254 23.8302 11.144C24.2115 10.7626 24.2116 10.1442 23.8302 9.76287L21.7786 7.71115C20.2859 6.21854 17.8573 6.21865 16.3648 7.71115C15.8715 8.20444 15.5424 8.80015 15.3751 9.43033C14.7285 8.96374 13.9547 8.7113 13.1416 8.7113C12.1191 8.7113 11.1577 9.10955 10.4347 9.83252C9.09114 11.1761 8.95775 13.2778 10.0329 14.773C9.40266 14.9402 8.80675 15.2694 8.31342 15.7627C6.90483 17.1714 6.82632 19.4134 8.07641 20.9159C7.46009 21.0861 6.87813 21.412 6.39465 21.8955C4.90218 23.3881 4.90218 25.8168 6.39465 27.3095L6.83048 27.7453C5.18255 29.7241 4.28694 32.193 4.29066 34.8002L4.293 36.4179L0.286072 40.4252C-0.0952758 40.8065 -0.0952758 41.4249 0.286072 41.8063C0.476794 41.997 0.726694 42.0924 0.976597 42.0924C1.2265 42.0924 1.4765 41.997 1.66712 41.8063L5.96068 37.5126C6.14419 37.3291 6.2471 37.0801 6.24671 36.8206L6.24376 34.7976C6.24026 32.3704 7.18369 30.0882 8.90003 28.3719L13.7463 23.5253C13.7463 23.5253 13.7463 23.5253 13.7464 23.5253L14.2113 23.0604C14.414 22.8575 14.6835 22.7459 14.9703 22.7459C15.2571 22.7459 15.5267 22.8575 15.7294 23.0604C15.9323 23.2631 16.0439 23.5326 16.0439 23.8195C16.0439 24.0657 15.961 24.299 15.8093 24.4884L14.5184 25.7794C14.137 26.1608 14.137 26.7791 14.5184 27.1606C14.5192 27.1614 14.5202 27.1622 14.521 27.163C14.5219 27.1639 14.5226 27.1648 14.5235 27.1657C14.7142 27.3563 14.9641 27.4517 15.214 27.4517C15.4639 27.4517 15.7139 27.3563 15.9045 27.1657L20.5055 22.5543C20.7082 22.3515 20.9778 22.2398 21.2646 22.2398C21.5514 22.2398 21.8209 22.3516 22.0236 22.5543C22.4133 22.944 22.4398 23.561 22.1038 23.9821L17.4175 28.6788C17.0362 29.0601 17.0362 29.6785 17.4175 30.06C17.6082 30.2506 17.8581 30.346 18.108 30.346C18.3579 30.346 18.6079 30.2506 18.7986 30.06L24.8356 24.0125C25.0383 23.8097 25.3078 23.6981 25.5946 23.6981C25.8815 23.6981 26.151 23.8098 26.3537 24.0125C26.7723 24.4311 26.7723 25.1122 26.3537 25.5307L20.3066 31.5678C19.9252 31.9492 19.9251 32.5675 20.3066 32.949C20.688 33.3303 21.3064 33.3303 21.6876 32.949L26.3843 28.2625C26.8053 27.9265 27.4223 27.953 27.8119 28.3429C28.2305 28.7613 28.2305 29.4425 27.8119 29.861L21.2187 36.4546C20.7542 36.9189 20.7112 37.6311 21.1166 38.1479C21.5219 38.6647 22.2238 38.7927 22.7855 38.4522L24.7774 37.2446C25.2796 36.9401 25.9368 37.0784 26.2736 37.5596C26.4476 37.8079 26.5126 38.1087 26.4569 38.4068C26.4013 38.7046 26.232 38.9617 25.9804 39.1304L21.3721 42.2207C19.8725 43.2263 18.1264 43.7575 16.3211 43.7575C16.3169 43.7575 16.3125 43.7575 16.3083 43.7575L13.1783 43.753C13.1778 43.753 13.1775 43.753 13.177 43.753C12.918 43.753 12.6696 43.8559 12.4865 44.0391L8.19279 48.3328C7.81145 48.7142 7.81145 49.3325 8.19279 49.714C8.38351 49.9046 8.63343 50 8.88335 50C9.13321 50 9.38324 49.9046 9.57386 49.714L13.5809 45.7069L16.3056 45.7107C16.3108 45.7107 16.3157 45.7107 16.321 45.7107C18.5148 45.7107 20.6375 45.065 22.4598 43.843L23.4466 43.1813C25.4631 44.1544 27.7066 44.669 29.9452 44.669C29.9521 44.669 29.9595 44.669 29.9665 44.669L32.3751 44.6655L37.3337 49.6243C37.5244 49.8149 37.7743 49.9103 38.0242 49.9103C38.2741 49.9103 38.5241 49.8149 38.7148 49.6243C39.0961 49.2429 39.0961 48.6245 38.7148 48.2431ZM10.1909 24.3187C10.1908 24.3188 10.1908 24.3188 10.1907 24.3189L8.17845 26.3312L7.77583 25.9286C7.04473 25.1974 7.04473 24.0079 7.77583 23.2768C8.46065 22.5919 9.54776 22.5487 10.2834 23.1469L10.8231 23.6865L10.1909 24.3187Z" />
<path d="M49.7139 37.2443C49.5322 37.0616 49.2803 36.9581 49.0234 36.9581C48.7666 36.9581 48.5147 37.0616 48.333 37.2443C48.1514 37.4259 48.0469 37.6769 48.0469 37.9347C48.0469 38.1916 48.1514 38.4435 48.333 38.6251C48.5147 38.8067 48.7666 38.9113 49.0234 38.9113C49.2803 38.9113 49.5322 38.8068 49.7139 38.6251C49.8955 38.4425 50 38.1916 50 37.9347C50 37.6768 49.8955 37.4259 49.7139 37.2443Z" />
<path d="M47.0878 34.6179L44.7552 32.2852L44.7609 28.3367C44.7651 25.3534 43.8892 22.4669 42.2277 19.9891L37.9294 13.5789C37.3423 12.7033 36.4482 12.1146 35.412 11.921C34.3757 11.7274 33.3295 11.9539 32.466 12.5586C31.0512 13.5494 30.4886 15.3369 30.9888 16.9215L28.4366 14.3691C28.0553 13.9879 27.4369 13.9879 27.0554 14.3691C26.6741 14.7505 26.6741 15.3689 27.0554 15.7503L32.5383 21.2333C33.0455 21.7405 33.8235 21.7875 34.388 21.3446C34.9524 20.9018 35.0923 20.1351 34.7203 19.5215L33.0406 16.7507C32.5133 15.8808 32.7529 14.7422 33.5862 14.1587C34.0163 13.8576 34.5377 13.7448 35.0534 13.8412C35.5695 13.9375 36.0147 14.2308 36.3071 14.6669L40.6054 21.077C42.0499 23.2312 42.8114 25.7405 42.8077 28.3339L42.8015 32.6877C42.8012 32.9472 42.9041 33.1963 43.0876 33.3798L45.7068 35.9991C45.8975 36.1897 46.1474 36.2851 46.3973 36.2851C46.6472 36.2851 46.8972 36.1897 47.0878 35.9991C47.4692 35.6177 47.4692 34.9993 47.0878 34.6179Z" />
<path d="M26.1406 12.0737C25.9599 11.8921 25.7079 11.7876 25.4511 11.7876C25.1933 11.7876 24.9424 11.8921 24.7597 12.0737C24.5781 12.2554 24.4736 12.5073 24.4736 12.7642C24.4736 13.022 24.5781 13.273 24.7597 13.4546C24.9424 13.6363 25.1933 13.7408 25.4511 13.7408C25.7079 13.7408 25.959 13.6363 26.1406 13.4546C26.3232 13.273 26.4277 13.021 26.4277 12.7642C26.4277 12.5073 26.3232 12.2554 26.1406 12.0737Z" />
<path d="M35.2036 27.2287C35.5849 26.8473 35.5849 26.2289 35.2036 25.8475C34.8222 25.4662 34.2038 25.4662 33.8224 25.8475L33.3964 26.2735C31.5728 28.0972 31.5728 31.0647 33.3964 32.8884C33.5871 33.079 33.8371 33.1744 34.087 33.1744C34.3368 33.1744 34.5869 33.079 34.7775 32.8884C35.1588 32.507 35.1589 31.8886 34.7775 31.5072C33.7154 30.445 33.7154 28.7167 34.7775 27.6545L35.2036 27.2287Z" />
<path d="M46.6111 5.27277C45.9903 5.27277 45.3835 5.44894 44.8588 5.77112C44.3341 5.44894 43.7273 5.27277 43.1065 5.27277C41.2379 5.27277 39.7177 6.82084 39.7177 8.72352C39.7177 9.8019 40.493 11.0969 42.0879 12.6829C43.1617 13.7507 44.221 14.5634 44.2656 14.5975C44.4406 14.7314 44.6497 14.7983 44.8588 14.7983C45.0679 14.7983 45.2768 14.7314 45.452 14.5975C45.4966 14.5634 46.5559 13.7506 47.6297 12.6829C49.2246 11.0971 49.9999 9.8019 49.9999 8.72352C49.9999 6.82078 48.4797 5.27277 46.6111 5.27277ZM44.8585 12.5724C43.2265 11.2169 41.6708 9.48731 41.6708 8.72352C41.6708 7.89774 42.3148 7.22593 43.1065 7.22593C43.5002 7.22593 43.8676 7.38913 44.141 7.68562C44.326 7.88603 44.5861 8 44.8588 8C45.1315 8 45.3917 7.88603 45.5766 7.68562C45.85 7.38924 46.2174 7.22593 46.6111 7.22593C47.4028 7.22593 48.0468 7.89774 48.0468 8.72352C48.0468 9.48539 46.4906 11.2154 44.8585 12.5724Z" />
<path d="M6.89342 4.62052e-09C6.27267 4.62052e-09 5.66582 0.176177 5.14111 0.498353C4.6164 0.176177 4.00956 4.62052e-09 3.38877 4.62052e-09C1.52021 -9.76539e-05 0 1.54789 0 3.45068C0 4.52902 0.775294 5.82405 2.37021 7.41006C3.44404 8.47788 4.50341 9.29069 4.54794 9.32478C4.72295 9.45866 4.93202 9.52552 5.14111 9.52552C5.35019 9.52552 5.55919 9.45866 5.73426 9.32478C5.77891 9.29069 6.83817 8.47788 7.91198 7.41017C9.50692 5.82416 10.2822 4.52912 10.2822 3.45078C10.2822 1.54799 8.76202 4.62052e-09 6.89342 4.62052e-09ZM5.14081 7.29948C3.50869 5.94398 1.95312 4.21456 1.95312 3.45068C1.95312 2.62487 2.59717 1.95308 3.38877 1.95308C3.78252 1.95308 4.1499 2.11627 4.42334 2.41276C4.60829 2.61315 4.86845 2.72712 5.14111 2.72712C5.41376 2.72712 5.67403 2.61315 5.85889 2.41276C6.13234 2.11636 6.49972 1.95308 6.89342 1.95308C7.68504 1.95308 8.3291 2.62487 8.3291 3.45068C8.3291 4.21242 6.77295 5.94256 5.14081 7.29948Z" />
</svg>
