<svg width="58" height="58" viewBox="0 0 58 58"  xmlns="http://www.w3.org/2000/svg">
<g >
<path d="M25.094 20.1165C22.2563 20.1165 20.2112 22.491 20.2112 25.3742C20.2112 28.5431 22.6501 30.6211 26.342 33.7666C26.9854 34.3147 27.6507 34.8816 28.3572 35.4996C28.5413 35.6607 28.7707 35.7412 29.0001 35.7412C29.2296 35.7412 29.459 35.6608 29.6431 35.4996C30.3496 34.8816 31.015 34.3147 31.6583 33.7666C35.3502 30.6211 37.7891 28.5431 37.7891 25.3742C37.7891 22.4907 35.7435 20.1165 32.9063 20.1165C30.9666 20.1165 29.7362 21.224 29.0001 22.2937C28.2643 21.224 27.0338 20.1165 25.094 20.1165ZM29.942 24.7693C29.9494 24.7424 30.7078 22.0695 32.9063 22.0695C34.5766 22.0695 35.836 23.4902 35.836 25.3742C35.836 27.6412 33.7867 29.3873 30.3916 32.28C29.9412 32.6639 29.48 33.0567 29.0001 33.4711C28.5203 33.0567 28.0591 32.6638 27.6087 32.28C24.2136 29.3873 22.1643 27.6412 22.1643 25.3742C22.1643 23.4902 23.4238 22.0695 25.094 22.0695C27.2644 22.0695 28.0247 24.6506 28.0591 24.7722C28.1765 25.1948 28.5613 25.4875 29.0001 25.4875C29.44 25.4875 29.8255 25.1934 29.942 24.7693Z" />
<path d="M16.3051 10.9369C16.8444 10.9369 17.2816 10.4997 17.2816 9.96036C17.2816 9.42102 16.8444 8.98376 16.3051 8.98376C15.7657 8.98376 15.3285 9.42102 15.3285 9.96036C15.3285 10.4997 15.7657 10.9369 16.3051 10.9369Z" />
<path d="M47.7286 23.2257C48.4133 23.7475 49.2312 24.0231 50.0938 24.0231C52.2476 24.0231 54 22.2708 54 20.1169C54 18.8866 53.4382 17.7534 52.4623 17.0106L47.5547 13.2391V0.976551C47.5547 0.4373 47.1175 0 46.5782 0H40.7189C40.1795 0 39.7423 0.4373 39.7423 0.976551V7.23518L31.3655 0.797452C30.6807 0.27568 29.8628 0 29.0003 0C28.1377 0 27.3198 0.27568 26.6317 0.799892L19.1964 6.51419C18.7687 6.84281 18.6884 7.45595 19.0172 7.88347C19.3458 8.31106 19.9589 8.39139 20.3866 8.06271L27.8186 2.35095C28.1603 2.0907 28.5689 1.9531 29.0003 1.9531C29.4316 1.9531 29.8402 2.0907 30.1787 2.34851L51.2758 18.562C51.7658 18.935 52.0469 19.5017 52.0469 20.1169C52.0469 21.1939 51.1707 22.0701 50.0938 22.0701C49.6624 22.0701 49.2538 21.9324 48.9156 21.6748C47.8217 20.8335 30.4781 7.49435 29.5956 6.81562C29.2571 6.55518 28.7886 6.54507 28.4389 6.79062C28.3947 6.82161 9.09004 21.6708 9.08799 21.6725C8.69649 21.9711 8.20704 22.1085 7.70783 22.06C6.74085 21.9663 6.21624 21.5115 6.00667 20.585C5.83109 19.8087 6.10638 19.0334 6.72835 18.5592L13.4205 13.4162C13.8482 13.0877 13.9284 12.4745 13.5998 12.0469C13.271 11.6194 12.6578 11.539 12.2303 11.8677L5.54135 17.0083C4.30699 17.9493 3.75543 19.4849 4.10181 21.0159C4.498 22.7677 5.71186 23.8289 7.51886 24.0038C8.50958 24.1008 9.4873 23.8242 10.2725 23.2254L10.271 23.2235C10.3125 23.193 10.3691 23.1503 10.4459 23.0917V36.4899C8.21143 37.0258 6.48353 38.8439 6.07093 41.1459C4.78266 42.0568 4.00064 43.5367 4.00064 45.1165C4.00064 47.8089 6.19105 49.9993 8.8834 49.9993H49.1173C51.8097 49.9993 54.0001 47.8089 54.0001 45.1165C54.0001 43.5367 53.2181 42.0568 51.9298 41.1459C51.5171 38.8429 49.788 37.0243 47.5548 36.4895V23.092L47.7286 23.2257ZM41.6954 1.9531H45.6016V11.7381L41.6954 8.73611V1.9531ZM19.6254 48.0463H8.8833C7.26789 48.0463 5.95365 46.732 5.95365 45.1167C5.95365 44.0732 6.52932 43.1004 7.45597 42.5776C7.73419 42.4207 7.91798 42.1376 7.94835 41.8195C8.13927 39.8144 9.79933 38.2808 11.8131 38.2808C13.0705 38.2808 14.2605 38.9001 14.9958 39.9373C15.2263 40.2623 15.6311 40.4148 16.0188 40.3225C16.2691 40.2629 16.4905 40.2339 16.6958 40.2339C18.2728 40.2339 19.6061 41.5005 19.6253 43.1291C19.5421 43.7162 19.8559 44.1176 20.2632 44.2595C21.019 44.5228 21.5786 45.2375 21.5786 46.0931C21.5784 47.1702 20.7023 48.0463 19.6254 48.0463ZM36.4431 42.7101C35.8395 43.0515 35.3413 43.544 34.9953 44.1402H23.0049C22.6587 43.5438 22.1607 43.0514 21.5574 42.7101C21.541 42.5342 21.515 42.3597 21.4798 42.1861H36.5208C36.4856 42.3596 36.4597 42.5342 36.4431 42.7101ZM23.0073 48.0463C23.3406 47.4714 23.5316 46.8041 23.5316 46.0932H34.4689C34.4689 46.8041 34.6599 47.4714 34.9932 48.0463H23.0073ZM50.0522 41.8195C50.0825 42.1376 50.2664 42.4206 50.5447 42.5776C51.4713 43.1004 52.047 44.0732 52.047 45.1167C52.047 46.732 50.7327 48.0463 49.1173 48.0463H38.3753C37.2983 48.0463 36.4221 47.1701 36.4221 46.0932C36.4221 45.2366 36.9827 44.5225 37.7376 44.2596C38.1483 44.1165 38.4582 43.7129 38.3754 43.1292C38.3946 41.5047 39.724 40.234 41.3049 40.234C41.5101 40.234 41.7316 40.263 41.982 40.3226C42.3693 40.4147 42.7744 40.2625 43.0049 39.9374C43.7403 38.9002 44.9301 38.2809 46.1877 38.2809C48.2006 38.2808 49.8611 39.8126 50.0522 41.8195ZM45.6016 36.3585C44.1422 36.5072 42.7837 37.2055 41.8061 38.3101C41.6355 38.2906 41.4692 38.2808 41.3048 38.2808C39.7641 38.2808 38.3167 39.0171 37.4006 40.2339H20.6C19.6843 39.0174 18.2366 38.2808 16.6957 38.2808C16.5313 38.2808 16.3649 38.2906 16.1943 38.3101C15.2168 37.2055 13.8584 36.5072 12.3989 36.3585V21.5902C13.8165 20.4998 27.369 10.0759 29.0002 8.82166L45.6016 21.59V36.3585Z" />
</g>

</svg>
