<svg width="50" height="50" viewBox="0 0 50 50" xmlns="http://www.w3.org/2000/svg">
    <g clip-path="url(#clip0)">
        <path d="M47.5086 24.983L45.2402 24.699C44.5505 23.0117 43.5597 21.4509 42.3282 20.1005L43.9961 13.0347C44.0647 12.7443 43.9967 12.4385 43.8115 12.2045C43.6264 11.9706 43.3444 11.834 43.0461 11.8338L42.8327 11.8337C42.8315 11.8337 42.8306 11.8337 42.8293 11.8337C40.0607 11.8337 37.5655 13.5757 36.584 16.1308C35.8899 15.8549 35.1763 15.6277 34.4486 15.4555C33.9237 15.3314 33.3976 15.6561 33.2735 16.1811C33.1494 16.706 33.4742 17.2321 33.9991 17.3562C36.4849 17.9442 38.7024 19.2012 40.4502 20.9456C40.5141 21.0392 40.5937 21.122 40.6872 21.189C41.9613 22.5263 42.9685 24.1308 43.6218 25.9288C43.7469 26.2734 44.0546 26.5189 44.4183 26.5644L47.2661 26.9209C47.7113 26.9767 48.047 27.3571 48.047 27.8057V32.7292C48.047 33.1779 47.7112 33.5582 47.2661 33.614L44.6272 33.9444C44.2476 33.9918 43.9307 34.2566 43.8164 34.6217C43.0335 37.1232 41.546 39.3352 39.5145 41.0184C39.2906 41.2039 39.161 41.4796 39.161 41.7703V47.1682C39.161 47.6526 38.7668 48.0468 38.2824 48.0468H32.6177C32.1332 48.0468 31.7391 47.6526 31.7391 47.1682V45.1109C31.7391 44.5716 31.3018 44.1344 30.7625 44.1344H22.5581C22.0188 44.1344 21.5815 44.5716 21.5815 45.1109V47.1682C21.5815 47.6526 21.1874 48.0468 20.7029 48.0468H15.0381C14.5537 48.0468 14.1595 47.6526 14.1595 47.1682V43.3567C14.1595 42.9986 13.9635 42.6693 13.6489 42.4985C9.2659 40.1189 6.54296 35.5455 6.54296 30.5633C6.54296 23.0801 12.6309 16.9921 20.1141 16.9921H21.3379C21.8771 16.9921 22.3144 16.5549 22.3144 16.0156C22.3144 15.4762 21.8771 15.039 21.3379 15.039H20.1141C12.8649 15.039 6.76092 20.0338 5.06122 26.7626H4.3457C3.02636 26.7626 1.95312 25.6893 1.95312 24.3701C1.95312 23.0508 3.02636 21.9775 4.3457 21.9775C4.88495 21.9775 5.32226 21.5403 5.32226 21.0009C5.32226 20.4616 4.88495 20.0244 4.3457 20.0244C1.94951 20.0244 0 21.9738 0 24.3701C0 26.7663 1.94951 28.7157 4.3457 28.7157H4.70028C4.62802 29.3218 4.58984 29.9381 4.58984 30.5633C4.58984 36.0661 7.49354 41.1328 12.2063 43.9253V47.1683C12.2063 48.7297 13.4766 50 15.038 50H20.7027C22.2641 50 23.5344 48.7297 23.5344 47.1683V46.0876H29.7858V47.1683C29.7858 48.7297 31.0561 50 32.6175 50H38.2822C39.8436 50 41.1139 48.7297 41.1139 47.1683V42.2206C43.0967 40.4768 44.593 38.2771 45.4785 35.8062L47.5085 35.552C48.9288 35.3742 49.9999 34.1607 49.9999 32.7292V27.8057C49.9999 26.3743 48.9289 25.1608 47.5086 24.983ZM40.6882 18.5465C39.9597 17.9506 39.1794 17.4227 38.3587 16.9694C38.8983 15.4191 40.2143 14.2656 41.7837 13.9054L40.6882 18.5465Z"/>
        <path d="M38.8739 24.7979C38.6924 24.6162 38.4405 24.5117 38.1836 24.5117C37.9268 24.5117 37.6748 24.6162 37.4932 24.7979C37.3116 24.9795 37.2071 25.2314 37.2071 25.4883C37.2071 25.7451 37.3115 25.9971 37.4932 26.1787C37.6749 26.3603 37.9268 26.4648 38.1836 26.4648C38.4405 26.4648 38.6924 26.3603 38.8739 26.1787C39.0556 25.9971 39.1602 25.7451 39.1602 25.4883C39.1602 25.2314 39.0556 24.9795 38.8739 24.7979Z"/>
        <path d="M28.6369 5.69653C28.0976 5.69653 27.6603 6.13374 27.6603 6.67309V10.5466C27.6603 11.086 28.0976 11.5232 28.6369 11.5232C29.1761 11.5232 29.6134 11.086 29.6134 10.5466V6.67309C29.6134 6.13384 29.1762 5.69653 28.6369 5.69653Z"/>
        <path d="M29.3271 2.43945C29.1456 2.25781 28.8936 2.15332 28.6368 2.15332C28.3798 2.15332 28.128 2.25781 27.9463 2.43945C27.7647 2.62109 27.6602 2.87305 27.6602 3.12988C27.6602 3.38769 27.7646 3.63867 27.9463 3.82031C28.128 4.00195 28.3798 4.10644 28.6368 4.10644C28.8936 4.10644 29.1456 4.00195 29.3271 3.82031C29.5088 3.63867 29.6133 3.38672 29.6133 3.12988C29.6133 2.87305 29.5088 2.62207 29.3271 2.43945Z"/>
        <path d="M20.7031 0C20.1638 0 19.7265 0.437206 19.7265 0.976561V2.63671C19.7265 3.17607 20.1638 3.61327 20.7031 3.61327C21.2423 3.61327 21.6797 3.17607 21.6797 2.63671V0.976561C21.6797 0.437206 21.2424 0 20.7031 0Z"/>
        <path d="M11.1267 30.5634C11.1267 30.024 10.6894 29.5868 10.1502 29.5868C9.61092 29.5868 9.17361 30.024 9.17361 30.5634L9.17371 30.6152C9.17703 31.1524 9.61365 31.5857 10.1502 31.5857C10.1521 31.5857 10.1542 31.5857 10.1563 31.5857C10.6956 31.5823 11.1302 31.1424 11.1268 30.603L11.1267 30.5634Z"/>
        <path d="M15.4495 38.2471C13.7519 37.214 12.4268 35.6268 11.7184 33.7779C11.5253 33.2741 10.9606 33.0222 10.4571 33.2154C9.95348 33.4084 9.70162 33.973 9.89459 34.4767C10.7569 36.7274 12.3691 38.6589 14.4342 39.9156C14.5928 40.0121 14.7679 40.0581 14.9409 40.0581C15.2705 40.0581 15.5922 39.8912 15.7761 39.589C16.0565 39.1283 15.9101 38.5275 15.4495 38.2471Z"/>
        <path d="M20.7031 4.69263C18.4415 4.69263 16.6015 6.53257 16.6015 8.79418C16.6015 11.0558 18.4415 12.8957 20.7031 12.8957C22.9647 12.8957 24.8046 11.0558 24.8046 8.79418C24.8046 6.53257 22.9647 4.69263 20.7031 4.69263ZM20.7031 10.9426C19.5184 10.9426 18.5547 9.97885 18.5547 8.79418C18.5547 7.60952 19.5184 6.64575 20.7031 6.64575C21.8878 6.64575 22.8515 7.60952 22.8515 8.79418C22.8515 9.97885 21.8878 10.9426 20.7031 10.9426Z"/>
        <path d="M33.0078 20.7031H32.1288C32.515 20.0778 32.7384 19.342 32.7384 18.5547C32.7384 16.2931 30.8985 14.4531 28.6369 14.4531C26.3752 14.4531 24.5353 16.2931 24.5353 18.5547C24.5352 19.342 24.7586 20.0778 25.1448 20.7031H20.3125C19.7732 20.7031 19.3359 21.1403 19.3359 21.6797C19.3359 22.219 19.7732 22.6562 20.3125 22.6562H33.0078C33.547 22.6562 33.9843 22.219 33.9843 21.6797C33.9843 21.1403 33.5471 20.7031 33.0078 20.7031ZM28.6369 20.7031C27.4522 20.7031 26.4884 19.7393 26.4884 18.5547C26.4884 17.37 27.4522 16.4062 28.6369 16.4062C29.8215 16.4062 30.7853 17.37 30.7853 18.5547C30.7853 19.7393 29.8214 20.7031 28.6369 20.7031Z"/>
    </g>
    <defs>
        <clipPath id="clip0">
            <rect width="50" height="50" fill="white"/>
        </clipPath>
    </defs>
</svg>
