<svg width="58" height="58" viewBox="0 0 58 58"  xmlns="http://www.w3.org/2000/svg">
<g >
<path d="M15.6923 25.0092C16.2613 24.9742 16.6897 24.5468 16.6492 24.0547C16.6087 23.5626 16.1147 23.192 15.5457 23.227C14.9767 23.262 14.5483 23.6894 14.5888 24.1815C14.6293 24.6736 15.1233 25.0442 15.6923 25.0092Z" />
<path d="M22.6355 25.0001C23.2056 25.0001 23.6678 24.6003 23.6678 24.1072C23.6678 23.6141 23.2056 23.2144 22.6355 23.2144C22.0654 23.2144 21.6032 23.6141 21.6032 24.1072C21.6032 24.6003 22.0654 25.0001 22.6355 25.0001Z" />
<path d="M34.7857 25.5974C35.3558 25.5974 35.818 25.1976 35.818 24.7045C35.818 24.2114 35.3558 23.8116 34.7857 23.8116C34.2156 23.8116 33.7534 24.2114 33.7534 24.7045C33.7534 25.1976 34.2156 25.5974 34.7857 25.5974Z" />
<path d="M41.8132 25.5974C42.3833 25.5974 42.8454 25.1976 42.8454 24.7045C42.8454 24.2114 42.3833 23.8116 41.8132 23.8116C41.2431 23.8116 40.7809 24.2114 40.7809 24.7045C40.7809 25.1976 41.2431 25.5974 41.8132 25.5974Z" />
<path d="M40.8611 27.625C40.4477 27.4216 39.9219 27.5459 39.6861 27.9035C39.4024 28.3343 38.8709 28.602 38.2995 28.602C37.728 28.602 37.1966 28.3343 36.9128 27.9035C36.6772 27.5459 36.1509 27.4214 35.7379 27.625C35.3244 27.8287 35.1802 28.2838 35.4159 28.6413C36.0056 29.5364 37.1104 30.0922 38.2995 30.0922C39.4886 30.0922 40.5935 29.5363 41.1831 28.6413C41.4187 28.2838 41.2745 27.8287 40.8611 27.625Z" />
<path d="M49.1944 25.5632C49.787 23.9867 48.9504 22.3331 47.3292 21.877C47.1523 21.8273 46.9173 21.7851 46.6586 21.7862V19.12C46.6586 16.9801 44.8637 15.1971 42.5079 14.8352C42.4037 12.8933 40.5449 11.3412 38.2744 11.3412C36.0009 11.3412 34.1404 12.8975 34.0406 14.843C31.7096 15.2224 29.9401 16.9954 29.9401 19.1201V21.7863C29.6787 21.7851 29.4464 21.8275 29.2695 21.8772C29.0669 21.9342 28.8767 22.0098 28.7 22.1017C28.5276 22.0143 28.3449 21.9422 28.1516 21.8879C27.9748 21.8382 27.7418 21.7947 27.4809 21.7976V18.2476C27.4809 16.0839 25.4456 14.3234 22.9439 14.3234H15.2995C12.7978 14.3234 10.7625 16.0839 10.7625 18.2476V21.7975C10.5014 21.7942 10.2686 21.8382 10.092 21.8878C9.2818 22.1157 8.64514 22.6397 8.29943 23.3635C7.97336 24.0461 7.94762 24.831 8.22694 25.5739C8.60246 26.5726 9.58732 27.6246 10.7626 28.0299V29.5283C10.7626 33.5151 14.5125 36.7586 19.1218 36.7586C23.7311 36.7586 27.481 33.515 27.481 29.5282V28.0268C27.9381 27.8664 28.356 27.6103 28.7123 27.3191C29.1232 27.6552 29.5953 27.924 30.0993 28.0703C30.8604 31.4292 34.2812 33.8993 38.2995 33.8993C42.3179 33.8993 45.7385 31.4292 46.4996 28.0704C47.7446 27.7088 48.8021 26.6066 49.1944 25.5632ZM38.2745 12.8313C39.5677 12.8313 40.6357 13.6799 40.7745 14.7669H35.7746C35.9133 13.6799 36.9813 12.8313 38.2745 12.8313ZM31.6632 19.12C31.6632 17.5414 33.1481 16.2571 34.9731 16.2571H41.6258C43.4509 16.2571 44.9357 17.5415 44.9357 19.12V20.3607C44.6936 20.3862 44.4508 20.3991 44.2091 20.3991C42.232 20.3991 40.4185 19.5892 39.2336 18.1771C39.0292 17.9336 38.7001 17.7931 38.352 17.7965C38.0046 17.8015 37.6813 17.9533 37.4871 18.2022C36.3254 19.6892 34.4197 20.5769 32.3895 20.5769C32.1479 20.5769 31.905 20.564 31.6629 20.5386L31.6632 19.12ZM15.2996 15.8134H22.9441C24.4957 15.8134 25.7581 16.9052 25.7581 18.2473V19.2759C24.8726 18.6055 23.7145 18.1981 22.4482 18.1981H15.7954C14.529 18.1981 13.3711 18.6054 12.4856 19.2759V18.2473C12.4856 16.9052 13.7479 15.8134 15.2996 15.8134ZM25.7582 29.528C25.7582 32.6931 22.7811 35.2681 19.1219 35.2681C15.4627 35.2681 12.4857 32.6931 12.4857 29.5281V29.0031C12.9 30.2721 13.8739 31.3695 15.1983 32.0459C15.5631 32.2323 16.0073 32.2847 16.4164 32.1893C16.8252 32.0942 17.1637 31.8674 17.3694 31.5505C17.7254 31.0025 18.397 30.6622 19.122 30.6622C19.8471 30.6622 20.5187 31.0025 20.8746 31.5504C21.0806 31.8674 21.419 32.0942 21.8278 32.1893C22.2371 32.2847 22.681 32.2323 23.0458 32.046C24.3703 31.3695 25.3441 30.272 25.7584 29.0031L25.7582 29.528ZM27.2354 26.4509C27.144 26.3549 27.0298 26.2738 26.8967 26.2144C26.537 26.0536 26.1085 26.0795 25.7786 26.282C24.9493 26.7911 24.375 27.5385 24.1612 28.3868C23.9217 29.3373 23.2439 30.1729 22.2924 30.6975C21.6135 29.7531 20.4135 29.172 19.1218 29.172C17.8302 29.172 16.6303 29.753 15.9513 30.6975C14.9996 30.1729 14.3219 29.3373 14.0825 28.3868C13.8689 27.5391 13.295 26.792 12.4665 26.283C12.3207 26.1934 12.1464 26.1453 11.9677 26.1453C11.6133 26.1453 11.2951 26.2791 11.0744 26.4905C10.5705 26.1964 10.068 25.6516 9.8654 25.1129C9.71275 24.7068 9.72212 24.2876 9.89182 23.9323C10.0418 23.6183 10.3021 23.3955 10.6249 23.3047C10.7363 23.2735 10.7738 23.2631 10.9224 23.4434C11.1396 23.7074 11.529 23.8199 11.8864 23.721C12.2434 23.6223 12.4856 23.3354 12.4856 23.0113V22.5513C12.4856 20.9727 13.9704 19.6885 15.7954 19.6885H22.4482C24.2733 19.6885 25.7581 20.9728 25.7581 22.5513V23.0113C25.7581 23.3354 26.0003 23.6223 26.3573 23.721C26.714 23.8199 27.104 23.7075 27.3212 23.4434C27.4134 23.3316 27.4628 23.2932 27.5135 23.2876C27.1703 23.9574 27.1064 24.7699 27.4045 25.5632C27.4735 25.7468 27.5643 25.9321 27.6719 26.115C27.5317 26.2451 27.3837 26.3585 27.2354 26.4509ZM44.8865 27.3572C44.4887 30.2371 41.657 32.4088 38.2994 32.4088C34.942 32.4088 32.1103 30.2371 31.7125 27.3572C31.6627 26.9967 31.3197 26.7197 30.9003 26.7014C30.2559 26.6734 29.3359 25.8813 29.043 25.1023C28.8214 24.513 28.9519 23.9153 29.3263 23.5631C29.336 23.5543 29.3464 23.5458 29.3555 23.5367C29.4806 23.4269 29.6303 23.3428 29.8024 23.2944C29.9134 23.2629 29.9512 23.2523 30.1 23.4331C30.3175 23.697 30.707 23.8095 31.0641 23.7105C31.421 23.6119 31.6632 23.325 31.6632 23.0009V22.037C31.9053 22.0569 32.1479 22.0674 32.3897 22.0674C34.7051 22.0674 36.8906 21.1713 38.389 19.6377C39.8803 21.0593 41.9991 21.8895 44.2093 21.8895C44.4511 21.8895 44.6936 21.879 44.9358 21.8592V23.001C44.9358 23.3251 45.1781 23.612 45.535 23.7106C45.8914 23.8094 46.2816 23.6971 46.499 23.4331C46.6476 23.2527 46.685 23.2633 46.7967 23.2943C47.5142 23.4962 47.8548 24.3074 47.5561 25.1024C47.2631 25.8815 46.3431 26.6735 45.6987 26.7015C45.2792 26.7197 44.9362 26.9967 44.8865 27.3572Z" />
<path d="M24.1911 27.0688C23.5053 26.9583 22.8492 26.7345 22.2612 26.4103C21.5973 26.0443 20.7812 25.933 20.0346 26.1493C19.9011 26.188 19.7684 26.2315 19.6366 26.2798C19.388 26.4243 19.015 26.5005 18.6068 26.2798C18.4751 26.2315 18.3423 26.188 18.2088 26.1493C17.4623 25.933 16.6462 26.0443 15.9823 26.4103C15.3942 26.7344 14.7383 26.9583 14.0523 27.0687C13.7402 27.1189 13.6713 27.4758 13.9452 27.6146C14.1453 27.7159 14.3552 27.8074 14.5743 27.8877C15.8919 28.3709 17.3063 28.3683 18.5516 27.9738C18.6966 27.9279 18.819 27.8605 18.9187 27.7785C19.0328 27.6849 19.2101 27.6849 19.3242 27.7785C19.424 27.8604 19.5463 27.9278 19.6913 27.9738C20.9367 28.3683 22.351 28.3709 23.6685 27.8877C23.8877 27.8074 24.0975 27.7159 24.2976 27.6146C24.5721 27.4758 24.5032 27.119 24.1911 27.0688Z" />
<path d="M12.4144 6.83919C12.1272 6.86221 11.836 6.8824 11.5414 6.89976C11.4108 7.11956 11.3285 7.40407 11.363 7.72548L12.4758 7.60621L12.4776 7.60602L12.5156 7.60195L12.5157 7.60194L13.3508 7.51242L12.5157 7.60198L12.5156 7.60199L12.4776 7.60606L12.4758 7.60625L11.363 7.72558C11.3924 7.99967 11.4977 8.22135 11.6267 8.38834C11.9325 8.37053 12.235 8.3498 12.5335 8.32616C12.5346 8.32607 12.5358 8.32598 12.5369 8.32589C12.5491 8.32492 12.5612 8.32396 12.5733 8.32298C13.0471 8.28509 13.3955 7.92211 13.3516 7.51234C13.3089 7.11439 12.9107 6.81748 12.4545 6.8367C12.4544 6.8367 12.4543 6.8367 12.4542 6.83671C12.441 6.83727 12.4277 6.8381 12.4144 6.83919Z"   stroke-width="4"/>
<mask id="path-9-inside-1" >
<path d="M51.8255 6.996L48.8874 6.97744C39.125 6.91621 34.6463 3.94717 33.1737 2.67344C32.6297 2.20303 32.1182 1.69033 31.6535 1.14961C31.0275 0.421289 30.0663 0.00224609 29.0167 0C29.0139 0 29.0112 0 29.0085 0C27.9584 0 26.9944 0.416895 26.3632 1.14424C25.9003 1.67744 25.3833 2.19209 24.8265 2.67363C23.4908 3.82891 20.9527 5.39424 16.4471 6.29024C15.9834 6.38252 15.694 6.78233 15.8006 7.1834C15.9072 7.58447 16.3697 7.83467 16.8331 7.74258C21.7373 6.76729 24.5493 5.0208 26.0447 3.72734C26.6588 3.19619 27.2294 2.62813 27.7408 2.03897C28.0435 1.69004 28.5054 1.49023 29.0085 1.49023H29.0125C29.5134 1.49131 29.9719 1.69121 30.2708 2.03887C30.7854 2.6377 31.3522 3.20576 31.9552 3.72734C33.578 5.13086 38.4749 8.40244 48.8747 8.46768L51.813 8.48623C52.0689 8.4878 52.2771 8.66924 52.2771 8.89063V22.8491C52.2771 26.3394 51.339 29.8413 49.5642 32.9762C48.3064 35.1977 46.6423 37.2269 44.618 39.0072C44.2844 39.3006 44.289 39.7725 44.6282 40.0609C44.796 40.2036 45.0141 40.2748 45.2322 40.2748C45.455 40.2748 45.6779 40.2004 45.8464 40.0522C48.0008 38.1572 49.7722 35.9972 51.1115 33.6316C53.0011 30.2938 54 26.5653 54 22.8491V8.89063C54.0001 7.85352 53.0245 7.00352 51.8255 6.996Z"/>
</mask>
<path d="M51.8255 6.996L48.8874 6.97744C39.125 6.91621 34.6463 3.94717 33.1737 2.67344C32.6297 2.20303 32.1182 1.69033 31.6535 1.14961C31.0275 0.421289 30.0663 0.00224609 29.0167 0C29.0139 0 29.0112 0 29.0085 0C27.9584 0 26.9944 0.416895 26.3632 1.14424C25.9003 1.67744 25.3833 2.19209 24.8265 2.67363C23.4908 3.82891 20.9527 5.39424 16.4471 6.29024C15.9834 6.38252 15.694 6.78233 15.8006 7.1834C15.9072 7.58447 16.3697 7.83467 16.8331 7.74258C21.7373 6.76729 24.5493 5.0208 26.0447 3.72734C26.6588 3.19619 27.2294 2.62813 27.7408 2.03897C28.0435 1.69004 28.5054 1.49023 29.0085 1.49023H29.0125C29.5134 1.49131 29.9719 1.69121 30.2708 2.03887C30.7854 2.6377 31.3522 3.20576 31.9552 3.72734C33.578 5.13086 38.4749 8.40244 48.8747 8.46768L51.813 8.48623C52.0689 8.4878 52.2771 8.66924 52.2771 8.89063V22.8491C52.2771 26.3394 51.339 29.8413 49.5642 32.9762C48.3064 35.1977 46.6423 37.2269 44.618 39.0072C44.2844 39.3006 44.289 39.7725 44.6282 40.0609C44.796 40.2036 45.0141 40.2748 45.2322 40.2748C45.455 40.2748 45.6779 40.2004 45.8464 40.0522C48.0008 38.1572 49.7722 35.9972 51.1115 33.6316C53.0011 30.2938 54 26.5653 54 22.8491V8.89063C54.0001 7.85352 53.0245 7.00352 51.8255 6.996Z" />
<path d="M51.8255 6.996L51.8002 10.9959L51.8004 10.9959L51.8255 6.996ZM48.8874 6.97744L48.9126 2.97752L48.9125 2.97752L48.8874 6.97744ZM33.1737 2.67344L35.7904 -0.351885L35.7901 -0.352154L33.1737 2.67344ZM31.6535 1.14961L34.6871 -1.45755L34.6869 -1.45782L31.6535 1.14961ZM29.0167 0L29.0252 -4H29.0167V0ZM26.3632 1.14424L29.3837 3.76654L29.3841 3.76605L26.3632 1.14424ZM24.8265 2.67363L22.21 -0.351952L22.2097 -0.35169L24.8265 2.67363ZM16.4471 6.29024L15.6669 2.36706L15.6663 2.36718L16.4471 6.29024ZM16.8331 7.74258L17.6128 11.6658L17.6133 11.6658L16.8331 7.74258ZM26.0447 3.72734L28.6615 6.75267V6.75267L26.0447 3.72734ZM27.7408 2.03897L30.7614 4.66117L30.7623 4.66013L27.7408 2.03897ZM29.0125 1.49023L29.0211 -2.50977H29.0125V1.49023ZM30.2708 2.03887L33.3045 -0.568192L33.3041 -0.568647L30.2708 2.03887ZM31.9552 3.72734L29.3384 6.75267L29.3386 6.75276L31.9552 3.72734ZM48.8747 8.46768L48.9 4.46776L48.8998 4.46776L48.8747 8.46768ZM51.813 8.48623L51.7877 12.4862L51.7885 12.4862L51.813 8.48623ZM49.5642 32.9762L53.045 34.9471L53.0451 34.9468L49.5642 32.9762ZM44.618 39.0072L47.2594 42.0111L47.2597 42.0108L44.618 39.0072ZM44.6282 40.0609L42.0366 43.1079L42.0369 43.1081L44.6282 40.0609ZM45.8464 40.0522L48.488 43.0559L48.4883 43.0556L45.8464 40.0522ZM51.1115 33.6316L54.5923 35.6024L54.5924 35.6023L51.1115 33.6316ZM54 8.89063L50 8.89019V8.89063H54ZM51.8507 2.99608L48.9126 2.97752L48.8621 10.9774L51.8002 10.9959L51.8507 2.99608ZM48.9125 2.97752C40.0216 2.92176 36.4838 0.247834 35.7904 -0.351885L30.5569 5.69876C32.8088 7.6465 38.2285 10.9107 48.8623 10.9774L48.9125 2.97752ZM35.7901 -0.352154C35.394 -0.694681 35.0222 -1.06769 34.6871 -1.45755L28.6199 3.75677C29.2143 4.44835 29.8654 5.10074 30.5572 5.69903L35.7901 -0.352154ZM34.6869 -1.45782C33.2269 -3.15628 31.1158 -3.99552 29.0252 -3.99999L29.0081 3.99999C29.0049 3.99998 28.9645 3.99936 28.8954 3.9692C28.8253 3.93866 28.7218 3.87525 28.6202 3.75704L34.6869 -1.45782ZM29.0167 -4C29.0167 -4 29.0166 -4 29.0166 -4C29.0166 -4 29.0166 -4 29.0166 -4C29.0166 -4 29.0166 -4 29.0166 -4C29.0166 -4 29.0166 -4 29.0166 -4C29.0166 -4 29.0166 -4 29.0166 -4C29.0166 -4 29.0166 -4 29.0166 -4C29.0166 -4 29.0166 -4 29.0165 -4C29.0165 -4 29.0165 -4 29.0165 -4C29.0165 -4 29.0165 -4 29.0165 -4C29.0165 -4 29.0165 -4 29.0165 -4C29.0165 -4 29.0165 -4 29.0165 -4C29.0165 -4 29.0165 -4 29.0165 -4C29.0165 -4 29.0165 -4 29.0165 -4C29.0164 -4 29.0164 -4 29.0164 -4C29.0164 -4 29.0164 -4 29.0164 -4C29.0164 -4 29.0164 -4 29.0164 -4C29.0164 -4 29.0164 -4 29.0164 -4C29.0164 -4 29.0164 -4 29.0164 -4C29.0164 -4 29.0164 -4 29.0164 -4C29.0164 -4 29.0163 -4 29.0163 -4C29.0163 -4 29.0163 -4 29.0163 -4C29.0163 -4 29.0163 -4 29.0163 -4C29.0163 -4 29.0163 -4 29.0163 -4C29.0163 -4 29.0163 -4 29.0163 -4C29.0163 -4 29.0163 -4 29.0163 -4C29.0163 -4 29.0163 -4 29.0162 -4C29.0162 -4 29.0162 -4 29.0162 -4C29.0162 -4 29.0162 -4 29.0162 -4C29.0162 -4 29.0162 -4 29.0162 -4C29.0162 -4 29.0162 -4 29.0162 -4C29.0162 -4 29.0162 -4 29.0162 -4C29.0162 -4 29.0162 -4 29.0162 -4C29.0161 -4 29.0161 -4 29.0161 -4C29.0161 -4 29.0161 -4 29.0161 -4C29.0161 -4 29.0161 -4 29.0161 -4C29.0161 -4 29.0161 -4 29.0161 -4C29.0161 -4 29.0161 -4 29.0161 -4C29.0161 -4 29.0161 -4 29.0161 -4C29.0161 -4 29.016 -4 29.016 -4C29.016 -4 29.016 -4 29.016 -4C29.016 -4 29.016 -4 29.016 -4C29.016 -4 29.016 -4 29.016 -4C29.016 -4 29.016 -4 29.016 -4C29.016 -4 29.016 -4 29.016 -4C29.016 -4 29.016 -4 29.0159 -4C29.0159 -4 29.0159 -4 29.0159 -4C29.0159 -4 29.0159 -4 29.0159 -4C29.0159 -4 29.0159 -4 29.0159 -4C29.0159 -4 29.0159 -4 29.0159 -4C29.0159 -4 29.0159 -4 29.0159 -4C29.0159 -4 29.0159 -4 29.0158 -4C29.0158 -4 29.0158 -4 29.0158 -4C29.0158 -4 29.0158 -4 29.0158 -4C29.0158 -4 29.0158 -4 29.0158 -4C29.0158 -4 29.0158 -4 29.0158 -4C29.0158 -4 29.0158 -4 29.0158 -4C29.0158 -4 29.0158 -4 29.0158 -4C29.0157 -4 29.0157 -4 29.0157 -4C29.0157 -4 29.0157 -4 29.0157 -4C29.0157 -4 29.0157 -4 29.0157 -4C29.0157 -4 29.0157 -4 29.0157 -4C29.0157 -4 29.0157 -4 29.0157 -4C29.0157 -4 29.0157 -4 29.0157 -4C29.0157 -4 29.0156 -4 29.0156 -4C29.0156 -4 29.0156 -4 29.0156 -4C29.0156 -4 29.0156 -4 29.0156 -4C29.0156 -4 29.0156 -4 29.0156 -4C29.0156 -4 29.0156 -4 29.0156 -4C29.0156 -4 29.0156 -4 29.0156 -4C29.0156 -4 29.0156 -4 29.0155 -4C29.0155 -4 29.0155 -4 29.0155 -4C29.0155 -4 29.0155 -4 29.0155 -4C29.0155 -4 29.0155 -4 29.0155 -4C29.0155 -4 29.0155 -4 29.0155 -4C29.0155 -4 29.0155 -4 29.0155 -4C29.0155 -4 29.0155 -4 29.0155 -4C29.0154 -4 29.0154 -4 29.0154 -4C29.0154 -4 29.0154 -4 29.0154 -4C29.0154 -4 29.0154 -4 29.0154 -4C29.0154 -4 29.0154 -4 29.0154 -4C29.0154 -4 29.0154 -4 29.0154 -4C29.0154 -4 29.0154 -4 29.0154 -4C29.0154 -4 29.0153 -4 29.0153 -4C29.0153 -4 29.0153 -4 29.0153 -4C29.0153 -4 29.0153 -4 29.0153 -4C29.0153 -4 29.0153 -4 29.0153 -4C29.0153 -4 29.0153 -4 29.0153 -4C29.0153 -4 29.0153 -4 29.0153 -4C29.0153 -4 29.0153 -4 29.0152 -4C29.0152 -4 29.0152 -4 29.0152 -4C29.0152 -4 29.0152 -4 29.0152 -4C29.0152 -4 29.0152 -4 29.0152 -4C29.0152 -4 29.0152 -4 29.0152 -4C29.0152 -4 29.0152 -4 29.0152 -4C29.0152 -4 29.0152 -4 29.0152 -4C29.0151 -4 29.0151 -4 29.0151 -4C29.0151 -4 29.0151 -4 29.0151 -4C29.0151 -4 29.0151 -4 29.0151 -4C29.0151 -4 29.0151 -4 29.0151 -4C29.0151 -4 29.0151 -4 29.0151 -4C29.0151 -4 29.0151 -4 29.0151 -4C29.015 -4 29.015 -4 29.015 -4C29.015 -4 29.015 -4 29.015 -4C29.015 -4 29.015 -4 29.015 -4C29.015 -4 29.015 -4 29.015 -4C29.015 -4 29.015 -4 29.015 -4C29.015 -4 29.015 -4 29.015 -4C29.015 -4 29.0149 -4 29.0149 -4C29.0149 -4 29.0149 -4 29.0149 -4C29.0149 -4 29.0149 -4 29.0149 -4C29.0149 -4 29.0149 -4 29.0149 -4C29.0149 -4 29.0149 -4 29.0149 -4C29.0149 -4 29.0149 -4 29.0149 -4C29.0149 -4 29.0149 -4 29.0148 -4C29.0148 -4 29.0148 -4 29.0148 -4C29.0148 -4 29.0148 -4 29.0148 -4C29.0148 -4 29.0148 -4 29.0148 -4C29.0148 -4 29.0148 -4 29.0148 -4C29.0148 -4 29.0148 -4 29.0148 -4C29.0148 -4 29.0148 -4 29.0148 -4C29.0147 -4 29.0147 -4 29.0147 -4C29.0147 -4 29.0147 -4 29.0147 -4C29.0147 -4 29.0147 -4 29.0147 -4C29.0147 -4 29.0147 -4 29.0147 -4C29.0147 -4 29.0147 -4 29.0147 -4C29.0147 -4 29.0147 -4 29.0147 -4C29.0147 -4 29.0146 -4 29.0146 -4C29.0146 -4 29.0146 -4 29.0146 -4C29.0146 -4 29.0146 -4 29.0146 -4C29.0146 -4 29.0146 -4 29.0146 -4C29.0146 -4 29.0146 -4 29.0146 -4C29.0146 -4 29.0146 -4 29.0146 -4C29.0146 -4 29.0146 -4 29.0145 -4C29.0145 -4 29.0145 -4 29.0145 -4C29.0145 -4 29.0145 -4 29.0145 -4C29.0145 -4 29.0145 -4 29.0145 -4C29.0145 -4 29.0145 -4 29.0145 -4C29.0145 -4 29.0145 -4 29.0145 -4C29.0145 -4 29.0145 -4 29.0145 -4C29.0144 -4 29.0144 -4 29.0144 -4C29.0144 -4 29.0144 -4 29.0144 -4C29.0144 -4 29.0144 -4 29.0144 -4C29.0144 -4 29.0144 -4 29.0144 -4C29.0144 -4 29.0144 -4 29.0144 -4C29.0144 -4 29.0144 -4 29.0144 -4C29.0144 -4 29.0143 -4 29.0143 -4C29.0143 -4 29.0143 -4 29.0143 -4C29.0143 -4 29.0143 -4 29.0143 -4C29.0143 -4 29.0143 -4 29.0143 -4C29.0143 -4 29.0143 -4 29.0143 -4C29.0143 -4 29.0143 -4 29.0143 -4C29.0143 -4 29.0143 -4 29.0142 -4C29.0142 -4 29.0142 -4 29.0142 -4C29.0142 -4 29.0142 -4 29.0142 -4C29.0142 -4 29.0142 -4 29.0142 -4C29.0142 -4 29.0142 -4 29.0142 -4C29.0142 -4 29.0142 -4 29.0142 -4C29.0142 -4 29.0142 -4 29.0142 -4C29.0141 -4 29.0141 -4 29.0141 -4C29.0141 -4 29.0141 -4 29.0141 -4C29.0141 -4 29.0141 -4 29.0141 -4C29.0141 -4 29.0141 -4 29.0141 -4C29.0141 -4 29.0141 -4 29.0141 -4C29.0141 -4 29.0141 -4 29.0141 -4C29.0141 -4 29.014 -4 29.014 -4C29.014 -4 29.014 -4 29.014 -4C29.014 -4 29.014 -4 29.014 -4C29.014 -4 29.014 -4 29.014 -4C29.014 -4 29.014 -4 29.014 -4C29.014 -4 29.014 -4 29.014 -4C29.014 -4 29.0139 -4 29.0139 -4C29.0139 -4 29.0139 -4 29.0139 -4C29.0139 -4 29.0139 -4 29.0139 -4C29.0139 -4 29.0139 -4 29.0139 -4C29.0139 -4 29.0139 -4 29.0139 -4C29.0139 -4 29.0139 -4 29.0139 -4C29.0139 -4 29.0139 -4 29.0138 -4C29.0138 -4 29.0138 -4 29.0138 -4C29.0138 -4 29.0138 -4 29.0138 -4C29.0138 -4 29.0138 -4 29.0138 -4C29.0138 -4 29.0138 -4 29.0138 -4C29.0138 -4 29.0138 -4 29.0138 -4C29.0138 -4 29.0138 -4 29.0138 -4C29.0137 -4 29.0137 -4 29.0137 -4C29.0137 -4 29.0137 -4 29.0137 -4C29.0137 -4 29.0137 -4 29.0137 -4C29.0137 -4 29.0137 -4 29.0137 -4C29.0137 -4 29.0137 -4 29.0137 -4C29.0137 -4 29.0137 -4 29.0137 -4C29.0137 -4 29.0136 -4 29.0136 -4C29.0136 -4 29.0136 -4 29.0136 -4C29.0136 -4 29.0136 -4 29.0136 -4C29.0136 -4 29.0136 -4 29.0136 -4C29.0136 -4 29.0136 -4 29.0136 -4C29.0136 -4 29.0136 -4 29.0136 -4C29.0136 -4 29.0136 -4 29.0135 -4C29.0135 -4 29.0135 -4 29.0135 -4C29.0135 -4 29.0135 -4 29.0135 -4C29.0135 -4 29.0135 -4 29.0135 -4C29.0135 -4 29.0135 -4 29.0135 -4C29.0135 -4 29.0135 -4 29.0135 -4C29.0135 -4 29.0135 -4 29.0135 -4C29.0134 -4 29.0134 -4 29.0134 -4C29.0134 -4 29.0134 -4 29.0134 -4C29.0134 -4 29.0134 -4 29.0134 -4C29.0134 -4 29.0134 -4 29.0134 -4C29.0134 -4 29.0134 -4 29.0134 -4C29.0134 -4 29.0134 -4 29.0134 -4C29.0134 -4 29.0133 -4 29.0133 -4C29.0133 -4 29.0133 -4 29.0133 -4C29.0133 -4 29.0133 -4 29.0133 -4C29.0133 -4 29.0133 -4 29.0133 -4C29.0133 -4 29.0133 -4 29.0133 -4C29.0133 -4 29.0133 -4 29.0133 -4C29.0133 -4 29.0133 -4 29.0132 -4C29.0132 -4 29.0132 -4 29.0132 -4C29.0132 -4 29.0132 -4 29.0132 -4C29.0132 -4 29.0132 -4 29.0132 -4C29.0132 -4 29.0132 -4 29.0132 -4C29.0132 -4 29.0132 -4 29.0132 -4C29.0132 -4 29.0132 -4 29.0132 -4C29.0131 -4 29.0131 -4 29.0131 -4C29.0131 -4 29.0131 -4 29.0131 -4C29.0131 -4 29.0131 -4 29.0131 -4C29.0131 -4 29.0131 -4 29.0131 -4C29.0131 -4 29.0131 -4 29.0131 -4C29.0131 -4 29.0131 -4 29.0131 -4C29.0131 -4 29.013 -4 29.013 -4C29.013 -4 29.013 -4 29.013 -4C29.013 -4 29.013 -4 29.013 -4C29.013 -4 29.013 -4 29.013 -4C29.013 -4 29.013 -4 29.013 -4C29.013 -4 29.013 -4 29.013 -4C29.013 -4 29.0129 -4 29.0129 -4C29.0129 -4 29.0129 -4 29.0129 -4C29.0129 -4 29.0129 -4 29.0129 -4C29.0129 -4 29.0129 -4 29.0129 -4C29.0129 -4 29.0129 -4 29.0129 -4C29.0129 -4 29.0129 -4 29.0129 -4C29.0129 -4 29.0129 -4 29.0128 -4C29.0128 -4 29.0128 -4 29.0128 -4C29.0128 -4 29.0128 -4 29.0128 -4C29.0128 -4 29.0128 -4 29.0128 -4C29.0128 -4 29.0128 -4 29.0128 -4C29.0128 -4 29.0128 -4 29.0128 -4C29.0128 -4 29.0128 -4 29.0128 -4C29.0127 -4 29.0127 -4 29.0127 -4C29.0127 -4 29.0127 -4 29.0127 -4C29.0127 -4 29.0127 -4 29.0127 -4C29.0127 -4 29.0127 -4 29.0127 -4C29.0127 -4 29.0127 -4 29.0127 -4C29.0127 -4 29.0127 -4 29.0127 -4C29.0127 -4 29.0126 -4 29.0126 -4C29.0126 -4 29.0126 -4 29.0126 -4C29.0126 -4 29.0126 -4 29.0126 -4C29.0126 -4 29.0126 -4 29.0126 -4C29.0126 -4 29.0126 -4 29.0126 -4C29.0126 -4 29.0126 -4 29.0126 -4C29.0126 -4 29.0126 -4 29.0125 -4C29.0125 -4 29.0125 -4 29.0125 -4C29.0125 -4 29.0125 -4 29.0125 -4C29.0125 -4 29.0125 -4 29.0125 -4C29.0125 -4 29.0125 -4 29.0125 -4C29.0125 -4 29.0125 -4 29.0125 -4C29.0125 -4 29.0125 -4 29.0125 -4C29.0124 -4 29.0124 -4 29.0124 -4C29.0124 -4 29.0124 -4 29.0124 -4C29.0124 -4 29.0124 -4 29.0124 -4C29.0124 -4 29.0124 -4 29.0124 -4C29.0124 -4 29.0124 -4 29.0124 -4C29.0124 -4 29.0124 -4 29.0124 -4C29.0124 -4 29.0123 -4 29.0123 -4C29.0123 -4 29.0123 -4 29.0123 -4C29.0123 -4 29.0123 -4 29.0123 -4C29.0123 -4 29.0123 -4 29.0123 -4C29.0123 -4 29.0123 -4 29.0123 -4C29.0123 -4 29.0123 -4 29.0123 -4C29.0123 -4 29.0123 -4 29.0122 -4C29.0122 -4 29.0122 -4 29.0122 -4C29.0122 -4 29.0122 -4 29.0122 -4C29.0122 -4 29.0122 -4 29.0122 -4C29.0122 -4 29.0122 -4 29.0122 -4C29.0122 -4 29.0122 -4 29.0122 -4C29.0122 -4 29.0122 -4 29.0122 -4C29.0121 -4 29.0121 -4 29.0121 -4C29.0121 -4 29.0121 -4 29.0121 -4C29.0121 -4 29.0121 -4 29.0121 -4C29.0121 -4 29.0121 -4 29.0121 -4C29.0121 -4 29.0121 -4 29.0121 -4C29.0121 -4 29.0121 -4 29.0121 -4C29.0121 -4 29.012 -4 29.012 -4C29.012 -4 29.012 -4 29.012 -4C29.012 -4 29.012 -4 29.012 -4C29.012 -4 29.012 -4 29.012 -4C29.012 -4 29.012 -4 29.012 -4C29.012 -4 29.012 -4 29.012 -4C29.012 -4 29.0119 -4 29.0119 -4C29.0119 -4 29.0119 -4 29.0119 -4C29.0119 -4 29.0119 -4 29.0119 -4C29.0119 -4 29.0119 -4 29.0119 -4C29.0119 -4 29.0119 -4 29.0119 -4C29.0119 -4 29.0119 -4 29.0119 -4C29.0119 -4 29.0119 -4 29.0118 -4C29.0118 -4 29.0118 -4 29.0118 -4C29.0118 -4 29.0118 -4 29.0118 -4C29.0118 -4 29.0118 -4 29.0118 -4C29.0118 -4 29.0118 -4 29.0118 -4C29.0118 -4 29.0118 -4 29.0118 -4C29.0118 -4 29.0118 -4 29.0118 -4C29.0117 -4 29.0117 -4 29.0117 -4C29.0117 -4 29.0117 -4 29.0117 -4C29.0117 -4 29.0117 -4 29.0117 -4C29.0117 -4 29.0117 -4 29.0117 -4C29.0117 -4 29.0117 -4 29.0117 -4C29.0117 -4 29.0117 -4 29.0117 -4C29.0117 -4 29.0116 -4 29.0116 -4C29.0116 -4 29.0116 -4 29.0116 -4C29.0116 -4 29.0116 -4 29.0116 -4C29.0116 -4 29.0116 -4 29.0116 -4C29.0116 -4 29.0116 -4 29.0116 -4C29.0116 -4 29.0116 -4 29.0116 -4C29.0116 -4 29.0116 -4 29.0115 -4C29.0115 -4 29.0115 -4 29.0115 -4C29.0115 -4 29.0115 -4 29.0115 -4C29.0115 -4 29.0115 -4 29.0115 -4C29.0115 -4 29.0115 -4 29.0115 -4C29.0115 -4 29.0115 -4 29.0115 -4C29.0115 -4 29.0115 -4 29.0115 -4C29.0114 -4 29.0114 -4 29.0114 -4C29.0114 -4 29.0114 -4 29.0114 -4C29.0114 -4 29.0114 -4 29.0114 -4C29.0114 -4 29.0114 -4 29.0114 -4C29.0114 -4 29.0114 -4 29.0114 -4C29.0114 -4 29.0114 -4 29.0114 -4C29.0114 -4 29.0113 -4 29.0113 -4C29.0113 -4 29.0113 -4 29.0113 -4C29.0113 -4 29.0113 -4 29.0113 -4C29.0113 -4 29.0113 -4 29.0113 -4C29.0113 -4 29.0113 -4 29.0113 -4C29.0113 -4 29.0113 -4 29.0113 -4C29.0113 -4 29.0113 -4 29.0112 -4C29.0112 -4 29.0112 -4 29.0112 -4C29.0112 -4 29.0112 -4 29.0112 -4C29.0112 -4 29.0112 -4 29.0112 -4C29.0112 -4 29.0112 -4 29.0112 -4C29.0112 -4 29.0112 -4 29.0112 -4C29.0112 -4 29.0112 -4 29.0112 -4C29.0111 -4 29.0111 -4 29.0111 -4C29.0111 -4 29.0111 -4 29.0111 -4C29.0111 -4 29.0111 -4 29.0111 -4C29.0111 -4 29.0111 -4 29.0111 -4C29.0111 -4 29.0111 -4 29.0111 -4C29.0111 -4 29.0111 -4 29.0111 -4C29.0111 -4 29.011 -4 29.011 -4C29.011 -4 29.011 -4 29.011 -4C29.011 -4 29.011 -4 29.011 -4C29.011 -4 29.011 -4 29.011 -4C29.011 -4 29.011 -4 29.011 -4C29.011 -4 29.011 -4 29.011 -4C29.011 -4 29.011 -4 29.0109 -4C29.0109 -4 29.0109 -4 29.0109 -4C29.0109 -4 29.0109 -4 29.0109 -4C29.0109 -4 29.0109 -4 29.0109 -4C29.0109 -4 29.0109 -4 29.0109 -4C29.0109 -4 29.0109 -4 29.0109 -4C29.0109 -4 29.0109 -4 29.0108 -4C29.0108 -4 29.0108 -4 29.0108 -4C29.0108 -4 29.0108 -4 29.0108 -4C29.0108 -4 29.0108 -4 29.0108 -4C29.0108 -4 29.0108 -4 29.0108 -4C29.0108 -4 29.0108 -4 29.0108 -4C29.0108 -4 29.0108 -4 29.0108 -4C29.0107 -4 29.0107 -4 29.0107 -4C29.0107 -4 29.0107 -4 29.0107 -4C29.0107 -4 29.0107 -4 29.0107 -4C29.0107 -4 29.0107 -4 29.0107 -4C29.0107 -4 29.0107 -4 29.0107 -4C29.0107 -4 29.0107 -4 29.0107 -4C29.0107 -4 29.0106 -4 29.0106 -4C29.0106 -4 29.0106 -4 29.0106 -4C29.0106 -4 29.0106 -4 29.0106 -4C29.0106 -4 29.0106 -4 29.0106 -4C29.0106 -4 29.0106 -4 29.0106 -4C29.0106 -4 29.0106 -4 29.0106 -4C29.0106 -4 29.0106 -4 29.0105 -4C29.0105 -4 29.0105 -4 29.0105 -4C29.0105 -4 29.0105 -4 29.0105 -4C29.0105 -4 29.0105 -4 29.0105 -4C29.0105 -4 29.0105 -4 29.0105 -4C29.0105 -4 29.0105 -4 29.0105 -4C29.0105 -4 29.0105 -4 29.0105 -4C29.0104 -4 29.0104 -4 29.0104 -4C29.0104 -4 29.0104 -4 29.0104 -4C29.0104 -4 29.0104 -4 29.0104 -4C29.0104 -4 29.0104 -4 29.0104 -4C29.0104 -4 29.0104 -4 29.0104 -4C29.0104 -4 29.0104 -4 29.0104 -4C29.0104 -4 29.0103 -4 29.0103 -4C29.0103 -4 29.0103 -4 29.0103 -4C29.0103 -4 29.0103 -4 29.0103 -4C29.0103 -4 29.0103 -4 29.0103 -4C29.0103 -4 29.0103 -4 29.0103 -4C29.0103 -4 29.0103 -4 29.0103 -4C29.0103 -4 29.0103 -4 29.0102 -4C29.0102 -4 29.0102 -4 29.0102 -4C29.0102 -4 29.0102 -4 29.0102 -4C29.0102 -4 29.0102 -4 29.0102 -4C29.0102 -4 29.0102 -4 29.0102 -4C29.0102 -4 29.0102 -4 29.0102 -4C29.0102 -4 29.0102 -4 29.0102 -4C29.0101 -4 29.0101 -4 29.0101 -4C29.0101 -4 29.0101 -4 29.0101 -4C29.0101 -4 29.0101 -4 29.0101 -4C29.0101 -4 29.0101 -4 29.0101 -4C29.0101 -4 29.0101 -4 29.0101 -4C29.0101 -4 29.0101 -4 29.0101 -4C29.01 -4 29.01 -4 29.01 -4C29.01 -4 29.01 -4 29.01 -4C29.01 -4 29.01 -4 29.01 -4C29.01 -4 29.01 -4 29.01 -4C29.01 -4 29.01 -4 29.01 -4C29.01 -4 29.01 -4 29.01 -4C29.01 -4 29.0099 -4 29.0099 -4C29.0099 -4 29.0099 -4 29.0099 -4C29.0099 -4 29.0099 -4 29.0099 -4C29.0099 -4 29.0099 -4 29.0099 -4C29.0099 -4 29.0099 -4 29.0099 -4C29.0099 -4 29.0099 -4 29.0099 -4C29.0099 -4 29.0099 -4 29.0098 -4C29.0098 -4 29.0098 -4 29.0098 -4C29.0098 -4 29.0098 -4 29.0098 -4C29.0098 -4 29.0098 -4 29.0098 -4C29.0098 -4 29.0098 -4 29.0098 -4C29.0098 -4 29.0098 -4 29.0098 -4C29.0098 -4 29.0098 -4 29.0098 -4C29.0097 -4 29.0097 -4 29.0097 -4C29.0097 -4 29.0097 -4 29.0097 -4C29.0097 -4 29.0097 -4 29.0097 -4C29.0097 -4 29.0097 -4 29.0097 -4C29.0097 -4 29.0097 -4 29.0097 -4C29.0097 -4 29.0097 -4 29.0097 -4C29.0097 -4 29.0096 -4 29.0096 -4C29.0096 -4 29.0096 -4 29.0096 -4C29.0096 -4 29.0096 -4 29.0096 -4C29.0096 -4 29.0096 -4 29.0096 -4C29.0096 -4 29.0096 -4 29.0096 -4C29.0096 -4 29.0096 -4 29.0096 -4C29.0096 -4 29.0096 -4 29.0095 -4C29.0095 -4 29.0095 -4 29.0095 -4C29.0095 -4 29.0095 -4 29.0095 -4C29.0095 -4 29.0095 -4 29.0095 -4C29.0095 -4 29.0095 -4 29.0095 -4C29.0095 -4 29.0095 -4 29.0095 -4C29.0095 -4 29.0095 -4 29.0095 -4C29.0094 -4 29.0094 -4 29.0094 -4C29.0094 -4 29.0094 -4 29.0094 -4C29.0094 -4 29.0094 -4 29.0094 -4C29.0094 -4 29.0094 -4 29.0094 -4C29.0094 -4 29.0094 -4 29.0094 -4C29.0094 -4 29.0094 -4 29.0094 -4C29.0094 -4 29.0093 -4 29.0093 -4C29.0093 -4 29.0093 -4 29.0093 -4C29.0093 -4 29.0093 -4 29.0093 -4C29.0093 -4 29.0093 -4 29.0093 -4C29.0093 -4 29.0093 -4 29.0093 -4C29.0093 -4 29.0093 -4 29.0093 -4C29.0093 -4 29.0093 -4 29.0092 -4C29.0092 -4 29.0092 -4 29.0092 -4C29.0092 -4 29.0092 -4 29.0092 -4C29.0092 -4 29.0092 -4 29.0092 -4C29.0092 -4 29.0092 -4 29.0092 -4C29.0092 -4 29.0092 -4 29.0092 -4C29.0092 -4 29.0092 -4 29.0092 -4C29.0091 -4 29.0091 -4 29.0091 -4C29.0091 -4 29.0091 -4 29.0091 -4C29.0091 -4 29.0091 -4 29.0091 -4C29.0091 -4 29.0091 -4 29.0091 -4C29.0091 -4 29.0091 -4 29.0091 -4C29.0091 -4 29.0091 -4 29.0091 -4C29.0091 -4 29.009 -4 29.009 -4C29.009 -4 29.009 -4 29.009 -4C29.009 -4 29.009 -4 29.009 -4C29.009 -4 29.009 -4 29.009 -4C29.009 -4 29.009 -4 29.009 -4C29.009 -4 29.009 -4 29.009 -4C29.009 -4 29.0089 -4 29.0089 -4C29.0089 -4 29.0089 -4 29.0089 -4C29.0089 -4 29.0089 -4 29.0089 -4C29.0089 -4 29.0089 -4 29.0089 -4C29.0089 -4 29.0089 -4 29.0089 -4C29.0089 -4 29.0089 -4 29.0089 -4C29.0089 -4 29.0089 -4 29.0088 -4C29.0088 -4 29.0088 -4 29.0088 -4C29.0088 -4 29.0088 -4 29.0088 -4C29.0088 -4 29.0088 -4 29.0088 -4C29.0088 -4 29.0088 -4 29.0088 -4C29.0088 -4 29.0088 -4 29.0088 -4C29.0088 -4 29.0088 -4 29.0088 -4C29.0087 -4 29.0087 -4 29.0087 -4C29.0087 -4 29.0087 -4 29.0087 -4C29.0087 -4 29.0087 -4 29.0087 -4C29.0087 -4 29.0087 -4 29.0087 -4C29.0087 -4 29.0087 -4 29.0087 -4C29.0087 -4 29.0087 -4 29.0087 -4C29.0087 -4 29.0086 -4 29.0086 -4C29.0086 -4 29.0086 -4 29.0086 -4C29.0086 -4 29.0086 -4 29.0086 -4C29.0086 -4 29.0086 -4 29.0086 -4C29.0086 -4 29.0086 -4 29.0086 -4C29.0086 -4 29.0086 -4 29.0086 -4C29.0086 -4 29.0086 -4 29.0085 -4C29.0085 -4 29.0085 -4 29.0085 -4V4C29.0085 4 29.0085 4 29.0085 4C29.0086 4 29.0086 4 29.0086 4C29.0086 4 29.0086 4 29.0086 4C29.0086 4 29.0086 4 29.0086 4C29.0086 4 29.0086 4 29.0086 4C29.0086 4 29.0086 4 29.0086 4C29.0086 4 29.0086 4 29.0086 4C29.0086 4 29.0087 4 29.0087 4C29.0087 4 29.0087 4 29.0087 4C29.0087 4 29.0087 4 29.0087 4C29.0087 4 29.0087 4 29.0087 4C29.0087 4 29.0087 4 29.0087 4C29.0087 4 29.0087 4 29.0087 4C29.0087 4 29.0087 4 29.0088 4C29.0088 4 29.0088 4 29.0088 4C29.0088 4 29.0088 4 29.0088 4C29.0088 4 29.0088 4 29.0088 4C29.0088 4 29.0088 4 29.0088 4C29.0088 4 29.0088 4 29.0088 4C29.0088 4 29.0088 4 29.0088 4C29.0089 4 29.0089 4 29.0089 4C29.0089 4 29.0089 4 29.0089 4C29.0089 4 29.0089 4 29.0089 4C29.0089 4 29.0089 4 29.0089 4C29.0089 4 29.0089 4 29.0089 4C29.0089 4 29.0089 4 29.0089 4C29.0089 4 29.009 4 29.009 4C29.009 4 29.009 4 29.009 4C29.009 4 29.009 4 29.009 4C29.009 4 29.009 4 29.009 4C29.009 4 29.009 4 29.009 4C29.009 4 29.009 4 29.009 4C29.009 4 29.0091 4 29.0091 4C29.0091 4 29.0091 4 29.0091 4C29.0091 4 29.0091 4 29.0091 4C29.0091 4 29.0091 4 29.0091 4C29.0091 4 29.0091 4 29.0091 4C29.0091 4 29.0091 4 29.0091 4C29.0091 4 29.0091 4 29.0092 4C29.0092 4 29.0092 4 29.0092 4C29.0092 4 29.0092 4 29.0092 4C29.0092 4 29.0092 4 29.0092 4C29.0092 4 29.0092 4 29.0092 4C29.0092 4 29.0092 4 29.0092 4C29.0092 4 29.0092 4 29.0092 4C29.0093 4 29.0093 4 29.0093 4C29.0093 4 29.0093 4 29.0093 4C29.0093 4 29.0093 4 29.0093 4C29.0093 4 29.0093 4 29.0093 4C29.0093 4 29.0093 4 29.0093 4C29.0093 4 29.0093 4 29.0093 4C29.0093 4 29.0094 4 29.0094 4C29.0094 4 29.0094 4 29.0094 4C29.0094 4 29.0094 4 29.0094 4C29.0094 4 29.0094 4 29.0094 4C29.0094 4 29.0094 4 29.0094 4C29.0094 4 29.0094 4 29.0094 4C29.0094 4 29.0094 4 29.0095 4C29.0095 4 29.0095 4 29.0095 4C29.0095 4 29.0095 4 29.0095 4C29.0095 4 29.0095 4 29.0095 4C29.0095 4 29.0095 4 29.0095 4C29.0095 4 29.0095 4 29.0095 4C29.0095 4 29.0095 4 29.0095 4C29.0096 4 29.0096 4 29.0096 4C29.0096 4 29.0096 4 29.0096 4C29.0096 4 29.0096 4 29.0096 4C29.0096 4 29.0096 4 29.0096 4C29.0096 4 29.0096 4 29.0096 4C29.0096 4 29.0096 4 29.0096 4C29.0096 4 29.0097 4 29.0097 4C29.0097 4 29.0097 4 29.0097 4C29.0097 4 29.0097 4 29.0097 4C29.0097 4 29.0097 4 29.0097 4C29.0097 4 29.0097 4 29.0097 4C29.0097 4 29.0097 4 29.0097 4C29.0097 4 29.0097 4 29.0098 4C29.0098 4 29.0098 4 29.0098 4C29.0098 4 29.0098 4 29.0098 4C29.0098 4 29.0098 4 29.0098 4C29.0098 4 29.0098 4 29.0098 4C29.0098 4 29.0098 4 29.0098 4C29.0098 4 29.0098 4 29.0098 4C29.0099 4 29.0099 4 29.0099 4C29.0099 4 29.0099 4 29.0099 4C29.0099 4 29.0099 4 29.0099 4C29.0099 4 29.0099 4 29.0099 4C29.0099 4 29.0099 4 29.0099 4C29.0099 4 29.0099 4 29.0099 4C29.0099 4 29.01 4 29.01 4C29.01 4 29.01 4 29.01 4C29.01 4 29.01 4 29.01 4C29.01 4 29.01 4 29.01 4C29.01 4 29.01 4 29.01 4C29.01 4 29.01 4 29.01 4C29.01 4 29.01 4 29.0101 4C29.0101 4 29.0101 4 29.0101 4C29.0101 4 29.0101 4 29.0101 4C29.0101 4 29.0101 4 29.0101 4C29.0101 4 29.0101 4 29.0101 4C29.0101 4 29.0101 4 29.0101 4C29.0101 4 29.0101 4 29.0102 4C29.0102 4 29.0102 4 29.0102 4C29.0102 4 29.0102 4 29.0102 4C29.0102 4 29.0102 4 29.0102 4C29.0102 4 29.0102 4 29.0102 4C29.0102 4 29.0102 4 29.0102 4C29.0102 4 29.0102 4 29.0102 4C29.0103 4 29.0103 4 29.0103 4C29.0103 4 29.0103 4 29.0103 4C29.0103 4 29.0103 4 29.0103 4C29.0103 4 29.0103 4 29.0103 4C29.0103 4 29.0103 4 29.0103 4C29.0103 4 29.0103 4 29.0103 4C29.0103 4 29.0104 4 29.0104 4C29.0104 4 29.0104 4 29.0104 4C29.0104 4 29.0104 4 29.0104 4C29.0104 4 29.0104 4 29.0104 4C29.0104 4 29.0104 4 29.0104 4C29.0104 4 29.0104 4 29.0104 4C29.0104 4 29.0104 4 29.0105 4C29.0105 4 29.0105 4 29.0105 4C29.0105 4 29.0105 4 29.0105 4C29.0105 4 29.0105 4 29.0105 4C29.0105 4 29.0105 4 29.0105 4C29.0105 4 29.0105 4 29.0105 4C29.0105 4 29.0105 4 29.0105 4C29.0106 4 29.0106 4 29.0106 4C29.0106 4 29.0106 4 29.0106 4C29.0106 4 29.0106 4 29.0106 4C29.0106 4 29.0106 4 29.0106 4C29.0106 4 29.0106 4 29.0106 4C29.0106 4 29.0106 4 29.0106 4C29.0106 4 29.0107 4 29.0107 4C29.0107 4 29.0107 4 29.0107 4C29.0107 4 29.0107 4 29.0107 4C29.0107 4 29.0107 4 29.0107 4C29.0107 4 29.0107 4 29.0107 4C29.0107 4 29.0107 4 29.0107 4C29.0107 4 29.0107 4 29.0108 4C29.0108 4 29.0108 4 29.0108 4C29.0108 4 29.0108 4 29.0108 4C29.0108 4 29.0108 4 29.0108 4C29.0108 4 29.0108 4 29.0108 4C29.0108 4 29.0108 4 29.0108 4C29.0108 4 29.0108 4 29.0108 4C29.0109 4 29.0109 4 29.0109 4C29.0109 4 29.0109 4 29.0109 4C29.0109 4 29.0109 4 29.0109 4C29.0109 4 29.0109 4 29.0109 4C29.0109 4 29.0109 4 29.0109 4C29.0109 4 29.0109 4 29.0109 4C29.011 4 29.011 4 29.011 4C29.011 4 29.011 4 29.011 4C29.011 4 29.011 4 29.011 4C29.011 4 29.011 4 29.011 4C29.011 4 29.011 4 29.011 4C29.011 4 29.011 4 29.011 4C29.011 4 29.0111 4 29.0111 4C29.0111 4 29.0111 4 29.0111 4C29.0111 4 29.0111 4 29.0111 4C29.0111 4 29.0111 4 29.0111 4C29.0111 4 29.0111 4 29.0111 4C29.0111 4 29.0111 4 29.0111 4C29.0111 4 29.0111 4 29.0112 4C29.0112 4 29.0112 4 29.0112 4C29.0112 4 29.0112 4 29.0112 4C29.0112 4 29.0112 4 29.0112 4C29.0112 4 29.0112 4 29.0112 4C29.0112 4 29.0112 4 29.0112 4C29.0112 4 29.0112 4 29.0112 4C29.0113 4 29.0113 4 29.0113 4C29.0113 4 29.0113 4 29.0113 4C29.0113 4 29.0113 4 29.0113 4C29.0113 4 29.0113 4 29.0113 4C29.0113 4 29.0113 4 29.0113 4C29.0113 4 29.0113 4 29.0113 4C29.0113 4 29.0114 4 29.0114 4C29.0114 4 29.0114 4 29.0114 4C29.0114 4 29.0114 4 29.0114 4C29.0114 4 29.0114 4 29.0114 4C29.0114 4 29.0114 4 29.0114 4C29.0114 4 29.0114 4 29.0114 4C29.0114 4 29.0114 4 29.0115 4C29.0115 4 29.0115 4 29.0115 4C29.0115 4 29.0115 4 29.0115 4C29.0115 4 29.0115 4 29.0115 4C29.0115 4 29.0115 4 29.0115 4C29.0115 4 29.0115 4 29.0115 4C29.0115 4 29.0115 4 29.0115 4C29.0116 4 29.0116 4 29.0116 4C29.0116 4 29.0116 4 29.0116 4C29.0116 4 29.0116 4 29.0116 4C29.0116 4 29.0116 4 29.0116 4C29.0116 4 29.0116 4 29.0116 4C29.0116 4 29.0116 4 29.0116 4C29.0116 4 29.0117 4 29.0117 4C29.0117 4 29.0117 4 29.0117 4C29.0117 4 29.0117 4 29.0117 4C29.0117 4 29.0117 4 29.0117 4C29.0117 4 29.0117 4 29.0117 4C29.0117 4 29.0117 4 29.0117 4C29.0117 4 29.0117 4 29.0118 4C29.0118 4 29.0118 4 29.0118 4C29.0118 4 29.0118 4 29.0118 4C29.0118 4 29.0118 4 29.0118 4C29.0118 4 29.0118 4 29.0118 4C29.0118 4 29.0118 4 29.0118 4C29.0118 4 29.0118 4 29.0118 4C29.0119 4 29.0119 4 29.0119 4C29.0119 4 29.0119 4 29.0119 4C29.0119 4 29.0119 4 29.0119 4C29.0119 4 29.0119 4 29.0119 4C29.0119 4 29.0119 4 29.0119 4C29.0119 4 29.0119 4 29.0119 4C29.0119 4 29.012 4 29.012 4C29.012 4 29.012 4 29.012 4C29.012 4 29.012 4 29.012 4C29.012 4 29.012 4 29.012 4C29.012 4 29.012 4 29.012 4C29.012 4 29.012 4 29.012 4C29.012 4 29.0121 4 29.0121 4C29.0121 4 29.0121 4 29.0121 4C29.0121 4 29.0121 4 29.0121 4C29.0121 4 29.0121 4 29.0121 4C29.0121 4 29.0121 4 29.0121 4C29.0121 4 29.0121 4 29.0121 4C29.0121 4 29.0121 4 29.0122 4C29.0122 4 29.0122 4 29.0122 4C29.0122 4 29.0122 4 29.0122 4C29.0122 4 29.0122 4 29.0122 4C29.0122 4 29.0122 4 29.0122 4C29.0122 4 29.0122 4 29.0122 4C29.0122 4 29.0122 4 29.0122 4C29.0123 4 29.0123 4 29.0123 4C29.0123 4 29.0123 4 29.0123 4C29.0123 4 29.0123 4 29.0123 4C29.0123 4 29.0123 4 29.0123 4C29.0123 4 29.0123 4 29.0123 4C29.0123 4 29.0123 4 29.0123 4C29.0123 4 29.0124 4 29.0124 4C29.0124 4 29.0124 4 29.0124 4C29.0124 4 29.0124 4 29.0124 4C29.0124 4 29.0124 4 29.0124 4C29.0124 4 29.0124 4 29.0124 4C29.0124 4 29.0124 4 29.0124 4C29.0124 4 29.0124 4 29.0125 4C29.0125 4 29.0125 4 29.0125 4C29.0125 4 29.0125 4 29.0125 4C29.0125 4 29.0125 4 29.0125 4C29.0125 4 29.0125 4 29.0125 4C29.0125 4 29.0125 4 29.0125 4C29.0125 4 29.0125 4 29.0125 4C29.0126 4 29.0126 4 29.0126 4C29.0126 4 29.0126 4 29.0126 4C29.0126 4 29.0126 4 29.0126 4C29.0126 4 29.0126 4 29.0126 4C29.0126 4 29.0126 4 29.0126 4C29.0126 4 29.0126 4 29.0126 4C29.0126 4 29.0127 4 29.0127 4C29.0127 4 29.0127 4 29.0127 4C29.0127 4 29.0127 4 29.0127 4C29.0127 4 29.0127 4 29.0127 4C29.0127 4 29.0127 4 29.0127 4C29.0127 4 29.0127 4 29.0127 4C29.0127 4 29.0127 4 29.0128 4C29.0128 4 29.0128 4 29.0128 4C29.0128 4 29.0128 4 29.0128 4C29.0128 4 29.0128 4 29.0128 4C29.0128 4 29.0128 4 29.0128 4C29.0128 4 29.0128 4 29.0128 4C29.0128 4 29.0128 4 29.0128 4C29.0129 4 29.0129 4 29.0129 4C29.0129 4 29.0129 4 29.0129 4C29.0129 4 29.0129 4 29.0129 4C29.0129 4 29.0129 4 29.0129 4C29.0129 4 29.0129 4 29.0129 4C29.0129 4 29.0129 4 29.0129 4C29.0129 4 29.013 4 29.013 4C29.013 4 29.013 4 29.013 4C29.013 4 29.013 4 29.013 4C29.013 4 29.013 4 29.013 4C29.013 4 29.013 4 29.013 4C29.013 4 29.013 4 29.013 4C29.013 4 29.0131 4 29.0131 4C29.0131 4 29.0131 4 29.0131 4C29.0131 4 29.0131 4 29.0131 4C29.0131 4 29.0131 4 29.0131 4C29.0131 4 29.0131 4 29.0131 4C29.0131 4 29.0131 4 29.0131 4C29.0131 4 29.0131 4 29.0132 4C29.0132 4 29.0132 4 29.0132 4C29.0132 4 29.0132 4 29.0132 4C29.0132 4 29.0132 4 29.0132 4C29.0132 4 29.0132 4 29.0132 4C29.0132 4 29.0132 4 29.0132 4C29.0132 4 29.0132 4 29.0132 4C29.0133 4 29.0133 4 29.0133 4C29.0133 4 29.0133 4 29.0133 4C29.0133 4 29.0133 4 29.0133 4C29.0133 4 29.0133 4 29.0133 4C29.0133 4 29.0133 4 29.0133 4C29.0133 4 29.0133 4 29.0133 4C29.0133 4 29.0134 4 29.0134 4C29.0134 4 29.0134 4 29.0134 4C29.0134 4 29.0134 4 29.0134 4C29.0134 4 29.0134 4 29.0134 4C29.0134 4 29.0134 4 29.0134 4C29.0134 4 29.0134 4 29.0134 4C29.0134 4 29.0134 4 29.0135 4C29.0135 4 29.0135 4 29.0135 4C29.0135 4 29.0135 4 29.0135 4C29.0135 4 29.0135 4 29.0135 4C29.0135 4 29.0135 4 29.0135 4C29.0135 4 29.0135 4 29.0135 4C29.0135 4 29.0135 4 29.0135 4C29.0136 4 29.0136 4 29.0136 4C29.0136 4 29.0136 4 29.0136 4C29.0136 4 29.0136 4 29.0136 4C29.0136 4 29.0136 4 29.0136 4C29.0136 4 29.0136 4 29.0136 4C29.0136 4 29.0136 4 29.0136 4C29.0136 4 29.0137 4 29.0137 4C29.0137 4 29.0137 4 29.0137 4C29.0137 4 29.0137 4 29.0137 4C29.0137 4 29.0137 4 29.0137 4C29.0137 4 29.0137 4 29.0137 4C29.0137 4 29.0137 4 29.0137 4C29.0137 4 29.0137 4 29.0138 4C29.0138 4 29.0138 4 29.0138 4C29.0138 4 29.0138 4 29.0138 4C29.0138 4 29.0138 4 29.0138 4C29.0138 4 29.0138 4 29.0138 4C29.0138 4 29.0138 4 29.0138 4C29.0138 4 29.0138 4 29.0138 4C29.0139 4 29.0139 4 29.0139 4C29.0139 4 29.0139 4 29.0139 4C29.0139 4 29.0139 4 29.0139 4C29.0139 4 29.0139 4 29.0139 4C29.0139 4 29.0139 4 29.0139 4C29.0139 4 29.0139 4 29.0139 4C29.0139 4 29.014 4 29.014 4C29.014 4 29.014 4 29.014 4C29.014 4 29.014 4 29.014 4C29.014 4 29.014 4 29.014 4C29.014 4 29.014 4 29.014 4C29.014 4 29.014 4 29.014 4C29.014 4 29.0141 4 29.0141 4C29.0141 4 29.0141 4 29.0141 4C29.0141 4 29.0141 4 29.0141 4C29.0141 4 29.0141 4 29.0141 4C29.0141 4 29.0141 4 29.0141 4C29.0141 4 29.0141 4 29.0141 4C29.0141 4 29.0141 4 29.0142 4C29.0142 4 29.0142 4 29.0142 4C29.0142 4 29.0142 4 29.0142 4C29.0142 4 29.0142 4 29.0142 4C29.0142 4 29.0142 4 29.0142 4C29.0142 4 29.0142 4 29.0142 4C29.0142 4 29.0142 4 29.0142 4C29.0143 4 29.0143 4 29.0143 4C29.0143 4 29.0143 4 29.0143 4C29.0143 4 29.0143 4 29.0143 4C29.0143 4 29.0143 4 29.0143 4C29.0143 4 29.0143 4 29.0143 4C29.0143 4 29.0143 4 29.0143 4C29.0143 4 29.0144 4 29.0144 4C29.0144 4 29.0144 4 29.0144 4C29.0144 4 29.0144 4 29.0144 4C29.0144 4 29.0144 4 29.0144 4C29.0144 4 29.0144 4 29.0144 4C29.0144 4 29.0144 4 29.0144 4C29.0144 4 29.0144 4 29.0145 4C29.0145 4 29.0145 4 29.0145 4C29.0145 4 29.0145 4 29.0145 4C29.0145 4 29.0145 4 29.0145 4C29.0145 4 29.0145 4 29.0145 4C29.0145 4 29.0145 4 29.0145 4C29.0145 4 29.0145 4 29.0145 4C29.0146 4 29.0146 4 29.0146 4C29.0146 4 29.0146 4 29.0146 4C29.0146 4 29.0146 4 29.0146 4C29.0146 4 29.0146 4 29.0146 4C29.0146 4 29.0146 4 29.0146 4C29.0146 4 29.0146 4 29.0146 4C29.0146 4 29.0147 4 29.0147 4C29.0147 4 29.0147 4 29.0147 4C29.0147 4 29.0147 4 29.0147 4C29.0147 4 29.0147 4 29.0147 4C29.0147 4 29.0147 4 29.0147 4C29.0147 4 29.0147 4 29.0147 4C29.0147 4 29.0147 4 29.0148 4C29.0148 4 29.0148 4 29.0148 4C29.0148 4 29.0148 4 29.0148 4C29.0148 4 29.0148 4 29.0148 4C29.0148 4 29.0148 4 29.0148 4C29.0148 4 29.0148 4 29.0148 4C29.0148 4 29.0148 4 29.0148 4C29.0149 4 29.0149 4 29.0149 4C29.0149 4 29.0149 4 29.0149 4C29.0149 4 29.0149 4 29.0149 4C29.0149 4 29.0149 4 29.0149 4C29.0149 4 29.0149 4 29.0149 4C29.0149 4 29.0149 4 29.0149 4C29.0149 4 29.015 4 29.015 4C29.015 4 29.015 4 29.015 4C29.015 4 29.015 4 29.015 4C29.015 4 29.015 4 29.015 4C29.015 4 29.015 4 29.015 4C29.015 4 29.015 4 29.015 4C29.015 4 29.015 4 29.0151 4C29.0151 4 29.0151 4 29.0151 4C29.0151 4 29.0151 4 29.0151 4C29.0151 4 29.0151 4 29.0151 4C29.0151 4 29.0151 4 29.0151 4C29.0151 4 29.0151 4 29.0151 4C29.0151 4 29.0151 4 29.0152 4C29.0152 4 29.0152 4 29.0152 4C29.0152 4 29.0152 4 29.0152 4C29.0152 4 29.0152 4 29.0152 4C29.0152 4 29.0152 4 29.0152 4C29.0152 4 29.0152 4 29.0152 4C29.0152 4 29.0152 4 29.0152 4C29.0153 4 29.0153 4 29.0153 4C29.0153 4 29.0153 4 29.0153 4C29.0153 4 29.0153 4 29.0153 4C29.0153 4 29.0153 4 29.0153 4C29.0153 4 29.0153 4 29.0153 4C29.0153 4 29.0153 4 29.0153 4C29.0153 4 29.0154 4 29.0154 4C29.0154 4 29.0154 4 29.0154 4C29.0154 4 29.0154 4 29.0154 4C29.0154 4 29.0154 4 29.0154 4C29.0154 4 29.0154 4 29.0154 4C29.0154 4 29.0154 4 29.0154 4C29.0154 4 29.0154 4 29.0155 4C29.0155 4 29.0155 4 29.0155 4C29.0155 4 29.0155 4 29.0155 4C29.0155 4 29.0155 4 29.0155 4C29.0155 4 29.0155 4 29.0155 4C29.0155 4 29.0155 4 29.0155 4C29.0155 4 29.0155 4 29.0155 4C29.0156 4 29.0156 4 29.0156 4C29.0156 4 29.0156 4 29.0156 4C29.0156 4 29.0156 4 29.0156 4C29.0156 4 29.0156 4 29.0156 4C29.0156 4 29.0156 4 29.0156 4C29.0156 4 29.0156 4 29.0156 4C29.0156 4 29.0157 4 29.0157 4C29.0157 4 29.0157 4 29.0157 4C29.0157 4 29.0157 4 29.0157 4C29.0157 4 29.0157 4 29.0157 4C29.0157 4 29.0157 4 29.0157 4C29.0157 4 29.0157 4 29.0157 4C29.0157 4 29.0157 4 29.0158 4C29.0158 4 29.0158 4 29.0158 4C29.0158 4 29.0158 4 29.0158 4C29.0158 4 29.0158 4 29.0158 4C29.0158 4 29.0158 4 29.0158 4C29.0158 4 29.0158 4 29.0158 4C29.0158 4 29.0158 4 29.0158 4C29.0159 4 29.0159 4 29.0159 4C29.0159 4 29.0159 4 29.0159 4C29.0159 4 29.0159 4 29.0159 4C29.0159 4 29.0159 4 29.0159 4C29.0159 4 29.0159 4 29.0159 4C29.0159 4 29.0159 4 29.0159 4C29.016 4 29.016 4 29.016 4C29.016 4 29.016 4 29.016 4C29.016 4 29.016 4 29.016 4C29.016 4 29.016 4 29.016 4C29.016 4 29.016 4 29.016 4C29.016 4 29.016 4 29.016 4C29.016 4 29.0161 4 29.0161 4C29.0161 4 29.0161 4 29.0161 4C29.0161 4 29.0161 4 29.0161 4C29.0161 4 29.0161 4 29.0161 4C29.0161 4 29.0161 4 29.0161 4C29.0161 4 29.0161 4 29.0161 4C29.0161 4 29.0161 4 29.0162 4C29.0162 4 29.0162 4 29.0162 4C29.0162 4 29.0162 4 29.0162 4C29.0162 4 29.0162 4 29.0162 4C29.0162 4 29.0162 4 29.0162 4C29.0162 4 29.0162 4 29.0162 4C29.0162 4 29.0162 4 29.0162 4C29.0163 4 29.0163 4 29.0163 4C29.0163 4 29.0163 4 29.0163 4C29.0163 4 29.0163 4 29.0163 4C29.0163 4 29.0163 4 29.0163 4C29.0163 4 29.0163 4 29.0163 4C29.0163 4 29.0163 4 29.0163 4C29.0163 4 29.0164 4 29.0164 4C29.0164 4 29.0164 4 29.0164 4C29.0164 4 29.0164 4 29.0164 4C29.0164 4 29.0164 4 29.0164 4C29.0164 4 29.0164 4 29.0164 4C29.0164 4 29.0164 4 29.0164 4C29.0164 4 29.0164 4 29.0165 4C29.0165 4 29.0165 4 29.0165 4C29.0165 4 29.0165 4 29.0165 4C29.0165 4 29.0165 4 29.0165 4C29.0165 4 29.0165 4 29.0165 4C29.0165 4 29.0165 4 29.0165 4C29.0165 4 29.0165 4 29.0165 4C29.0166 4 29.0166 4 29.0166 4C29.0166 4 29.0166 4 29.0166 4C29.0166 4 29.0166 4 29.0166 4C29.0166 4 29.0166 4 29.0166 4C29.0166 4 29.0166 4 29.0166 4C29.0166 4 29.0166 4 29.0166 4C29.0166 4 29.0167 4 29.0167 4V-4ZM29.0085 -4C26.9177 -4 24.8076 -3.16596 23.3422 -1.47757L29.3841 3.76605C29.2849 3.88036 29.1844 3.94139 29.1167 3.97066C29.0499 3.99956 29.0112 4 29.0085 4V-4ZM23.3427 -1.47806C23.0095 -1.09432 22.6284 -0.713789 22.21 -0.351952L27.4429 5.69922C28.1382 5.09797 28.7911 4.4492 29.3837 3.76654L23.3427 -1.47806ZM22.2097 -0.35169C21.4453 0.309516 19.5568 1.59352 15.6669 2.36706L17.2272 10.2134C22.3487 9.19496 25.5364 7.3483 27.4432 5.69896L22.2097 -0.35169ZM15.6663 2.36718C13.4842 2.80146 11.1013 5.07441 11.9348 8.2107L19.6664 6.1561C20.2867 8.49024 18.4826 9.96358 17.2279 10.2133L15.6663 2.36718ZM11.9348 8.2107C12.6946 11.07 15.5329 12.0792 17.6128 11.6658L16.0534 3.81931C16.7422 3.68242 17.4595 3.79039 18.0874 4.13031C18.7141 4.46959 19.3944 5.13236 19.6664 6.1561L11.9348 8.2107ZM17.6133 11.6658C23.1541 10.5639 26.6097 8.5273 28.6615 6.75267L23.4279 0.702021C22.4888 1.5143 20.3205 2.97071 16.0529 3.81941L17.6133 11.6658ZM28.6615 6.75267C29.4139 6.10181 30.1204 5.39967 30.7614 4.66117L24.7202 -0.58324C24.3384 -0.143417 23.9036 0.290579 23.4279 0.702021L28.6615 6.75267ZM30.7623 4.66013C30.2314 5.2722 29.5471 5.49023 29.0085 5.49023V-2.50977C27.4638 -2.50977 25.8557 -1.89212 24.7193 -0.582204L30.7623 4.66013ZM29.0085 5.49023H29.0125V-2.50977H29.0085V5.49023ZM29.0039 5.49023C28.4638 5.48907 27.7724 5.26867 27.2375 4.64638L33.3041 -0.568647C32.1714 -1.88625 30.5631 -2.50645 29.0211 -2.50976L29.0039 5.49023ZM27.2371 4.64593C27.8816 5.39593 28.588 6.10358 29.3384 6.75267L34.572 0.702021C34.1164 0.307949 33.6892 -0.120536 33.3045 -0.568192L27.2371 4.64593ZM29.3386 6.75276C31.7145 8.80768 37.5419 12.3967 48.8497 12.4676L48.8998 4.46776C39.408 4.40822 35.4415 1.45404 34.5719 0.701931L29.3386 6.75276ZM48.8495 12.4676L51.7877 12.4862L51.8382 4.48631L48.9 4.46776L48.8495 12.4676ZM51.7885 12.4862C50.403 12.4777 48.2771 11.3881 48.2771 8.89063H56.2771C56.2771 5.95042 53.7348 4.49789 51.8374 4.48631L51.7885 12.4862ZM48.2771 8.89063V22.8491H56.2771V8.89063H48.2771ZM48.2771 22.8491C48.2771 25.6259 47.5292 28.4516 46.0834 31.0055L53.0451 34.9468C55.1487 31.2311 56.2771 27.0528 56.2771 22.8491H48.2771ZM46.0835 31.0053C45.0577 32.8169 43.684 34.5017 41.9763 36.0037L47.2597 42.0108C49.6006 39.952 51.555 37.5784 53.045 34.9471L46.0835 31.0053ZM41.9767 36.0033C39.8026 37.915 39.849 41.2472 42.0366 43.1079L47.2198 37.014C47.8893 37.5835 48.3607 38.4718 48.3706 39.4971C48.3806 40.5236 47.9253 41.4256 47.2594 42.0111L41.9767 36.0033ZM42.0369 43.1081C43.0065 43.9327 44.1731 44.2748 45.2322 44.2748V36.2748C45.8551 36.2748 46.5854 36.4746 47.2195 37.0138L42.0369 43.1081ZM45.2322 44.2748C46.3124 44.2748 47.5074 43.9183 48.488 43.0559L43.2049 37.0485C43.8484 36.4825 44.5976 36.2748 45.2322 36.2748V44.2748ZM48.4883 43.0556C50.9591 40.8823 53.021 38.3778 54.5923 35.6024L47.6306 31.6609C46.5235 33.6165 45.0424 35.4322 43.2046 37.0487L48.4883 43.0556ZM54.5924 35.6023C56.8109 31.6836 58 27.2789 58 22.8491H50C50 25.8518 49.1914 28.904 47.6306 31.661L54.5924 35.6023ZM58 22.8491V8.89063H50V22.8491H58ZM58 8.89106C58.0004 5.134 54.6896 3.01388 51.8506 2.99608L51.8004 10.9959C51.4693 10.9938 51.0827 10.8763 50.7348 10.5731C50.3805 10.2644 49.9999 9.68306 50 8.89019L58 8.89106Z"  mask="url(#path-9-inside-1)"/>
<path d="M29 46.8229C29.6861 46.8229 30.2423 46.3418 30.2423 45.7483C30.2423 45.1549 29.6861 44.6738 29 44.6738C28.3139 44.6738 27.7577 45.1549 27.7577 45.7483C27.7577 46.3418 28.3139 46.8229 29 46.8229Z" />
<path d="M29 6.33787C29.6861 6.33787 30.2423 5.85679 30.2423 5.26336C30.2423 4.66992 29.6861 4.18884 29 4.18884C28.3139 4.18884 27.7577 4.66992 27.7577 5.26336C27.7577 5.85679 28.3139 6.33787 29 6.33787Z" />
<path d="M48.9435 12.6684C49.6295 12.6684 50.1857 12.1874 50.1857 11.5939C50.1857 11.0005 49.6295 10.5194 48.9435 10.5194C48.2574 10.5194 47.7012 11.0005 47.7012 11.5939C47.7012 12.1874 48.2574 12.6684 48.9435 12.6684Z" />
<path d="M8.90848 12.6684C9.59457 12.6684 10.1508 12.1874 10.1508 11.5939C10.1508 11.0005 9.59457 10.5194 8.90848 10.5194C8.22239 10.5194 7.6662 11.0005 7.6662 11.5939C7.6662 12.1874 8.22239 12.6684 8.90848 12.6684Z" />
</g>

</svg>
