<svg width="52" height="52" viewBox="0 0 52 52"  xmlns="http://www.w3.org/2000/svg">
<mask id="path-1-outside-1" maskUnits="userSpaceOnUse" x="0" y="0" width="52" height="52" >
<rect  width="52" height="52"/>
<path d="M50.9439 49.9815L45.4063 36.576C45.4052 36.5733 45.4041 36.5704 45.4029 36.5677L43.7365 32.5338C43.6232 32.2595 43.3572 32.0808 43.0623 32.0808H35.88C37.277 30.1767 38.4397 28.2801 39.3478 26.4178C40.9571 23.1176 41.7731 19.9126 41.7731 16.8917C41.7731 8.12898 34.6973 1 26.0001 1C17.3028 1 10.2269 8.12898 10.2269 16.8918C10.2269 19.9127 11.0428 23.1178 12.6522 26.4179C13.5603 28.2802 14.723 30.1767 16.1201 32.0809H8.93765C8.64273 32.0809 8.37671 32.2597 8.26343 32.5339L5.20191 39.9452C5.04693 40.3204 5.2231 40.7512 5.59546 40.9072C5.96773 41.0634 6.39527 40.8858 6.55025 40.5107L7.2063 38.9226C7.94048 38.9082 9.37691 38.8142 11.0644 38.3586C13.8282 37.6121 16.1251 36.1882 17.7822 34.2152C17.8279 34.2706 17.8726 34.3261 17.9187 34.3815C18.4545 35.0262 18.9886 35.6367 19.512 36.2125C16.1886 37.3703 14.2092 39.3541 14.2092 41.5405C14.2092 42.3736 14.4927 43.1645 15.0117 43.8872C12.7575 45.2849 10.2942 45.8902 7.67583 45.6868C6.35825 45.5844 5.29927 45.2894 4.66646 45.0716L5.42671 43.2311C5.58169 42.8559 5.40552 42.4252 5.03316 42.2691C4.6606 42.1127 4.23325 42.2904 4.07837 42.6656L1.0561 49.9815C0.962254 50.2084 0.987254 50.4678 1.1228 50.6724C1.25825 50.877 1.48618 50.9999 1.73032 50.9999H30.527C30.5277 50.9999 30.5284 51 30.5291 51C30.5297 51 30.5302 50.9999 30.5309 50.9999H50.2698C50.514 50.9999 50.742 50.877 50.8773 50.6724C51.0128 50.4679 51.0377 50.2086 50.9439 49.9815ZM42.5752 33.5523L43.6597 36.1776C40.4898 36.499 38.0502 38.1738 36.9217 39.0992C36.0266 37.9042 34.4829 36.8989 32.4931 36.2068C33.0148 35.6327 33.5473 35.024 34.0813 34.3814C34.311 34.1051 34.5345 33.8287 34.7547 33.5523H42.5752ZM10.7307 36.9252C9.58345 37.239 8.5521 37.3681 7.8272 37.4198L9.42486 33.5523H16.4241C14.9905 35.1493 13.0824 36.282 10.7307 36.9252ZM19.0385 33.437C12.9627 26.1259 11.6875 20.4042 11.6875 16.8918C11.6875 8.94041 18.1081 2.47153 26.0001 2.47153C33.8921 2.47153 40.3127 8.94041 40.3127 16.8918C40.3127 20.3995 39.0406 26.1132 32.9803 33.4142C30.0573 36.9358 27.0993 39.5074 25.9999 40.4211C24.9036 39.5105 21.9596 36.9519 19.0385 33.437ZM31.374 41.5404C31.374 42.1414 29.4771 43.3112 25.9999 43.3112C22.5226 43.3112 20.6257 42.1414 20.6257 41.5404C20.6257 41.1182 21.563 40.4159 23.3254 40.0351C24.614 41.212 25.4795 41.8909 25.5532 41.9484C25.6848 42.051 25.8425 42.1021 26.0001 42.1021C26.1577 42.1021 26.3154 42.0509 26.4469 41.9484C26.5207 41.8909 27.386 41.2119 28.6749 40.0352C30.4369 40.416 31.374 41.1182 31.374 41.5404ZM37.8895 49.5286C39.0131 49.1677 40.0713 48.7526 41.0568 48.2815C41.4212 48.1073 41.5764 47.6684 41.4036 47.3013C41.2306 46.9342 40.7951 46.7778 40.4307 46.9518C37.6875 48.2632 34.3429 49.1297 30.4902 49.5285H2.82515L4.10357 46.4336C4.80982 46.6839 5.99947 47.025 7.498 47.1486C7.84341 47.177 8.21587 47.1944 8.61177 47.1944C10.6546 47.1944 13.3165 46.7338 16.0314 44.9783C18.1043 46.7425 21.757 47.8913 25.9996 47.8913C26.4029 47.8913 26.7299 47.5619 26.7299 47.1555C26.7299 46.7491 26.4029 46.4197 25.9996 46.4197C23.1572 46.4197 20.4964 45.8636 18.5074 44.8538C16.7039 43.9382 15.6695 42.7305 15.6695 41.5404C15.6695 40.0076 17.3773 38.4806 20.1264 37.5551C20.2842 37.502 20.4114 37.3994 20.4982 37.2707C21.0462 37.8438 21.5729 38.3718 22.0666 38.8504C21.837 38.9229 21.6161 39.0011 21.4074 39.0869C19.9612 39.6808 19.1648 40.5521 19.1648 41.5406C19.1648 42.5291 19.9613 43.4005 21.4074 43.9943C22.6458 44.5029 24.2767 44.7828 25.9995 44.7828C27.7222 44.7828 29.3531 44.5028 30.5916 43.9943C32.0377 43.4005 32.8342 42.5291 32.8342 41.5406C32.8342 40.5522 32.0377 39.6808 30.5916 39.0869C30.3831 39.0013 30.1623 38.923 29.9329 38.8506C30.3895 38.4078 30.8743 37.9235 31.3782 37.3996C33.7166 38.0931 35.4499 39.2137 36.0748 40.4925C36.0866 40.5233 36.1003 40.5535 36.1164 40.5827C36.2553 40.8945 36.3297 41.215 36.3297 41.5406C36.3297 43.2327 34.2624 44.894 31.0629 45.7728C30.6738 45.8798 30.4443 46.2842 30.5503 46.6762C30.6388 47.0035 30.9332 47.2187 31.2544 47.2187C31.3179 47.2187 31.3826 47.2102 31.4469 47.1926C35.3596 46.1178 37.79 43.9521 37.79 41.5407C37.79 41.1618 37.7317 40.7913 37.6194 40.4317C38.5026 39.6703 41.0071 37.7797 44.2499 37.6072L46.1902 42.3044C45.8509 42.8524 44.8953 44.1749 42.8902 45.5457C42.5564 45.7738 42.4695 46.2313 42.696 46.5676C42.8372 46.7774 43.0671 46.8903 43.301 46.8903C43.4421 46.8903 43.5847 46.8491 43.7103 46.7633C45.2506 45.7104 46.2443 44.6722 46.8509 43.9035L49.1747 49.5289H37.8895V49.5286Z"/>
</mask>
<path d="M50.9439 49.9815L45.4063 36.576C45.4052 36.5733 45.4041 36.5704 45.4029 36.5677L43.7365 32.5338C43.6232 32.2595 43.3572 32.0808 43.0623 32.0808H35.88C37.277 30.1767 38.4397 28.2801 39.3478 26.4178C40.9571 23.1176 41.7731 19.9126 41.7731 16.8917C41.7731 8.12898 34.6973 1 26.0001 1C17.3028 1 10.2269 8.12898 10.2269 16.8918C10.2269 19.9127 11.0428 23.1178 12.6522 26.4179C13.5603 28.2802 14.723 30.1767 16.1201 32.0809H8.93765C8.64273 32.0809 8.37671 32.2597 8.26343 32.5339L5.20191 39.9452C5.04693 40.3204 5.2231 40.7512 5.59546 40.9072C5.96773 41.0634 6.39527 40.8858 6.55025 40.5107L7.2063 38.9226C7.94048 38.9082 9.37691 38.8142 11.0644 38.3586C13.8282 37.6121 16.1251 36.1882 17.7822 34.2152C17.8279 34.2706 17.8726 34.3261 17.9187 34.3815C18.4545 35.0262 18.9886 35.6367 19.512 36.2125C16.1886 37.3703 14.2092 39.3541 14.2092 41.5405C14.2092 42.3736 14.4927 43.1645 15.0117 43.8872C12.7575 45.2849 10.2942 45.8902 7.67583 45.6868C6.35825 45.5844 5.29927 45.2894 4.66646 45.0716L5.42671 43.2311C5.58169 42.8559 5.40552 42.4252 5.03316 42.2691C4.6606 42.1127 4.23325 42.2904 4.07837 42.6656L1.0561 49.9815C0.962254 50.2084 0.987254 50.4678 1.1228 50.6724C1.25825 50.877 1.48618 50.9999 1.73032 50.9999H30.527C30.5277 50.9999 30.5284 51 30.5291 51C30.5297 51 30.5302 50.9999 30.5309 50.9999H50.2698C50.514 50.9999 50.742 50.877 50.8773 50.6724C51.0128 50.4679 51.0377 50.2086 50.9439 49.9815ZM42.5752 33.5523L43.6597 36.1776C40.4898 36.499 38.0502 38.1738 36.9217 39.0992C36.0266 37.9042 34.4829 36.8989 32.4931 36.2068C33.0148 35.6327 33.5473 35.024 34.0813 34.3814C34.311 34.1051 34.5345 33.8287 34.7547 33.5523H42.5752ZM10.7307 36.9252C9.58345 37.239 8.5521 37.3681 7.8272 37.4198L9.42486 33.5523H16.4241C14.9905 35.1493 13.0824 36.282 10.7307 36.9252ZM19.0385 33.437C12.9627 26.1259 11.6875 20.4042 11.6875 16.8918C11.6875 8.94041 18.1081 2.47153 26.0001 2.47153C33.8921 2.47153 40.3127 8.94041 40.3127 16.8918C40.3127 20.3995 39.0406 26.1132 32.9803 33.4142C30.0573 36.9358 27.0993 39.5074 25.9999 40.4211C24.9036 39.5105 21.9596 36.9519 19.0385 33.437ZM31.374 41.5404C31.374 42.1414 29.4771 43.3112 25.9999 43.3112C22.5226 43.3112 20.6257 42.1414 20.6257 41.5404C20.6257 41.1182 21.563 40.4159 23.3254 40.0351C24.614 41.212 25.4795 41.8909 25.5532 41.9484C25.6848 42.051 25.8425 42.1021 26.0001 42.1021C26.1577 42.1021 26.3154 42.0509 26.4469 41.9484C26.5207 41.8909 27.386 41.2119 28.6749 40.0352C30.4369 40.416 31.374 41.1182 31.374 41.5404ZM37.8895 49.5286C39.0131 49.1677 40.0713 48.7526 41.0568 48.2815C41.4212 48.1073 41.5764 47.6684 41.4036 47.3013C41.2306 46.9342 40.7951 46.7778 40.4307 46.9518C37.6875 48.2632 34.3429 49.1297 30.4902 49.5285H2.82515L4.10357 46.4336C4.80982 46.6839 5.99947 47.025 7.498 47.1486C7.84341 47.177 8.21587 47.1944 8.61177 47.1944C10.6546 47.1944 13.3165 46.7338 16.0314 44.9783C18.1043 46.7425 21.757 47.8913 25.9996 47.8913C26.4029 47.8913 26.7299 47.5619 26.7299 47.1555C26.7299 46.7491 26.4029 46.4197 25.9996 46.4197C23.1572 46.4197 20.4964 45.8636 18.5074 44.8538C16.7039 43.9382 15.6695 42.7305 15.6695 41.5404C15.6695 40.0076 17.3773 38.4806 20.1264 37.5551C20.2842 37.502 20.4114 37.3994 20.4982 37.2707C21.0462 37.8438 21.5729 38.3718 22.0666 38.8504C21.837 38.9229 21.6161 39.0011 21.4074 39.0869C19.9612 39.6808 19.1648 40.5521 19.1648 41.5406C19.1648 42.5291 19.9613 43.4005 21.4074 43.9943C22.6458 44.5029 24.2767 44.7828 25.9995 44.7828C27.7222 44.7828 29.3531 44.5028 30.5916 43.9943C32.0377 43.4005 32.8342 42.5291 32.8342 41.5406C32.8342 40.5522 32.0377 39.6808 30.5916 39.0869C30.3831 39.0013 30.1623 38.923 29.9329 38.8506C30.3895 38.4078 30.8743 37.9235 31.3782 37.3996C33.7166 38.0931 35.4499 39.2137 36.0748 40.4925C36.0866 40.5233 36.1003 40.5535 36.1164 40.5827C36.2553 40.8945 36.3297 41.215 36.3297 41.5406C36.3297 43.2327 34.2624 44.894 31.0629 45.7728C30.6738 45.8798 30.4443 46.2842 30.5503 46.6762C30.6388 47.0035 30.9332 47.2187 31.2544 47.2187C31.3179 47.2187 31.3826 47.2102 31.4469 47.1926C35.3596 46.1178 37.79 43.9521 37.79 41.5407C37.79 41.1618 37.7317 40.7913 37.6194 40.4317C38.5026 39.6703 41.0071 37.7797 44.2499 37.6072L46.1902 42.3044C45.8509 42.8524 44.8953 44.1749 42.8902 45.5457C42.5564 45.7738 42.4695 46.2313 42.696 46.5676C42.8372 46.7774 43.0671 46.8903 43.301 46.8903C43.4421 46.8903 43.5847 46.8491 43.7103 46.7633C45.2506 45.7104 46.2443 44.6722 46.8509 43.9035L49.1747 49.5289H37.8895V49.5286Z" />
<path d="M50.9439 49.9815L45.4063 36.576C45.4052 36.5733 45.4041 36.5704 45.4029 36.5677L43.7365 32.5338C43.6232 32.2595 43.3572 32.0808 43.0623 32.0808H35.88C37.277 30.1767 38.4397 28.2801 39.3478 26.4178C40.9571 23.1176 41.7731 19.9126 41.7731 16.8917C41.7731 8.12898 34.6973 1 26.0001 1C17.3028 1 10.2269 8.12898 10.2269 16.8918C10.2269 19.9127 11.0428 23.1178 12.6522 26.4179C13.5603 28.2802 14.723 30.1767 16.1201 32.0809H8.93765C8.64273 32.0809 8.37671 32.2597 8.26343 32.5339L5.20191 39.9452C5.04693 40.3204 5.2231 40.7512 5.59546 40.9072C5.96773 41.0634 6.39527 40.8858 6.55025 40.5107L7.2063 38.9226C7.94048 38.9082 9.37691 38.8142 11.0644 38.3586C13.8282 37.6121 16.1251 36.1882 17.7822 34.2152C17.8279 34.2706 17.8726 34.3261 17.9187 34.3815C18.4545 35.0262 18.9886 35.6367 19.512 36.2125C16.1886 37.3703 14.2092 39.3541 14.2092 41.5405C14.2092 42.3736 14.4927 43.1645 15.0117 43.8872C12.7575 45.2849 10.2942 45.8902 7.67583 45.6868C6.35825 45.5844 5.29927 45.2894 4.66646 45.0716L5.42671 43.2311C5.58169 42.8559 5.40552 42.4252 5.03316 42.2691C4.6606 42.1127 4.23325 42.2904 4.07837 42.6656L1.0561 49.9815C0.962254 50.2084 0.987254 50.4678 1.1228 50.6724C1.25825 50.877 1.48618 50.9999 1.73032 50.9999H30.527C30.5277 50.9999 30.5284 51 30.5291 51C30.5297 51 30.5302 50.9999 30.5309 50.9999H50.2698C50.514 50.9999 50.742 50.877 50.8773 50.6724C51.0128 50.4679 51.0377 50.2086 50.9439 49.9815ZM42.5752 33.5523L43.6597 36.1776C40.4898 36.499 38.0502 38.1738 36.9217 39.0992C36.0266 37.9042 34.4829 36.8989 32.4931 36.2068C33.0148 35.6327 33.5473 35.024 34.0813 34.3814C34.311 34.1051 34.5345 33.8287 34.7547 33.5523H42.5752ZM10.7307 36.9252C9.58345 37.239 8.5521 37.3681 7.8272 37.4198L9.42486 33.5523H16.4241C14.9905 35.1493 13.0824 36.282 10.7307 36.9252ZM19.0385 33.437C12.9627 26.1259 11.6875 20.4042 11.6875 16.8918C11.6875 8.94041 18.1081 2.47153 26.0001 2.47153C33.8921 2.47153 40.3127 8.94041 40.3127 16.8918C40.3127 20.3995 39.0406 26.1132 32.9803 33.4142C30.0573 36.9358 27.0993 39.5074 25.9999 40.4211C24.9036 39.5105 21.9596 36.9519 19.0385 33.437ZM31.374 41.5404C31.374 42.1414 29.4771 43.3112 25.9999 43.3112C22.5226 43.3112 20.6257 42.1414 20.6257 41.5404C20.6257 41.1182 21.563 40.4159 23.3254 40.0351C24.614 41.212 25.4795 41.8909 25.5532 41.9484C25.6848 42.051 25.8425 42.1021 26.0001 42.1021C26.1577 42.1021 26.3154 42.0509 26.4469 41.9484C26.5207 41.8909 27.386 41.2119 28.6749 40.0352C30.4369 40.416 31.374 41.1182 31.374 41.5404ZM37.8895 49.5286C39.0131 49.1677 40.0713 48.7526 41.0568 48.2815C41.4212 48.1073 41.5764 47.6684 41.4036 47.3013C41.2306 46.9342 40.7951 46.7778 40.4307 46.9518C37.6875 48.2632 34.3429 49.1297 30.4902 49.5285H2.82515L4.10357 46.4336C4.80982 46.6839 5.99947 47.025 7.498 47.1486C7.84341 47.177 8.21587 47.1944 8.61177 47.1944C10.6546 47.1944 13.3165 46.7338 16.0314 44.9783C18.1043 46.7425 21.757 47.8913 25.9996 47.8913C26.4029 47.8913 26.7299 47.5619 26.7299 47.1555C26.7299 46.7491 26.4029 46.4197 25.9996 46.4197C23.1572 46.4197 20.4964 45.8636 18.5074 44.8538C16.7039 43.9382 15.6695 42.7305 15.6695 41.5404C15.6695 40.0076 17.3773 38.4806 20.1264 37.5551C20.2842 37.502 20.4114 37.3994 20.4982 37.2707C21.0462 37.8438 21.5729 38.3718 22.0666 38.8504C21.837 38.9229 21.6161 39.0011 21.4074 39.0869C19.9612 39.6808 19.1648 40.5521 19.1648 41.5406C19.1648 42.5291 19.9613 43.4005 21.4074 43.9943C22.6458 44.5029 24.2767 44.7828 25.9995 44.7828C27.7222 44.7828 29.3531 44.5028 30.5916 43.9943C32.0377 43.4005 32.8342 42.5291 32.8342 41.5406C32.8342 40.5522 32.0377 39.6808 30.5916 39.0869C30.3831 39.0013 30.1623 38.923 29.9329 38.8506C30.3895 38.4078 30.8743 37.9235 31.3782 37.3996C33.7166 38.0931 35.4499 39.2137 36.0748 40.4925C36.0866 40.5233 36.1003 40.5535 36.1164 40.5827C36.2553 40.8945 36.3297 41.215 36.3297 41.5406C36.3297 43.2327 34.2624 44.894 31.0629 45.7728C30.6738 45.8798 30.4443 46.2842 30.5503 46.6762C30.6388 47.0035 30.9332 47.2187 31.2544 47.2187C31.3179 47.2187 31.3826 47.2102 31.4469 47.1926C35.3596 46.1178 37.79 43.9521 37.79 41.5407C37.79 41.1618 37.7317 40.7913 37.6194 40.4317C38.5026 39.6703 41.0071 37.7797 44.2499 37.6072L46.1902 42.3044C45.8509 42.8524 44.8953 44.1749 42.8902 45.5457C42.5564 45.7738 42.4695 46.2313 42.696 46.5676C42.8372 46.7774 43.0671 46.8903 43.301 46.8903C43.4421 46.8903 43.5847 46.8491 43.7103 46.7633C45.2506 45.7104 46.2443 44.6722 46.8509 43.9035L49.1747 49.5289H37.8895V49.5286Z"  />
<path d="M23.1384 12.6132L23.1385 12.6131C23.9847 12.0371 24.9739 11.7327 25.9999 11.7327C28.8217 11.7327 31.1193 14.0462 31.1193 16.8919C31.1193 19.7376 28.8217 22.051 25.9999 22.051C23.1781 22.051 20.8804 19.7376 20.8804 16.8919C20.8804 16.0496 21.0861 15.2143 21.4746 14.4768L21.4746 14.4768C21.7017 14.0455 21.5394 13.5095 21.11 13.2798L21.1099 13.2797C20.6795 13.0499 20.1467 13.2151 19.919 13.647L19.919 13.647C19.3961 14.6397 19.1199 15.7616 19.1199 16.8919C19.1199 20.7126 22.2051 23.8226 25.9999 23.8226C29.7946 23.8226 32.8799 20.7125 32.8799 16.8919C32.8799 13.0712 29.7947 9.96121 25.9999 9.96121C24.6213 9.96121 23.2905 10.3709 22.1522 11.1458C21.7494 11.4199 21.6443 11.97 21.9156 12.3748C22.1875 12.7805 22.7351 12.8874 23.1384 12.6132Z"  stroke-width="0.3"/>
</svg>
