<svg width="312" height="112" viewBox="0 0 312 112" fill="none" xmlns="http://www.w3.org/2000/svg">
<circle cx="292.444" cy="56.0002" r="18.6667" fill="#8757E8"/>
<path d="M48.1339 42.456H32.1552V83H17.5952V42.456H1.54188V30.7333H48.1339V42.456ZM78.8423 30.7333C83.5712 30.7333 87.6778 31.5298 91.1623 33.1227C94.6467 34.6658 97.3347 36.9058 99.2263 39.8427C101.118 42.7298 102.064 46.1396 102.064 50.072C102.064 54.0044 101.118 57.4142 99.2263 60.3013C97.3347 63.1884 94.6467 65.4284 91.1623 67.0213C87.6778 68.5644 83.5712 69.336 78.8423 69.336H69.733V83H54.949V30.7333H78.8423ZM77.9463 57.688C80.9827 57.688 83.2725 57.0409 84.8156 55.7467C86.3587 54.4027 87.1303 52.5111 87.1303 50.072C87.1303 47.6329 86.3587 45.7413 84.8156 44.3973C83.2725 43.0533 80.9827 42.3813 77.9463 42.3813H69.733V57.688H77.9463ZM150.724 71.576V83H108.761V30.7333H149.753V42.1573H123.396V50.968H146.617V62.0187H123.396V71.576H150.724ZM184.535 84.0453C179.06 84.0453 174.132 82.9004 169.751 80.6107C165.421 78.2711 162.011 75.0356 159.522 70.904C157.033 66.7724 155.789 62.0933 155.789 56.8667C155.789 51.64 157.033 46.9609 159.522 42.8293C162.011 38.6978 165.421 35.4871 169.751 33.1973C174.132 30.8578 179.06 29.688 184.535 29.688C189.314 29.688 193.62 30.5342 197.453 32.2267C201.286 33.9191 204.471 36.3582 207.01 39.544L197.602 48.056C194.217 43.9742 190.11 41.9333 185.282 41.9333C182.445 41.9333 179.906 42.5556 177.666 43.8C175.476 45.0444 173.758 46.8116 172.514 49.1013C171.319 51.3413 170.722 53.9298 170.722 56.8667C170.722 59.8036 171.319 62.4169 172.514 64.7067C173.758 66.9467 175.476 68.6889 177.666 69.9333C179.906 71.1778 182.445 71.8 185.282 71.8C190.11 71.8 194.217 69.7591 197.602 65.6773L207.01 74.1893C204.471 77.3751 201.286 79.8142 197.453 81.5067C193.62 83.1991 189.314 84.0453 184.535 84.0453ZM255.363 42.456H239.384V83H224.824V42.456H208.771V30.7333H255.363V42.456Z" fill="#A2A4A6"/>
</svg>
