<svg width="150" height="54" viewBox="0 0 150 54" fill="none" xmlns="http://www.w3.org/2000/svg">
<circle cx="141" cy="27" r="9" fill="#8757E8"/>
<path d="M23.252 20.452H15.548V40H8.52805V20.452H0.788047V14.8H23.252V20.452ZM38.0579 14.8C40.3379 14.8 42.3179 15.184 43.9979 15.952C45.6779 16.696 46.9739 17.776 47.8859 19.192C48.7979 20.584 49.2539 22.228 49.2539 24.124C49.2539 26.02 48.7979 27.664 47.8859 29.056C46.9739 30.448 45.6779 31.528 43.9979 32.296C42.3179 33.04 40.3379 33.412 38.0579 33.412H33.6659V40H26.5379V14.8H38.0579ZM37.6259 27.796C39.0899 27.796 40.1939 27.484 40.9379 26.86C41.6819 26.212 42.0539 25.3 42.0539 24.124C42.0539 22.948 41.6819 22.036 40.9379 21.388C40.1939 20.74 39.0899 20.416 37.6259 20.416H33.6659V27.796H37.6259ZM72.7152 34.492V40H52.4832V14.8H72.2472V20.308H59.5392V24.556H70.7352V29.884H59.5392V34.492H72.7152ZM89.017 40.504C86.377 40.504 84.001 39.952 81.889 38.848C79.801 37.72 78.157 36.16 76.957 34.168C75.757 32.176 75.157 29.92 75.157 27.4C75.157 24.88 75.757 22.624 76.957 20.632C78.157 18.64 79.801 17.092 81.889 15.988C84.001 14.86 86.377 14.296 89.017 14.296C91.321 14.296 93.397 14.704 95.245 15.52C97.093 16.336 98.629 17.512 99.853 19.048L95.317 23.152C93.685 21.184 91.705 20.2 89.377 20.2C88.009 20.2 86.785 20.5 85.705 21.1C84.649 21.7 83.821 22.552 83.221 23.656C82.645 24.736 82.357 25.984 82.357 27.4C82.357 28.816 82.645 30.076 83.221 31.18C83.821 32.26 84.649 33.1 85.705 33.7C86.785 34.3 88.009 34.6 89.377 34.6C91.705 34.6 93.685 33.616 95.317 31.648L99.853 35.752C98.629 37.288 97.093 38.464 95.245 39.28C93.397 40.096 91.321 40.504 89.017 40.504ZM123.166 20.452H115.462V40H108.442V20.452H100.702V14.8H123.166V20.452Z" fill="#8757E8"/>
</svg>
