<svg width="435" height="157" viewBox="0 0 435 157" fill="none" xmlns="http://www.w3.org/2000/svg">
    <circle cx="408.9" cy="78.2999" r="26.1" fill="white"/>
    <path d="M67.1309 59.3108H44.7893V116H24.4313V59.3108H1.98534V42.92H67.1309V59.3108ZM110.068 42.92C116.68 42.92 122.422 44.0336 127.294 46.2608C132.166 48.4184 135.924 51.5504 138.569 55.6568C141.214 59.6936 142.536 64.4612 142.536 69.9596C142.536 75.458 141.214 80.2256 138.569 84.2624C135.924 88.2992 132.166 91.4312 127.294 93.6584C122.422 95.816 116.68 96.8948 110.068 96.8948H97.3311V116H76.6599V42.92H110.068ZM108.815 80.6084C113.061 80.6084 116.262 79.7036 118.42 77.894C120.577 76.0148 121.656 73.37 121.656 69.9596C121.656 66.5492 120.577 63.9044 118.42 62.0252C116.262 60.146 113.061 59.2064 108.815 59.2064H97.3311V80.6084H108.815ZM210.574 100.027V116H151.901V42.92H209.217V58.8932H172.364V71.2124H204.832V86.6636H172.364V100.027H210.574ZM257.849 117.462C250.193 117.462 243.303 115.861 237.178 112.659C231.123 109.388 226.355 104.864 222.875 99.0872C219.395 93.3104 217.655 86.768 217.655 79.46C217.655 72.152 219.395 65.6096 222.875 59.8328C226.355 54.056 231.123 49.5668 237.178 46.3652C243.303 43.094 250.193 41.4584 257.849 41.4584C264.531 41.4584 270.551 42.6416 275.911 45.008C281.27 47.3744 285.724 50.7848 289.274 55.2392L276.119 67.1408C271.387 61.4336 265.645 58.58 258.893 58.58C254.926 58.58 251.377 59.45 248.245 61.19C245.182 62.93 242.781 65.4008 241.041 68.6024C239.371 71.7344 238.535 75.3536 238.535 79.46C238.535 83.5664 239.371 87.2204 241.041 90.422C242.781 93.554 245.182 95.99 248.245 97.73C251.377 99.47 254.926 100.34 258.893 100.34C265.645 100.34 271.387 97.4864 276.119 91.7792L289.274 103.681C285.724 108.135 281.27 111.546 275.911 113.912C270.551 116.278 264.531 117.462 257.849 117.462ZM356.882 59.3108H334.54V116H314.182V59.3108H291.736V42.92H356.882V59.3108Z" fill="white"/>
</svg>