<svg id="Capa_1" enable-background="new 0 0 512 512"
     height="50" viewBox="0 0 512 512" width="50"
     xmlns="http://www.w3.org/2000/svg">
    <g>
        <ellipse cx="137.385" cy="246.858" rx="9.143" ry="9.143"
                 transform="matrix(.998 -.071 .071 .998 -17.154 10.36)"/>
        <circle cx="199.629" cy="246.858" r="9.143"/>
        <circle cx="307.244" cy="252.974" r="9.143"/>
        <circle cx="369.487" cy="252.974" r="9.143"/>
        <path d="m361.054 282.88c-3.661-2.083-8.318-.81-10.407 2.852-2.513 4.411-7.22 7.152-12.281 7.152-5.062 0-9.769-2.741-12.282-7.152-2.087-3.662-6.749-4.937-10.407-2.852-3.662 2.086-4.939 6.746-2.852 10.407 5.223 9.165 15.009 14.857 25.541 14.857s20.318-5.693 25.54-14.857c2.087-3.661.81-8.321-2.852-10.407z"/>
        <path d="m434.863 261.767c5.249-16.143-2.161-33.076-16.52-37.746-1.567-.509-3.649-.941-5.94-.93v-27.302c0-21.913-15.898-40.17-36.763-43.876-.923-19.885-17.387-35.779-37.497-35.779-20.136 0-36.615 15.937-37.499 35.859-20.646 3.885-36.318 22.04-36.318 43.797v27.302c-2.316-.012-4.373.422-5.94.931-1.794.583-3.479 1.358-5.044 2.299-1.527-.895-3.145-1.634-4.857-2.19-1.566-.509-3.63-.954-5.941-.924v-36.352c0-22.157-18.027-40.184-40.184-40.184h-67.708c-22.157 0-40.184 18.027-40.184 40.184v36.351c-2.313-.034-4.375.416-5.939.924-7.176 2.334-12.815 7.7-15.877 15.112-2.888 6.989-3.116 15.027-.642 22.634 3.326 10.227 12.049 20.999 22.459 25.149v15.344c0 40.825 33.213 74.038 74.038 74.038s74.038-33.214 74.038-74.039v-15.374c4.049-1.643 7.75-4.265 10.906-7.247 3.639 3.441 7.821 6.194 12.285 7.692 6.741 34.395 37.039 59.689 72.63 59.689s65.888-25.294 72.629-59.688c11.027-3.703 20.393-14.989 23.868-25.674zm-96.719-130.374c11.454 0 20.914 8.689 22.143 19.82h-44.285c1.229-11.131 10.688-19.82 22.142-19.82zm-58.557 64.396c0-16.165 13.152-29.316 29.316-29.316h58.924c16.165 0 29.316 13.152 29.316 29.316v12.705c-2.144.261-4.295.393-6.435.393-17.512 0-33.574-8.293-44.069-22.753-1.81-2.494-4.725-3.932-7.808-3.898-3.077.052-5.941 1.606-7.661 4.155-10.289 15.227-27.168 24.317-45.15 24.317-2.14 0-4.291-.132-6.435-.393v-14.526zm-144.934-33.86h67.708c13.743 0 24.924 11.181 24.924 24.924v10.532c-7.843-6.864-18.1-11.036-29.316-11.036h-58.924c-11.217 0-21.473 4.171-29.316 11.036v-10.532c0-13.743 11.181-24.924 24.924-24.924zm92.633 140.438c0 32.411-26.368 58.779-58.778 58.779s-58.778-26.368-58.778-58.778v-5.376c3.67 12.995 12.296 24.232 24.026 31.158 3.231 1.909 7.165 2.446 10.789 1.469 3.621-.974 6.619-3.297 8.441-6.542 3.153-5.611 9.101-9.096 15.523-9.096s12.37 3.485 15.523 9.095c1.824 3.246 4.821 5.569 8.442 6.543 3.625.977 7.557.44 10.788-1.468 11.731-6.927 20.356-18.165 24.026-31.159v5.375zm13.084-31.51c-.81-.983-1.821-1.813-3-2.421-3.186-1.647-6.981-1.382-9.903.692-7.345 5.213-12.432 12.866-14.326 21.553-2.121 9.733-8.124 18.29-16.552 23.662-6.013-9.671-16.641-15.621-28.082-15.621-11.44 0-22.068 5.949-28.082 15.621-8.429-5.372-14.431-13.929-16.552-23.662-1.892-8.68-6.975-16.331-14.313-21.543-1.291-.917-2.835-1.41-4.418-1.41-3.139 0-5.957 1.37-7.912 3.535-4.463-3.012-8.914-8.59-10.708-14.107-1.352-4.158-1.269-8.451.234-12.089 1.328-3.215 3.634-5.497 6.493-6.427.987-.319 1.319-.426 2.635 1.421 1.924 2.703 5.373 3.855 8.538 2.842 3.162-1.01 5.307-3.948 5.307-7.267v-4.71c0-16.165 13.151-29.316 29.316-29.316h58.924c16.165 0 29.316 13.152 29.316 29.316v4.71c0 3.319 2.145 6.257 5.307 7.267 3.16 1.013 6.614-.138 8.538-2.842.816-1.145 1.254-1.538 1.703-1.596-3.04 6.859-3.606 15.179-.965 23.302.611 1.88 1.415 3.778 2.368 5.651-1.242 1.332-2.553 2.493-3.866 3.439zm156.337 9.281c-3.523 29.49-28.604 51.728-58.342 51.728-29.737 0-54.818-22.238-58.341-51.728-.441-3.692-3.479-6.528-7.194-6.715-5.707-.287-13.856-8.398-16.45-16.375-1.963-6.035-.807-12.155 2.509-15.762.086-.09.178-.177.259-.27 1.108-1.124 2.434-1.986 3.958-2.481.983-.323 1.318-.431 2.636 1.42 1.926 2.703 5.376 3.855 8.539 2.841 3.161-1.01 5.306-3.948 5.306-7.267v-9.87c2.145.204 4.293.311 6.435.311 20.508 0 39.865-9.176 53.136-24.88 13.209 14.557 31.975 23.059 51.551 23.059 2.142 0 4.29-.108 6.435-.311v11.692c0 3.319 2.146 6.257 5.307 7.267 3.157 1.012 6.613-.138 8.538-2.842 1.317-1.847 1.648-1.739 2.637-1.421 6.355 2.067 9.372 10.374 6.726 18.515-2.595 7.978-10.743 16.088-16.451 16.375-3.715.186-6.753 3.022-7.194 6.714z"/>
        <path d="m213.407 277.184c-6.075-1.131-11.886-3.423-17.094-6.743-5.88-3.748-13.108-4.887-19.721-2.672-1.182.396-2.358.841-3.525 1.336-2.202 1.48-5.506 2.26-9.121 0-1.167-.495-2.343-.94-3.525-1.336-6.612-2.215-13.84-1.076-19.721 2.672-5.208 3.319-11.018 5.612-17.094 6.742-2.764.514-3.374 4.169-.948 5.59 1.772 1.038 3.631 1.974 5.572 2.797 11.67 4.948 24.197 4.921 35.227.881 1.284-.47 2.368-1.16 3.251-1.999 1.011-.959 2.581-.959 3.592 0 .884.838 1.967 1.528 3.251 1.999 11.031 4.04 23.558 4.067 35.227-.881 1.941-.823 3.8-1.759 5.572-2.797 2.431-1.421 1.821-5.075-.943-5.589z"/>
        <path d="m370.949 420.242-85.612 66.444c-8.355 6.484-18.774 10.055-29.337 10.055-10.717 0-20.861-3.477-29.337-10.054l-85.612-66.445c-28.237-21.917-51.47-50.467-67.19-82.566-15.72-32.1-24.029-67.959-24.029-103.701v-142.935c0-2.267 1.844-4.125 4.112-4.141l26.024-.19c10.476-.076 20.751-.575 30.539-1.482 4.196-.388 7.282-4.105 6.893-8.301-.389-4.194-4.114-7.292-8.301-6.893-9.36.867-19.198 1.344-29.243 1.417l-26.023.19c-10.621.076-19.261 8.78-19.261 19.401v142.935c0 38.055 8.847 76.235 25.584 110.413 16.737 34.176 41.475 64.574 71.538 87.909l85.613 66.445c11.017 8.548 24.759 13.257 38.693 13.257 13.933 0 27.675-4.709 38.694-13.26l85.612-66.444c3.328-2.583 3.933-7.377 1.349-10.706-2.585-3.327-7.377-3.93-10.706-1.348z"/>
        <path d="m458.167 71.639-26.023-.19c-86.466-.627-126.135-31.03-139.178-44.073-4.818-4.817-9.348-10.067-13.464-15.604-5.545-7.458-14.058-11.749-23.355-11.772-.024 0-.048 0-.072 0-9.301 0-17.839 4.269-23.43 11.717-4.1 5.46-8.679 10.73-13.611 15.661-11.83 11.83-34.31 27.859-74.217 37.034-4.107.945-6.67 5.039-5.726 9.146s5.041 6.669 9.145 5.726c43.437-9.987 68.343-27.871 81.588-41.116 5.439-5.439 10.493-11.256 15.023-17.289 2.681-3.573 6.772-5.619 11.228-5.619h.035c4.437.011 8.498 2.058 11.145 5.618 4.558 6.132 9.578 11.949 14.919 17.29 14.373 14.372 57.746 47.873 149.858 48.541l26.024.19c2.267.016 4.111 1.874 4.111 4.141v142.935c0 35.74-8.309 71.6-24.028 103.701-11.141 22.748-25.88 43.527-43.809 61.758-2.955 3.004-2.914 7.836.09 10.79 1.486 1.461 3.418 2.19 5.35 2.19 1.973 0 3.947-.762 5.44-2.28 19.081-19.404 34.771-41.523 46.633-65.746 16.737-34.18 25.584-72.359 25.584-110.413v-142.935c.001-10.62-8.64-19.324-19.26-19.401z"/>
        <g>
            <circle cx="256" cy="468.462" r="11.003"/>
        </g>
        <g>
            <circle cx="256" cy="53.896" r="11.003"/>
        </g>
        <g>
            <circle cx="432.641" cy="118.721" r="11.003"/>
        </g>
        <g>
            <circle cx="78.047" cy="118.721" r="11.003"/>
        </g>
    </g>
</svg>