<svg width="27" height="27" viewBox="0 0 27 27" fill="none" xmlns="http://www.w3.org/2000/svg">
<g clip-path="url(#clip0)">
<path d="M6.53379 3.77569H5.57402C5.71641 2.70518 6.30703 2.65245 6.58125 2.62608C6.85547 2.59971 7.06113 2.37295 7.06113 2.09874V0.527251C7.06113 0.384868 7.00313 0.242485 6.89766 0.14229C6.79219 0.0420947 6.64453 -0.00536621 6.50215 -9.27734e-05C4.83574 0.0948291 2.84766 0.938579 2.84766 4.41377V7.15596C2.84766 7.61475 3.22207 7.98917 3.68086 7.98917H6.53379C6.99258 7.98917 7.36699 7.61475 7.36699 7.15596V4.60889C7.36172 4.1501 6.98731 3.77569 6.53379 3.77569ZM6.30703 6.93448H3.90234V4.41377C3.90234 1.98799 4.9834 1.30772 6.00645 1.11788V1.67159C5.29981 1.8878 4.48242 2.52061 4.48242 4.30303C4.48242 4.59307 4.71973 4.83038 5.00977 4.83038H6.30703V6.93448Z" fill="#8757E8"/>
<path d="M11.923 3.77589H10.9633C11.1057 2.70538 11.6963 2.65265 11.9705 2.62628C12.2447 2.59991 12.4504 2.37315 12.4504 2.09893V0.527451C12.4504 0.385068 12.3924 0.242685 12.2869 0.14249C12.1814 0.0422944 12.0391 -0.0104399 11.8967 0.000106957C10.2303 0.0950288 8.24219 0.933505 8.24219 4.41397V7.15616C8.24219 7.61495 8.6166 7.98936 9.07539 7.98936H11.9283C12.3871 7.98936 12.7615 7.61495 12.7615 7.15616V4.60909C12.751 4.1503 12.3818 3.77589 11.923 3.77589ZM11.6963 6.93467H9.2916V4.41397C9.2916 1.98819 10.3727 1.30792 11.3957 1.11808V1.67179C10.6891 1.888 9.87695 2.52081 9.87695 4.30323C9.87695 4.59327 10.1143 4.83057 10.4043 4.83057H11.7016L11.6963 6.93467Z" fill="#8757E8"/>
<path d="M15.0346 4.26084C14.9344 4.16064 14.8025 4.10791 14.6602 4.10791C14.5178 4.10791 14.3859 4.16592 14.2857 4.26084C14.1855 4.35576 14.1328 4.49287 14.1328 4.63525C14.1328 4.77764 14.1908 4.90947 14.2857 5.00967C14.3807 5.10986 14.5178 5.1626 14.6602 5.1626C14.8025 5.1626 14.9344 5.10459 15.0346 5.00967C15.1348 4.91475 15.1875 4.77764 15.1875 4.63525C15.1875 4.49287 15.1295 4.36104 15.0346 4.26084Z" fill="#8757E8"/>
<path d="M17.6291 4.10815H16.9646C16.6746 4.10815 16.4373 4.34546 16.4373 4.6355C16.4373 4.92554 16.6746 5.16284 16.9646 5.16284H17.6291C22.217 5.16284 25.9453 8.89644 25.9453 13.4791C25.9453 17.3919 23.1715 20.8197 19.343 21.6212C19.1004 21.674 18.9264 21.8902 18.9264 22.138V25.2019L15.6779 21.9535C15.5777 21.8533 15.4459 21.8005 15.3035 21.8005H9.3709C4.78301 21.8005 1.05469 18.0669 1.05469 13.4843C1.05469 12.071 1.41328 10.6736 2.09883 9.45015C2.24121 9.19702 2.14629 8.87534 1.89316 8.73296C1.64004 8.59058 1.31836 8.6855 1.17598 8.93862C0.406055 10.315 0 11.8865 0 13.4791C0 18.647 4.20293 22.8499 9.3709 22.8499H15.082L19.074 26.8419C19.1742 26.9421 19.3113 26.9949 19.4484 26.9949C19.517 26.9949 19.5855 26.9843 19.6488 26.9527C19.8439 26.8736 19.9758 26.6785 19.9758 26.4675V22.5494C21.8848 22.0537 23.6092 20.9568 24.8695 19.4222C26.2406 17.7505 26.9947 15.6412 26.9947 13.4791C27 8.31108 22.7971 4.10815 17.6291 4.10815Z" fill="#8757E8"/>
<path d="M19.992 9.36035H7.00879C6.71875 9.36035 6.48145 9.59766 6.48145 9.8877C6.48145 10.1777 6.71875 10.415 7.00879 10.415H19.9867C20.2768 10.415 20.5141 10.1777 20.5141 9.8877C20.5141 9.59766 20.282 9.36035 19.992 9.36035Z" fill="#8757E8"/>
<path d="M19.992 12.1711H7.00879C6.71875 12.1711 6.48145 12.4084 6.48145 12.6985C6.48145 12.9885 6.71875 13.2258 7.00879 13.2258H19.9867C20.2768 13.2258 20.5141 12.9885 20.5141 12.6985C20.5141 12.4084 20.282 12.1711 19.992 12.1711Z" fill="#8757E8"/>
<path d="M19.992 14.9871H7.00879C6.71875 14.9871 6.48145 15.2244 6.48145 15.5144C6.48145 15.8044 6.71875 16.0417 7.00879 16.0417H19.9867C20.2768 16.0417 20.5141 15.8044 20.5141 15.5144C20.5141 15.2244 20.282 14.9871 19.992 14.9871Z" fill="#8757E8"/>
<path d="M19.992 17.7979H13.0732C12.7832 17.7979 12.5459 18.0352 12.5459 18.3252C12.5459 18.6152 12.7832 18.8525 13.0732 18.8525H19.992C20.282 18.8525 20.5193 18.6152 20.5193 18.3252C20.5193 18.0352 20.282 17.7979 19.992 17.7979Z" fill="#8757E8"/>
<path d="M10.1043 17.7979H10.0937C9.80371 17.7979 9.56641 18.0352 9.56641 18.3252C9.56641 18.6152 9.80371 18.8525 10.0937 18.8525H10.1043C10.3943 18.8525 10.6316 18.6152 10.6316 18.3252C10.6316 18.0352 10.3943 17.7979 10.1043 17.7979Z" fill="#8757E8"/>
</g>
<defs>
<clipPath id="clip0">
<rect width="27" height="27" fill="white"/>
</clipPath>
</defs>
</svg>
