<svg width="50" height="50" viewBox="0 0 50 50" fill="none" xmlns="http://www.w3.org/2000/svg">
<g clip-path="url(#clip0_2320_1967)">
<path d="M48.3808 5.06922H39.415L32.2208 1.02338C31.9333 0.862547 31.5792 0.865047 31.2942 1.03088C31.01 1.19588 30.8333 1.50338 30.8333 1.83338V2.56921H24.1667V5.06922H1.61915C0.726651 5.06922 -1.52588e-05 5.79588 -1.52588e-05 6.68838V43.4492C-1.52588e-05 44.3417 0.726651 45.0684 1.61915 45.0684H1.66665V48.4017H9.99998V45.0684H24.1667V47.5684H30.8333V48.1651C30.8333 48.4951 31.01 48.8026 31.295 48.9692C31.4392 49.0542 31.6017 49.0959 31.7642 49.0959C31.9217 49.0959 32.08 49.0559 32.2208 48.9767L39.17 45.0684H40V48.4017H48.3333V45.0684H48.3808C49.2733 45.0684 50 44.3417 50 43.4492V6.68838C50 5.79588 49.2733 5.06922 48.3808 5.06922ZM8.33332 46.7359H3.33332V45.0692H8.33332V46.7359ZM9.99998 43.4326V43.4026H1.66665V43.4501L1.61915 6.73588H24.1667V8.40255H5.28832C4.21082 8.40255 3.33332 9.27922 3.33332 10.3567V39.7809C3.33332 40.8584 4.21082 41.7359 5.28832 41.7359H11.6667H18.3333H24.1667V43.4042L9.99998 43.4326ZM18.3333 40.0692V39.2359H21.6667V40.0692H18.3333ZM11.6667 31.7359V32.5692H8.33332V31.7359H11.6667ZM11.6667 35.0692H8.33332V34.2359H11.6667V35.0692ZM8.33332 36.7359H11.6667V37.5692H8.33332V36.7359ZM8.33332 39.2359H11.6667V40.0692H8.33332V39.2359ZM13.3333 31.7359H16.6667V40.0692H13.3333V31.7359ZM21.6667 35.0692H18.3333V34.2359H21.6667V35.0692ZM18.3333 36.7359H21.6667V37.5692H18.3333V36.7359ZM21.6667 32.5692H18.3333V31.7359H21.6667V32.5692ZM23.3333 30.9026C23.3333 30.4417 22.9608 30.0692 22.5 30.0692H18.3333H17.5H12.5H11.6667H7.49998C7.03915 30.0692 6.66665 30.4417 6.66665 30.9026V40.0692H5.28832C5.12915 40.0692 4.99998 39.9392 4.99998 39.7809V25.9026H11.6667H18.3333H24.1667V40.0692H23.3333V30.9026ZM24.1667 24.2359H23.3333V15.0692C23.3333 14.6084 22.9608 14.2359 22.5 14.2359H18.3333H17.5H12.5H11.6667H7.49998C7.03915 14.2359 6.66665 14.6084 6.66665 15.0692V24.2359H4.99998V10.3567C4.99998 10.1984 5.12915 10.0684 5.28832 10.0684H24.1667V24.2359ZM18.3333 24.2359V23.4026H21.6667V24.2359H18.3333ZM11.6667 15.9025V16.7359H8.33332V15.9025H11.6667ZM11.6667 19.2359H8.33332V18.4025H11.6667V19.2359ZM8.33332 20.9025H11.6667V21.7359H8.33332V20.9025ZM8.33332 23.4026H11.6667V24.2359H8.33332V23.4026ZM13.3333 15.9025H16.6667V24.2359H13.3333V15.9025ZM21.6667 19.2359H18.3333V18.4025H21.6667V19.2359ZM18.3333 20.9025H21.6667V21.7359H18.3333V20.9025ZM21.6667 16.7359H18.3333V15.9025H21.6667V16.7359ZM25.8333 45.9026V45.0692V41.7359V8.40255V5.06922V4.23588H30.8333V45.9026H25.8333ZM32.5 3.09171L36.0158 5.06922H35.8933L44.1666 9.72338V12.5692C43.7058 12.5692 43.3333 12.9417 43.3333 13.4025C43.3333 13.8634 43.7058 14.2359 44.1666 14.2359V15.0692C43.7058 15.0692 43.3333 15.4417 43.3333 15.9025C43.3333 16.3634 43.7058 16.7359 44.1666 16.7359V33.4026C43.7058 33.4026 43.3333 33.7751 43.3333 34.2359C43.3333 34.6967 43.7058 35.0692 44.1666 35.0692V35.9026C43.7058 35.9026 43.3333 36.2751 43.3333 36.7359C43.3333 37.1967 43.7058 37.5692 44.1666 37.5692V40.3459L32.5 46.9084V3.09171ZM46.6666 46.7359H41.6666V45.0692H46.6666V46.7359ZM48.3333 43.4026H42.255L45.8333 41.3901V41.3209V37.5692H46.6666C47.1275 37.5692 47.5 37.1967 47.5 36.7359C47.5 36.2751 47.1275 35.9026 46.6666 35.9026H45.8333V35.0692H46.6666C47.1275 35.0692 47.5 34.6967 47.5 34.2359C47.5 33.7751 47.1275 33.4026 46.6666 33.4026H45.8333V16.7359H46.6666C47.1275 16.7359 47.5 16.3634 47.5 15.9025C47.5 15.4417 47.1275 15.0692 46.6666 15.0692H45.8333V14.2359H46.6666C47.1275 14.2359 47.5 13.8634 47.5 13.4025C47.5 12.9417 47.1275 12.5692 46.6666 12.5692H45.8333V8.74838V8.67922L42.3483 6.71921L48.3333 6.68838L48.3808 43.4026H48.3333Z" fill="#8757E8"/>
<path d="M28.3333 6.66587C28.7936 6.66587 29.1667 6.29278 29.1667 5.83254C29.1667 5.3723 28.7936 4.99921 28.3333 4.99921C27.8731 4.99921 27.5 5.3723 27.5 5.83254C27.5 6.29278 27.8731 6.66587 28.3333 6.66587Z" fill="#8757E8"/>
<path d="M28.3333 11.6659C28.7936 11.6659 29.1667 11.2928 29.1667 10.8326C29.1667 10.3724 28.7936 9.99927 28.3333 9.99927C27.8731 9.99927 27.5 10.3724 27.5 10.8326C27.5 11.2928 27.8731 11.6659 28.3333 11.6659Z" fill="#8757E8"/>
<path d="M28.3333 39.9992C28.7936 39.9992 29.1667 39.6261 29.1667 39.1658C29.1667 38.7056 28.7936 38.3325 28.3333 38.3325C27.8731 38.3325 27.5 38.7056 27.5 39.1658C27.5 39.6261 27.8731 39.9992 28.3333 39.9992Z" fill="#8757E8"/>
<path d="M28.3333 34.9992C28.7936 34.9992 29.1667 34.6261 29.1667 34.1659C29.1667 33.7056 28.7936 33.3325 28.3333 33.3325C27.8731 33.3325 27.5 33.7056 27.5 34.1659C27.5 34.6261 27.8731 34.9992 28.3333 34.9992Z" fill="#8757E8"/>
<path d="M28.3333 16.6659C28.7936 16.6659 29.1667 16.2928 29.1667 15.8325C29.1667 15.3723 28.7936 14.9992 28.3333 14.9992C27.8731 14.9992 27.5 15.3723 27.5 15.8325C27.5 16.2928 27.8731 16.6659 28.3333 16.6659Z" fill="#8757E8"/>
<path d="M28.3333 44.9992C28.7936 44.9992 29.1667 44.6261 29.1667 44.1658C29.1667 43.7056 28.7936 43.3325 28.3333 43.3325C27.8731 43.3325 27.5 43.7056 27.5 44.1658C27.5 44.6261 27.8731 44.9992 28.3333 44.9992Z" fill="#8757E8"/>
<path d="M34.1666 29.1667C33.7057 29.1667 33.3332 29.5392 33.3332 30.0001C33.3332 30.4609 33.7057 30.8334 34.1666 30.8334C36.0099 30.8334 37.509 29.3342 37.509 27.4909V22.5084C37.509 20.6651 36.0099 19.1667 34.1666 19.1667C33.7057 19.1667 33.3332 19.5392 33.3332 20.0001C33.3332 20.4609 33.7057 20.8334 34.1666 20.8334C35.0899 20.8334 35.8424 21.5851 35.8424 22.5092V27.4917C35.8424 28.4142 35.0899 29.1667 34.1666 29.1667Z" fill="#8757E8"/>
<path d="M34.1666 15.8334C33.7057 15.8334 33.3332 16.2059 33.3332 16.6667C33.3332 17.1275 33.7057 17.5 34.1666 17.5C36.9282 17.5 39.1757 19.7467 39.1757 22.5092V27.4917C39.1757 30.2525 36.9282 32.5 34.1666 32.5C33.7057 32.5 33.3332 32.8725 33.3332 33.3334C33.3332 33.7942 33.7057 34.1667 34.1666 34.1667C37.8474 34.1667 40.8424 31.1717 40.8424 27.4909V22.5084C40.8424 18.8275 37.8474 15.8334 34.1666 15.8334Z" fill="#8757E8"/>
</g>
<defs>
<clipPath id="clip0_2320_1967">
<rect width="50" height="50" fill="white"/>
</clipPath>
</defs>
</svg>
