<svg width="50" height="50" viewBox="0 0 50 50" fill="none" xmlns="http://www.w3.org/2000/svg">
<g clip-path="url(#clip0_2320_1981)">
<path d="M49.5492 29.9886C48.0883 27.9535 46.6074 27.921 42.8998 29.8719L35.7137 34.2654C34.6487 34.832 32.4627 35.002 30.3427 35.0379C30.7194 34.2537 30.551 33.3178 29.8393 32.2545C29.1801 31.2711 28.2826 30.4894 27.2409 29.9552C28.9676 28.5518 30.001 26.4626 30.001 24.1667C30.001 20.0316 26.6367 16.6664 22.5008 16.6664C18.3648 16.6664 15.0005 20.0316 15.0005 24.1667C15.0005 25.4009 15.3072 26.5793 15.8564 27.6301C15.8455 27.6226 15.8339 27.616 15.8239 27.6076C12.8321 25.3517 7.83359 25.0334 5.83436 24.9992V22.4766H0V49.1675H5.83353V46.6674H16.6672C18.3673 46.6674 20.0823 46.5374 21.7641 46.2824L32.5669 44.6399C32.9603 44.6349 33.3586 44.5882 33.7136 44.5082C34.7087 44.3682 35.6595 43.8932 36.4654 43.1332L49.0966 33.2962L49.1158 33.2803C50.1 32.4661 50.29 31.0194 49.5492 29.9886ZM19.309 29.041C17.6514 27.956 16.6672 26.1459 16.6672 24.1667C16.6672 20.9499 19.2848 18.3332 22.5008 18.3332C25.7167 18.3332 28.3343 20.9499 28.3343 24.1667C28.3343 26.3218 27.1751 28.2577 25.2908 29.2827C25.1875 29.2627 25.0825 29.2527 24.9783 29.2369C24.8742 29.221 24.7717 29.2027 24.6658 29.191C24.395 29.161 24.1225 29.1427 23.8491 29.1427H20.599C20.1798 29.1435 19.7465 29.1094 19.309 29.041ZM4.16681 47.5008H1.66672V24.1434H4.16681V25.0276V46.6683V47.5008ZM48.0616 31.9903L35.4087 41.8431L35.3445 41.8989C34.7862 42.4331 34.142 42.7648 33.3994 42.8723C33.0961 42.9398 32.7936 42.974 32.5011 42.974L21.5132 44.6349C19.914 44.8782 18.2831 45.0015 16.6672 45.0015H5.83353V26.6684C7.68109 26.7068 12.2554 27.0051 14.8205 28.9385C15.9339 29.7785 17.2681 30.3486 18.6915 30.6219L18.704 30.6294L18.8623 30.6569C18.8706 30.6586 18.8781 30.6586 18.8865 30.6602C19.1598 30.7069 19.4365 30.7444 19.7157 30.7686C19.7248 30.7694 19.734 30.7711 19.7423 30.7719C20.0257 30.7961 20.3107 30.8102 20.5982 30.8102H23.8483C24.3066 30.8102 24.765 30.8644 25.21 30.9711L25.2633 30.9844C26.5742 31.3094 27.7134 32.0803 28.4526 33.1828C28.8035 33.7053 28.9418 34.1395 28.8243 34.3437C28.6018 34.7287 27.5693 34.9654 26.5217 35.0112C26.1809 35.0054 25.87 35.0012 25.5975 35.0012H17.5006C14.8913 35.0012 13.3338 36.2471 13.3338 38.3347C13.3338 38.7947 13.7063 39.168 14.1671 39.168C14.628 39.168 15.0005 38.7947 15.0005 38.3347C15.0005 37.9221 15.0005 36.6679 17.5006 36.6679H25.5792C25.7684 36.6796 26.1317 36.6954 26.5892 36.6788C26.7326 36.6813 26.8809 36.6838 27.0326 36.6863C30.9435 36.7588 34.6112 36.7388 36.5396 35.7121L43.7215 31.3203C47.1582 29.5144 47.5041 29.9986 48.1941 30.9602C48.4249 31.2803 48.3658 31.7311 48.0616 31.9903Z" fill="#8757E8"/>
<path d="M26.6674 24.1667C26.6674 21.8691 24.7982 19.9999 22.5006 19.9999C20.2031 19.9999 18.3338 21.8691 18.3338 24.1667C18.3338 26.4643 20.2031 28.3335 22.5006 28.3335C24.7982 28.3335 26.6674 26.4643 26.6674 24.1667ZM22.5006 26.6668C21.1223 26.6668 20.0006 25.5451 20.0006 24.1667C20.0006 22.7883 21.1223 21.6666 22.5006 21.6666C23.879 21.6666 25.0007 22.7883 25.0007 24.1667C25.0007 25.5451 23.879 26.6668 22.5006 26.6668Z" fill="#8757E8"/>
<path d="M35.0012 15.8331C39.1372 15.8331 42.5015 12.468 42.5015 8.33283C42.5015 4.19769 39.1372 0.832581 35.0012 0.832581C30.8652 0.832581 27.5009 4.19769 27.5009 8.33283C27.5009 12.468 30.8652 15.8331 35.0012 15.8331ZM35.0012 2.4993C38.2171 2.4993 40.8347 5.11606 40.8347 8.33283C40.8347 11.5496 38.2171 14.1664 35.0012 14.1664C31.7853 14.1664 29.1677 11.5496 29.1677 8.33283C29.1677 5.11606 31.7853 2.4993 35.0012 2.4993Z" fill="#8757E8"/>
<path d="M35.0012 12.4996C37.2987 12.4996 39.168 10.6304 39.168 8.33282C39.168 6.03524 37.2987 4.16602 35.0012 4.16602C32.7036 4.16602 30.8344 6.03524 30.8344 8.33282C30.8344 10.6304 32.7036 12.4996 35.0012 12.4996ZM35.0012 5.83274C36.3795 5.83274 37.5012 6.95444 37.5012 8.33282C37.5012 9.7112 36.3795 10.8329 35.0012 10.8329C33.6228 10.8329 32.5011 9.7112 32.5011 8.33282C32.5011 6.95444 33.6228 5.83274 35.0012 5.83274Z" fill="#8757E8"/>
</g>
<defs>
<clipPath id="clip0_2320_1981">
<rect width="50" height="50" fill="white"/>
</clipPath>
</defs>
</svg>
