<svg width="50" height="50" viewBox="0 0 50 50" fill="none" xmlns="http://www.w3.org/2000/svg">
<g clip-path="url(#clip0_2320_1956)">
<path d="M30 17.5H20V22.5H30V17.5ZM28.3333 20.8333H21.6666V19.1667H28.3333V20.8333Z" fill="#8757E8"/>
<path d="M9.16654 22.5C9.62678 22.5 9.99987 22.1269 9.99987 21.6666C9.99987 21.2064 9.62678 20.8333 9.16654 20.8333C8.7063 20.8333 8.33321 21.2064 8.33321 21.6666C8.33321 22.1269 8.7063 22.5 9.16654 22.5Z" fill="#8757E8"/>
<path d="M9.16654 34.9999C9.62678 34.9999 9.99987 34.6268 9.99987 34.1666C9.99987 33.7063 9.62678 33.3333 9.16654 33.3333C8.7063 33.3333 8.33321 33.7063 8.33321 34.1666C8.33321 34.6268 8.7063 34.9999 9.16654 34.9999Z" fill="#8757E8"/>
<path d="M40.8333 22.5C41.2936 22.5 41.6667 22.1269 41.6667 21.6666C41.6667 21.2064 41.2936 20.8333 40.8333 20.8333C40.3731 20.8333 40 21.2064 40 21.6666C40 22.1269 40.3731 22.5 40.8333 22.5Z" fill="#8757E8"/>
<path d="M40.8333 34.9999C41.2936 34.9999 41.6667 34.6268 41.6667 34.1666C41.6667 33.7063 41.2936 33.3333 40.8333 33.3333C40.3731 33.3333 40 33.7063 40 34.1666C40 34.6268 40.3731 34.9999 40.8333 34.9999Z" fill="#8757E8"/>
<path d="M47.6667 11.1666C46.6642 10.4141 45.4208 9.99998 44.1666 9.99998V9.84914C44.1666 8.55415 43.1125 7.49998 41.8175 7.49998H39.85C38.5541 7.49998 37.5 8.55415 37.5 9.84914V9.99998H36.6666V7.49998H35V6.57415C35 3.40831 32.425 0.833313 29.2592 0.833313H20.7408C17.575 0.833313 15 3.40831 15 6.57415V7.49998H13.3333V9.99998H12.5V9.84914C12.5 8.55415 11.4458 7.49998 10.1508 7.49998H8.18248C6.88748 7.49998 5.83332 8.55415 5.83332 9.84914V9.99998C4.57915 9.99998 3.33582 10.4141 2.33332 11.1666C0.872485 12.2625 -1.52588e-05 14.0075 -1.52588e-05 15.8333V41.6666V42.5V44.6483C-1.52588e-05 47.1391 2.02665 49.1666 4.51832 49.1666H6.66665H7.49998H42.5H43.3333H45.4817C47.9733 49.1666 50 47.1391 50 44.6483V42.5V41.6666V15.8333C50 14.0075 49.1275 12.2625 47.6667 11.1666ZM46.6666 12.5C47.71 13.2825 48.3333 14.5291 48.3333 15.8333V28.3333H45.8333V25.8333H44.1666V11.6666C45.0625 11.6666 45.9508 11.9625 46.6666 12.5ZM39.1666 32.5H42.5V35C42.5 35.9191 41.7525 36.6666 40.8333 36.6666C39.9142 36.6666 39.1666 35.9191 39.1666 35V32.5ZM43.3333 30.8333H38.3333H37.5V27.5H38.3333H40V28.3333C40 28.7941 40.3733 29.1666 40.8333 29.1666C41.2933 29.1666 41.6666 28.7941 41.6666 28.3333V27.5H43.3333H44.1666V30.8333H43.3333ZM39.1666 9.84914C39.1666 9.47248 39.4733 9.16665 39.8492 9.16665H41.8167C42.1933 9.16665 42.5 9.47248 42.5 9.84914V10.8333V25.8333H41.6666V25C41.6666 24.5391 41.2933 24.1666 40.8333 24.1666C40.3733 24.1666 40 24.5391 40 25V25.8333H39.1666V10.8333V9.84914ZM35 9.99998H30V9.16665H35V9.99998ZM30 7.49998H28.3333V9.99998H21.6667V7.49998H20V6.20331C20 5.97748 20.1458 5.85581 20.2083 5.81331C20.2708 5.77081 20.4375 5.68498 20.6483 5.76915C23.455 6.93081 26.5466 6.93081 29.3525 5.76915C29.5617 5.68415 29.7292 5.77081 29.7925 5.81331C29.8542 5.85581 30 5.97748 30 6.20331V7.49998ZM16.6667 6.57415C16.6667 4.32748 18.4942 2.49998 20.7408 2.49998H29.26C31.5058 2.49998 33.3333 4.32748 33.3333 6.57415V7.49998H31.6667V6.20331C31.6667 5.48915 31.3125 4.82581 30.7183 4.42831C30.125 4.02998 29.3758 3.95665 28.7158 4.22998C26.3192 5.21998 23.68 5.21998 21.2842 4.22998C20.6242 3.95665 19.8758 4.03081 19.2817 4.42831C18.6875 4.82581 18.3333 5.48915 18.3333 6.20331V7.49998H16.6667V6.57415ZM15 9.16665H20V9.99998H15V9.16665ZM13.3333 11.6666H21.6667H28.3333H36.6666H37.5V25.8333H35.8333V28.3333H14.1667V25.8333H12.5V11.6666H13.3333ZM7.49998 32.5H10.8333V35C10.8333 35.9191 10.0858 36.6666 9.16665 36.6666C8.24748 36.6666 7.49998 35.9191 7.49998 35V32.5ZM11.6667 30.8333H6.66665H5.83332V27.5H6.66665H8.33332V28.3333C8.33332 28.7941 8.70665 29.1666 9.16665 29.1666C9.62665 29.1666 9.99998 28.7941 9.99998 28.3333V27.5H11.6667H12.5V30.8333H11.6667ZM7.49998 9.84914C7.49998 9.47248 7.80665 9.16665 8.18248 9.16665H10.15C10.5267 9.16665 10.8333 9.47248 10.8333 9.84914V10.8333V25.8333H9.99998V25C9.99998 24.5391 9.62665 24.1666 9.16665 24.1666C8.70665 24.1666 8.33332 24.5391 8.33332 25V25.8333H7.49998V10.8333V9.84914ZM3.33332 12.5C4.04915 11.9625 4.93748 11.6666 5.83332 11.6666V25.8333H4.16665V28.3333H1.66665V15.8333C1.66665 14.5291 2.28998 13.2825 3.33332 12.5ZM1.66665 44.6483V43.3333H2.82332C4.48248 43.3333 5.83332 44.6833 5.83332 46.3433V47.5H4.51832C2.94582 47.5 1.66665 46.2208 1.66665 44.6483ZM2.82332 41.6666H1.66665V30H4.16665V32.5H5.83332V35C5.83332 36.8383 7.32832 38.3333 9.16665 38.3333C11.005 38.3333 12.5 36.8383 12.5 35V32.5H14.1667V30H24.1667V47.5H7.49998V46.3433C7.49998 43.765 5.40165 41.6666 2.82332 41.6666ZM48.3333 44.6483C48.3333 46.2208 47.0541 47.5 45.4817 47.5H44.1666V46.3433C44.1666 44.6833 45.5175 43.3333 47.1767 43.3333H48.3333V44.6483ZM47.1767 41.6666C44.5983 41.6666 42.5 43.765 42.5 46.3433V47.5H25.8333V30H35.8333V32.5H37.5V35C37.5 36.8383 38.995 38.3333 40.8333 38.3333C42.6716 38.3333 44.1666 36.8383 44.1666 35V32.5H45.8333V30H48.3333V41.6666H47.1767Z" fill="#8757E8"/>
</g>
<defs>
<clipPath id="clip0_2320_1956">
<rect width="50" height="50" fill="white"/>
</clipPath>
</defs>
</svg>
