<svg width="50" height="50" viewBox="0 0 50 50" fill="none" xmlns="http://www.w3.org/2000/svg">
<g clip-path="url(#clip0_2320_1948)">
<path d="M43.3388 6.65307C31.1718 6.65307 25.7168 0.373684 25.6393 0.282823C25.3225 -0.0964573 24.6765 -0.0956237 24.3597 0.283657C24.3064 0.347009 18.9106 6.65223 6.6611 6.65223C6.20096 6.65223 5.82751 7.02568 5.82751 7.48582V23.3948C5.82751 32.0915 9.73702 40.3565 16.2857 45.5022C18.9256 47.577 21.7773 49.0783 24.7624 49.9636C24.8399 49.9869 24.9199 49.9986 24.9999 49.9986C25.08 49.9986 25.1591 49.9869 25.2375 49.9636C28.2226 49.0775 31.0743 47.577 33.7142 45.5022C40.2628 40.3557 44.1724 32.0915 44.1724 23.3948V7.48665C44.1724 7.02651 43.7989 6.65307 43.3388 6.65307ZM42.5052 23.3956C42.5052 31.5847 38.8341 39.3595 32.6839 44.1927C30.2807 46.0816 27.6966 47.4603 24.9999 48.2947C22.3033 47.4611 19.7192 46.0816 17.316 44.1927C11.1658 39.3604 7.49468 31.5847 7.49468 23.3956V8.31106C17.6994 8.08433 23.2202 3.72886 24.9999 2.02168C26.7796 3.72969 32.3005 8.08433 42.5052 8.31106V23.3956Z" fill="#8757E8"/>
<path d="M24.5315 6.65699C22.0182 8.365 17.7269 10.5657 11.5576 11.3526C11.1408 11.4059 10.829 11.7602 10.829 12.1795V23.397C10.829 30.5717 14.0242 37.3662 19.3766 41.5725C21.0621 42.897 22.8518 43.9357 24.6957 44.6592C24.7941 44.6976 24.8966 44.7167 25 44.7167C25.1033 44.7167 25.2067 44.6976 25.3042 44.6592C27.1464 43.9365 28.937 42.8979 30.6241 41.5725C35.9757 37.3662 39.1709 30.5717 39.1709 23.397V12.1795C39.1709 11.7602 38.8591 11.4059 38.4423 11.3526C32.273 10.5657 27.9817 8.365 25.4684 6.65699C25.1858 6.46443 24.8141 6.46443 24.5315 6.65699ZM37.5037 12.9055V23.3962C37.5037 30.064 34.547 36.3684 29.5938 40.2604C28.1284 41.4116 26.5846 42.3269 25 42.9829C23.4153 42.326 21.8715 41.4116 20.4069 40.2604C15.4538 36.3676 12.4962 30.0632 12.4962 23.3953V12.9055C18.2471 12.0544 22.395 10.033 25 8.34583C27.6049 10.033 31.7528 12.0544 37.5037 12.9055Z" fill="#8757E8"/>
<path d="M17.2535 24.4032C16.9276 24.0772 16.4007 24.0772 16.0748 24.4032C15.7489 24.7291 15.7489 25.2559 16.0748 25.5819L22.7435 32.2505C22.9002 32.4072 23.1119 32.4948 23.3328 32.4948C23.342 32.4948 23.3512 32.4948 23.3603 32.4948C23.5912 32.4873 23.808 32.3839 23.9597 32.2105L35.6298 18.8732C35.9333 18.5264 35.8983 18.0004 35.5515 17.697C35.2047 17.3936 34.6787 17.4294 34.3753 17.7754L23.292 30.4417L17.2535 24.4032Z" fill="#8757E8"/>
</g>
<defs>
<clipPath id="clip0_2320_1948">
<rect width="50" height="50" fill="white"/>
</clipPath>
</defs>
</svg>
