<svg width="14" height="14" viewBox="0 0 14 14" fill="none" xmlns="http://www.w3.org/2000/svg">
<path opacity="0.9" d="M2.68008 12.6683L1.62606 10.7255L0 9.16817L0.351476 7L0 4.83186L1.62606 3.27456L1.93872 2.73231L2.68008 1.33178L4.95042 0.980726L7 0L9.04961 0.980726L11.32 1.33178L12.374 3.27456L14 4.83186L13.6486 7L14 9.16817L12.374 10.7255L11.32 12.6683L9.04961 13.0193L7 14L4.95042 13.0193L2.68008 12.6683Z" fill="#99D27D"/>
<path d="M6.74686 8.5715C6.48391 8.81555 6.07725 8.81555 5.8143 8.5715L4.50781 7.35895C4.29906 7.16521 4.29906 6.83487 4.50781 6.64113C4.69566 6.46679 4.98616 6.46679 5.17401 6.64113L5.96972 7.37963C6.14503 7.54233 6.41613 7.54233 6.59143 7.37963L8.82678 5.305C9.01463 5.13066 9.30513 5.13066 9.49298 5.305C9.70173 5.49875 9.70173 5.82908 9.49298 6.02282L6.74686 8.5715Z" fill="white"/>
</svg>
