<svg width="307" height="49" viewBox="0 0 307 49" fill="none" xmlns="http://www.w3.org/2000/svg">
<path d="M0.656677 36.6241H5.10272C5.4727 36.6241 5.79748 36.659 6.07702 36.729C6.36068 36.7988 6.60529 36.8934 6.81083 37.0126C7.01638 37.1318 7.18905 37.2696 7.32882 37.4258C7.46859 37.582 7.57959 37.7464 7.66181 37.919C7.74403 38.0876 7.80158 38.2603 7.83447 38.4371C7.87147 38.6138 7.88997 38.7824 7.88997 38.9427C7.88997 39.1729 7.86942 39.3805 7.82831 39.5655C7.78719 39.7464 7.72142 39.9129 7.63098 40.065C7.54464 40.213 7.42954 40.3487 7.28565 40.472C7.14588 40.5912 6.97733 40.7002 6.78 40.7988C7.08421 40.914 7.32882 41.0558 7.51381 41.2243C7.69881 41.3928 7.84063 41.5758 7.9393 41.7731C8.03796 41.9664 8.10374 42.1678 8.13663 42.3774C8.16951 42.583 8.18596 42.7824 8.18596 42.9756C8.18596 43.4154 8.1058 43.804 7.94547 44.141C7.78514 44.4782 7.55904 44.7618 7.26715 44.9921C6.97527 45.2181 6.61968 45.3908 6.20035 45.51C5.78514 45.6292 5.32266 45.6889 4.81289 45.6889H0.656677V36.6241ZM2.4758 44.1226H4.83756C5.04722 44.1226 5.24044 44.0979 5.41721 44.0485C5.59398 43.9992 5.74609 43.9253 5.87353 43.8265C6.00508 43.7238 6.1058 43.5964 6.17569 43.4442C6.24969 43.288 6.28669 43.1051 6.28669 42.8954C6.28669 42.6323 6.24352 42.4227 6.15719 42.2665C6.07086 42.1061 5.95575 41.9828 5.81187 41.8965C5.67209 41.8101 5.51176 41.7546 5.33088 41.73C5.15411 41.7012 4.97322 41.6868 4.78823 41.6868H2.4758V44.1226ZM2.4758 40.1945H4.81289C4.97733 40.1945 5.13561 40.176 5.28771 40.139C5.43981 40.102 5.57343 40.0424 5.68853 39.9602C5.80776 39.8739 5.90231 39.7649 5.97219 39.6334C6.04208 39.5018 6.07702 39.3435 6.07702 39.1585C6.07702 38.9653 6.04413 38.8071 5.97836 38.6837C5.91669 38.5563 5.83037 38.4555 5.71937 38.3815C5.60837 38.3076 5.47888 38.2562 5.33088 38.2274C5.18288 38.1986 5.02667 38.1842 4.86223 38.1842H2.4758V40.1945ZM13.5199 41.3415C13.4871 41.1647 13.4418 41.0105 13.3843 40.879C13.3267 40.7434 13.2507 40.6303 13.1561 40.5398C13.0657 40.4453 12.9527 40.3753 12.817 40.3302C12.6855 40.2809 12.5251 40.2562 12.336 40.2562C12.0442 40.2562 11.8098 40.324 11.633 40.4597C11.4604 40.5953 11.3267 40.7659 11.2322 40.9715C11.1377 41.1771 11.0739 41.4011 11.0411 41.6436C11.0123 41.8862 10.9979 42.1143 10.9979 42.3281C10.9979 42.5501 11.0102 42.7844 11.0348 43.0311C11.0595 43.2736 11.1171 43.4977 11.2075 43.7033C11.298 43.9047 11.4316 44.0712 11.6084 44.2028C11.7851 44.3343 12.0277 44.4001 12.336 44.4001C12.5374 44.4001 12.7122 44.361 12.8602 44.2828C13.0081 44.2007 13.1315 44.0999 13.2301 43.9807C13.3288 43.8615 13.4007 43.734 13.446 43.5984C13.4953 43.4628 13.5199 43.3394 13.5199 43.2284H15.3391C15.3391 43.3394 15.3186 43.4833 15.2774 43.6601C15.2405 43.8368 15.1767 44.0239 15.0862 44.2212C14.9958 44.4185 14.8745 44.6179 14.7224 44.8194C14.5744 45.0167 14.3873 45.1955 14.1613 45.3559C13.9393 45.5121 13.6782 45.6395 13.3781 45.7382C13.078 45.8409 12.7306 45.8923 12.336 45.8923C11.8221 45.8923 11.3679 45.8142 10.9732 45.658C10.5827 45.5018 10.2538 45.2736 9.98657 44.9735C9.72347 44.6693 9.522 44.2953 9.38226 43.8512C9.24657 43.4072 9.17873 42.8996 9.17873 42.3281C9.17873 41.7566 9.25278 41.251 9.4008 40.8111C9.55287 40.3672 9.76666 39.9951 10.0421 39.695C10.3175 39.3908 10.6485 39.1606 11.0348 39.0044C11.4255 38.8482 11.8592 38.7701 12.336 38.7701C12.5416 38.7701 12.7533 38.7865 12.9711 38.8194C13.1931 38.8522 13.4111 38.9098 13.6248 38.9921C13.8386 39.0702 14.0421 39.1729 14.2353 39.3003C14.4326 39.4278 14.6073 39.5881 14.7594 39.7814C14.9156 39.9704 15.0431 40.1945 15.1417 40.4535C15.2445 40.7084 15.3103 41.0044 15.3391 41.3415H13.5199ZM17.8611 42.8708C17.8611 42.9324 17.8674 43.0147 17.8797 43.1174C17.892 43.2202 17.9167 43.3312 17.9536 43.4504C17.9907 43.5697 18.0441 43.6909 18.114 43.8142C18.1839 43.9334 18.2764 44.0424 18.3915 44.141C18.5107 44.2397 18.6546 44.3199 18.8231 44.3815C18.9958 44.4432 19.2014 44.474 19.4398 44.474C19.5631 44.474 19.6844 44.4576 19.8036 44.4247C19.9269 44.3877 20.04 44.3363 20.1428 44.2705C20.2455 44.2007 20.3339 44.1184 20.408 44.0239C20.4861 43.9253 20.5416 43.8142 20.5744 43.6909H22.3812C22.3812 43.8142 22.3545 43.956 22.3011 44.1164C22.2476 44.2726 22.1654 44.4329 22.0544 44.5974C21.9475 44.7577 21.8118 44.9159 21.6474 45.0721C21.483 45.2284 21.2877 45.3682 21.0616 45.4915C20.8355 45.6108 20.5786 45.7073 20.2908 45.7814C20.0071 45.8553 19.6905 45.8923 19.3411 45.8923C18.893 45.8923 18.4717 45.8245 18.077 45.6889C17.6865 45.5573 17.3432 45.3477 17.0472 45.0598C16.7553 44.768 16.5251 44.3918 16.3566 43.9314C16.188 43.4709 16.1037 42.9119 16.1037 42.2541C16.1037 41.7978 16.1633 41.36 16.2825 40.9407C16.4059 40.5172 16.595 40.1452 16.8498 39.8245C17.1089 39.5039 17.4378 39.249 17.8365 39.0598C18.2394 38.8666 18.7224 38.7701 19.2856 38.7701C19.8817 38.7701 20.3833 38.8687 20.7903 39.066C21.1973 39.2592 21.5241 39.5347 21.7707 39.8923C22.0215 40.25 22.2004 40.6816 22.3072 41.1873C22.4141 41.6929 22.4675 42.2541 22.4675 42.8708H17.8611ZM20.6546 41.7115C20.6546 41.4154 20.6093 41.1688 20.5189 40.9715C20.4326 40.7741 20.3216 40.6179 20.186 40.5028C20.0544 40.3836 19.9085 40.3014 19.7481 40.2562C19.5878 40.2068 19.4336 40.1822 19.2856 40.1822C19.1417 40.1822 18.9897 40.2068 18.8293 40.2562C18.669 40.3014 18.521 40.3836 18.3854 40.5028C18.2538 40.6179 18.1428 40.7741 18.0523 40.9715C17.966 41.1688 17.9229 41.4154 17.9229 41.7115H20.6546ZM23.5898 38.9674H25.2548V39.9293H25.2794C25.3986 39.7279 25.5241 39.5553 25.6556 39.4114C25.7872 39.2634 25.9331 39.1421 26.0935 39.0475C26.2537 38.953 26.4305 38.8831 26.6237 38.8378C26.8211 38.7927 27.043 38.7701 27.2898 38.7701C27.4953 38.7701 27.707 38.7947 27.9249 38.844C28.1428 38.8934 28.3545 38.9735 28.56 39.0846C28.7697 39.1914 28.967 39.3333 29.152 39.51C29.337 39.6827 29.4994 39.8965 29.6392 40.1514C29.7789 40.4062 29.8899 40.7042 29.9722 41.0455C30.0543 41.3826 30.0955 41.769 30.0955 42.2047C30.0955 42.7474 30.0359 43.2448 29.9167 43.6971C29.8016 44.1493 29.6248 44.5378 29.3863 44.8625C29.152 45.1873 28.854 45.4401 28.4922 45.621C28.1345 45.8019 27.7131 45.8923 27.228 45.8923C27.0595 45.8923 26.8889 45.8759 26.7162 45.843C26.5436 45.8101 26.375 45.7546 26.2106 45.6765C26.0461 45.5984 25.8899 45.4935 25.7419 45.362C25.598 45.2264 25.4706 45.0578 25.3596 44.8564H25.3349V48.2911H23.5898V38.9674ZM26.7717 40.3363C26.4922 40.3363 26.2558 40.3959 26.0626 40.5152C25.8735 40.6344 25.7193 40.7885 25.6001 40.9777C25.485 41.1667 25.4007 41.3805 25.3473 41.619C25.2938 41.8574 25.2671 42.0938 25.2671 42.3281C25.2671 42.4555 25.2733 42.5953 25.2856 42.7474C25.3021 42.8954 25.3309 43.0475 25.3719 43.2037C25.413 43.3559 25.4686 43.5039 25.5385 43.6478C25.6124 43.7916 25.7049 43.919 25.816 44.0301C25.9269 44.141 26.0605 44.2315 26.2167 44.3014C26.373 44.3671 26.558 44.4001 26.7717 44.4001C26.9855 44.4001 27.1705 44.3671 27.3267 44.3014C27.483 44.2315 27.6166 44.141 27.7275 44.0301C27.8386 43.919 27.929 43.7916 27.9989 43.6478C28.0729 43.5039 28.1305 43.3559 28.1716 43.2037C28.2126 43.0475 28.2393 42.8954 28.2517 42.7474C28.2681 42.5953 28.2764 42.4555 28.2764 42.3281C28.2764 42.0938 28.2497 41.8574 28.1962 41.619C28.1428 41.3805 28.0564 41.1667 27.9372 40.9777C27.8221 40.7885 27.668 40.6344 27.4748 40.5152C27.2815 40.3959 27.0472 40.3363 26.7717 40.3363ZM30.9588 42.3281C30.9588 41.8101 31.0369 41.3333 31.1931 40.8975C31.3535 40.4617 31.5816 40.0876 31.8776 39.7752C32.1777 39.4586 32.5395 39.212 32.9629 39.0352C33.3863 38.8584 33.8632 38.7701 34.3936 38.7701C34.9321 38.7701 35.413 38.8584 35.8365 39.0352C36.264 39.212 36.6237 39.4586 36.9156 39.7752C37.2116 40.0876 37.4377 40.4617 37.5939 40.8975C37.7501 41.3333 37.8283 41.8101 37.8283 42.3281C37.8283 42.8461 37.7501 43.3229 37.5939 43.7587C37.4377 44.1945 37.2116 44.5707 36.9156 44.8872C36.6237 45.2037 36.264 45.4504 35.8365 45.6272C35.413 45.804 34.9321 45.8923 34.3936 45.8923C33.8632 45.8923 33.3863 45.804 32.9629 45.6272C32.5395 45.4504 32.1777 45.2037 31.8776 44.8872C31.5816 44.5707 31.3535 44.1945 31.1931 43.7587C31.0369 43.3229 30.9588 42.8461 30.9588 42.3281ZM32.7779 42.3281C32.7779 42.583 32.8046 42.8358 32.858 43.0865C32.9156 43.3333 33.0081 43.5553 33.1355 43.7526C33.263 43.9458 33.4295 44.102 33.635 44.2212C33.8406 44.3404 34.0934 44.4001 34.3936 44.4001C34.706 44.4001 34.9649 44.3425 35.1705 44.2274C35.3802 44.1082 35.5467 43.954 35.67 43.7649C35.7933 43.5717 35.8797 43.3517 35.929 43.1051C35.9824 42.8543 36.0092 42.5953 36.0092 42.3281C36.0092 42.065 35.9824 41.8081 35.929 41.5573C35.8797 41.3065 35.7933 41.0865 35.67 40.8975C35.5467 40.7042 35.3802 40.5501 35.1705 40.435C34.9649 40.3158 34.706 40.2562 34.3936 40.2562C34.0934 40.2562 33.8406 40.3158 33.635 40.435C33.4295 40.5542 33.263 40.7125 33.1355 40.9098C33.0081 41.103 32.9156 41.325 32.858 41.5758C32.8046 41.8224 32.7779 42.0732 32.7779 42.3281ZM43.0328 41.3415C42.9998 41.1647 42.9547 41.0105 42.8971 40.879C42.8396 40.7434 42.7635 40.6303 42.669 40.5398C42.5785 40.4453 42.4655 40.3753 42.3298 40.3302C42.1982 40.2809 42.038 40.2562 41.8488 40.2562C41.5569 40.2562 41.3226 40.324 41.1458 40.4597C40.9731 40.5953 40.8396 40.7659 40.745 40.9715C40.6505 41.1771 40.5867 41.4011 40.5538 41.6436C40.5251 41.8862 40.5107 42.1143 40.5107 42.3281C40.5107 42.5501 40.523 42.7844 40.5477 43.0311C40.5723 43.2736 40.6299 43.4977 40.7204 43.7033C40.8108 43.9047 40.9444 44.0712 41.1211 44.2028C41.298 44.3343 41.5405 44.4001 41.8488 44.4001C42.0503 44.4001 42.2249 44.361 42.373 44.2828C42.521 44.2007 42.6442 44.0999 42.743 43.9807C42.8416 43.8615 42.9136 43.734 42.9588 43.5984C43.0081 43.4628 43.0328 43.3394 43.0328 43.2284H44.8519C44.8519 43.3394 44.8313 43.4833 44.7902 43.6601C44.7532 43.8368 44.6895 44.0239 44.5991 44.2212C44.5086 44.4185 44.3873 44.6179 44.2352 44.8194C44.0873 45.0167 43.9002 45.1955 43.6741 45.3559C43.4521 45.5121 43.1911 45.6395 42.891 45.7382C42.5908 45.8409 42.2435 45.8923 41.8488 45.8923C41.3349 45.8923 40.8806 45.8142 40.486 45.658C40.0955 45.5018 39.7666 45.2736 39.4994 44.9735C39.2363 44.6693 39.0348 44.2953 38.895 43.8512C38.7594 43.4072 38.6916 42.8996 38.6916 42.3281C38.6916 41.7566 38.7655 41.251 38.9136 40.8111C39.0656 40.3672 39.2794 39.9951 39.5548 39.695C39.8303 39.3908 40.1612 39.1606 40.5477 39.0044C40.9382 38.8482 41.3719 38.7701 41.8488 38.7701C42.0543 38.7701 42.2661 38.7865 42.484 38.8194C42.706 38.8522 42.9238 38.9098 43.1376 38.9921C43.3514 39.0702 43.5548 39.1729 43.7481 39.3003C43.9455 39.4278 44.1201 39.5881 44.2723 39.7814C44.4285 39.9704 44.5559 40.1945 44.6546 40.4535C44.7573 40.7084 44.8231 41.0044 44.8519 41.3415H43.0328ZM50.0626 41.3415C50.0297 41.1647 49.9844 41.0105 49.9269 40.879C49.8693 40.7434 49.7933 40.6303 49.6987 40.5398C49.6083 40.4453 49.4953 40.3753 49.3596 40.3302C49.228 40.2809 49.0677 40.2562 48.8786 40.2562C48.5867 40.2562 48.3524 40.324 48.1756 40.4597C48.003 40.5953 47.8693 40.7659 47.7748 40.9715C47.6803 41.1771 47.6165 41.4011 47.5836 41.6436C47.5548 41.8862 47.5405 42.1143 47.5405 42.3281C47.5405 42.5501 47.5528 42.7844 47.5774 43.0311C47.6022 43.2736 47.6597 43.4977 47.7501 43.7033C47.8405 43.9047 47.9742 44.0712 48.151 44.2028C48.3277 44.3343 48.5703 44.4001 48.8786 44.4001C49.08 44.4001 49.2548 44.361 49.4028 44.2828C49.5507 44.2007 49.6741 44.0999 49.7728 43.9807C49.8714 43.8615 49.9434 43.734 49.9886 43.5984C50.0379 43.4628 50.0626 43.3394 50.0626 43.2284H51.8817C51.8817 43.3394 51.8611 43.4833 51.82 43.6601C51.783 43.8368 51.7193 44.0239 51.6288 44.2212C51.5384 44.4185 51.4172 44.6179 51.265 44.8194C51.117 45.0167 50.93 45.1955 50.7039 45.3559C50.4819 45.5121 50.2209 45.6395 49.9207 45.7382C49.6206 45.8409 49.2733 45.8923 48.8786 45.8923C48.3648 45.8923 47.9105 45.8142 47.5158 45.658C47.1253 45.5018 46.7964 45.2736 46.5292 44.9735C46.2661 44.6693 46.0646 44.2953 45.9248 43.8512C45.7892 43.4072 45.7214 42.8996 45.7214 42.3281C45.7214 41.7566 45.7954 41.251 45.9434 40.8111C46.0955 40.3672 46.3092 39.9951 46.5847 39.695C46.8601 39.3908 47.1911 39.1606 47.5774 39.0044C47.968 38.8482 48.4017 38.7701 48.8786 38.7701C49.0842 38.7701 49.2959 38.7865 49.5137 38.8194C49.7357 38.8522 49.9536 38.9098 50.1674 38.9921C50.3811 39.0702 50.5847 39.1729 50.7779 39.3003C50.9752 39.4278 51.1499 39.5881 51.302 39.7814C51.4582 39.9704 51.5857 40.1945 51.6843 40.4535C51.7871 40.7084 51.8529 41.0044 51.8817 41.3415H50.0626ZM53.152 38.9674H54.8971V43.1113H54.9217L57.3698 38.9674H59.2013V45.6889H57.4623V41.6375H57.4315L55.0574 45.6889H53.152V38.9674ZM66.0091 36.1554C66.0091 36.4803 65.9556 36.7577 65.8487 36.9879C65.7419 37.2181 65.5939 37.4072 65.4048 37.5553C65.2198 37.6991 64.9978 37.806 64.7388 37.8759C64.4798 37.9416 64.1982 37.9746 63.894 37.9746C63.5857 37.9746 63.302 37.9416 63.043 37.8759C62.784 37.806 62.5599 37.6991 62.3709 37.5553C62.1817 37.4072 62.0337 37.2181 61.9269 36.9879C61.8241 36.7577 61.7727 36.4803 61.7727 36.1554H63.0368C63.041 36.2706 63.0554 36.3795 63.08 36.4822C63.1047 36.5809 63.1479 36.6693 63.2095 36.7474C63.2753 36.8215 63.3617 36.881 63.4685 36.9263C63.5795 36.9674 63.7213 36.9879 63.894 36.9879C64.0625 36.9879 64.2024 36.9715 64.3133 36.9386C64.4284 36.9016 64.5189 36.8482 64.5847 36.7783C64.6505 36.7084 64.6956 36.6221 64.7203 36.5193C64.7449 36.4165 64.7553 36.2953 64.7511 36.1554H66.0091ZM60.8724 38.9674H62.6175V43.1113H62.6422L65.0903 38.9674H66.9217V45.6889H65.1828V41.6375H65.1519L62.7779 45.6889H60.8724V38.9674ZM72.5332 41.3415C72.5004 41.1647 72.4551 41.0105 72.3976 40.879C72.34 40.7434 72.264 40.6303 72.1694 40.5398C72.079 40.4453 71.966 40.3753 71.8303 40.3302C71.6987 40.2809 71.5384 40.2562 71.3492 40.2562C71.0574 40.2562 70.823 40.324 70.6463 40.4597C70.4736 40.5953 70.34 40.7659 70.2454 40.9715C70.151 41.1771 70.0872 41.4011 70.0543 41.6436C70.0255 41.8862 70.0111 42.1143 70.0111 42.3281C70.0111 42.5501 70.0235 42.7844 70.0481 43.0311C70.0728 43.2736 70.1304 43.4977 70.2208 43.7033C70.3112 43.9047 70.4448 44.0712 70.6217 44.2028C70.7984 44.3343 71.041 44.4001 71.3492 44.4001C71.5507 44.4001 71.7255 44.361 71.8735 44.2828C72.0214 44.2007 72.1448 44.0999 72.2434 43.9807C72.3421 43.8615 72.414 43.734 72.4592 43.5984C72.5086 43.4628 72.5332 43.3394 72.5332 43.2284H74.3523C74.3523 43.3394 74.3318 43.4833 74.2907 43.6601C74.2537 43.8368 74.1899 44.0239 74.0995 44.2212C74.0091 44.4185 73.8878 44.6179 73.7357 44.8194C73.5877 45.0167 73.4006 45.1955 73.1746 45.3559C72.9526 45.5121 72.6915 45.6395 72.3914 45.7382C72.0913 45.8409 71.7439 45.8923 71.3492 45.8923C70.8354 45.8923 70.3811 45.8142 69.9865 45.658C69.596 45.5018 69.2671 45.2736 68.9998 44.9735C68.7367 44.6693 68.5353 44.2953 68.3955 43.8512C68.2598 43.4072 68.192 42.8996 68.192 42.3281C68.192 41.7566 68.2661 41.251 68.4141 40.8111C68.5661 40.3672 68.7799 39.9951 69.0554 39.695C69.3308 39.3908 69.6617 39.1606 70.0481 39.0044C70.4387 38.8482 70.8724 38.7701 71.3492 38.7701C71.5548 38.7701 71.7666 38.7865 71.9844 38.8194C72.2064 38.8522 72.4243 38.9098 72.638 38.9921C72.8518 39.0702 73.0554 39.1729 73.2486 39.3003C73.4459 39.4278 73.6206 39.5881 73.7727 39.7814C73.9289 39.9704 74.0564 40.1945 74.155 40.4535C74.2578 40.7084 74.3236 41.0044 74.3523 41.3415H72.5332ZM75.672 38.9674H77.4171V41.5203L79.933 38.9674H82.2517L79.4767 41.7608L82.3688 45.6889H80.0934L78.1201 42.8522L77.4171 43.5614V45.6889H75.672V38.9674ZM88.7759 44.363C88.7759 44.5645 88.7862 44.7309 88.8069 44.8625C88.8311 44.99 88.8621 45.0928 88.8992 45.1709C88.9362 45.2448 88.9776 45.3003 89.0224 45.3373C89.0716 45.3703 89.1233 45.3949 89.1767 45.4114V45.6889H87.2466C87.2138 45.6108 87.1767 45.5079 87.1354 45.3805C87.0983 45.249 87.0802 45.0907 87.0802 44.9057C86.944 45.0454 86.8104 45.175 86.6793 45.2942C86.5517 45.4134 86.4078 45.5183 86.2474 45.6087C86.0871 45.695 85.9026 45.7628 85.6925 45.8122C85.4829 45.8656 85.23 45.8923 84.9341 45.8923C84.6339 45.8923 84.3565 45.8472 84.1016 45.7566C83.8508 45.6703 83.633 45.5409 83.448 45.3682C83.263 45.1955 83.1191 44.9796 83.0162 44.7207C82.9135 44.4617 82.8621 44.1616 82.8621 43.8204C82.8621 43.545 82.9053 43.2901 82.9916 43.0558C83.0779 42.8173 83.1992 42.6097 83.3555 42.4329C83.5157 42.2521 83.709 42.104 83.9351 41.989C84.1653 41.8697 84.4223 41.7896 84.7059 41.7484L86.4138 41.4956C86.4759 41.4874 86.5414 41.4751 86.6112 41.4586C86.6854 41.4421 86.7535 41.4154 86.8147 41.3784C86.8767 41.3373 86.9276 41.2839 86.969 41.2181C87.0104 41.1483 87.0311 41.0558 87.0311 40.9407C87.0311 40.8296 87.0121 40.729 86.975 40.6384C86.9423 40.544 86.8845 40.4638 86.8026 40.398C86.7198 40.3281 86.6095 40.2747 86.4698 40.2377C86.3336 40.2007 86.163 40.1822 85.9578 40.1822C85.7234 40.1822 85.5342 40.2068 85.3904 40.2562C85.2506 40.3014 85.1396 40.3672 85.0573 40.4535C84.9752 40.5357 84.9155 40.6344 84.8786 40.7495C84.8416 40.8605 84.8148 40.9797 84.7984 41.1071H83.0533C83.0533 41.0249 83.0656 40.9119 83.0903 40.768C83.1191 40.62 83.1684 40.4596 83.2383 40.287C83.3123 40.1143 83.413 39.9397 83.5405 39.7628C83.672 39.586 83.8426 39.4258 84.0523 39.2819C84.266 39.1339 84.525 39.0126 84.8292 38.918C85.1335 38.8234 85.4973 38.7741 85.9207 38.7701C86.5207 38.7701 87.0061 38.8317 87.3759 38.955C87.75 39.0742 88.0397 39.2325 88.2457 39.4298C88.4552 39.6231 88.5948 39.8409 88.6647 40.0835C88.7388 40.322 88.7759 40.5603 88.7759 40.7988V44.363ZM87.0311 42.4083C86.9242 42.4659 86.8173 42.5193 86.7104 42.5686C86.6035 42.6138 86.4612 42.6528 86.2845 42.6858L85.822 42.7721C85.6205 42.809 85.4438 42.8522 85.2917 42.9015C85.1396 42.9509 85.0122 43.0167 84.9094 43.0989C84.8107 43.1771 84.7347 43.2736 84.6812 43.3887C84.6319 43.5039 84.6073 43.6478 84.6073 43.8204C84.6073 43.9643 84.6298 44.0897 84.675 44.1965C84.7203 44.2993 84.7819 44.3857 84.86 44.4555C84.9423 44.5213 85.0368 44.5707 85.1437 44.6035C85.2506 44.6365 85.3657 44.6528 85.489 44.6528C85.5548 44.6528 85.6391 44.6467 85.7418 44.6344C85.8448 44.6179 85.9535 44.5891 86.069 44.548C86.1836 44.5069 86.2992 44.4515 86.4138 44.3815C86.5293 44.3076 86.6319 44.213 86.7224 44.0979C86.813 43.9828 86.8871 43.843 86.944 43.6785C87.0017 43.51 87.0311 43.3127 87.0311 43.0865V42.4083ZM96.4345 45.6889H94.6836V43.2161H93.5423C93.2914 43.2161 93.0759 43.2264 92.8948 43.2469C92.7181 43.2634 92.5724 43.3065 92.4569 43.3764C92.3423 43.4422 92.2535 43.5409 92.1923 43.6724C92.1345 43.804 92.1017 43.9828 92.0931 44.2089L92.069 44.8564C92.0604 44.9509 92.0483 45.0742 92.0319 45.2264C92.019 45.3784 91.9802 45.5326 91.9147 45.6889H90.0707C90.1242 45.5984 90.1673 45.5121 90.2 45.4298C90.2328 45.3435 90.2578 45.2613 90.2742 45.1832C90.2948 45.1009 90.3095 45.0188 90.3173 44.9365C90.3293 44.8543 90.3397 44.768 90.3483 44.6775L90.4345 43.8697C90.4552 43.6889 90.4802 43.5326 90.5086 43.401C90.5371 43.2695 90.5845 43.1565 90.65 43.0619C90.7164 42.9633 90.8069 42.879 90.9216 42.809C91.0371 42.7392 91.1914 42.6755 91.3845 42.6179C91.3224 42.6015 91.2526 42.5789 91.1742 42.5501C91.1009 42.5172 91.0207 42.4761 90.9336 42.4268C90.8517 42.3734 90.7673 42.3076 90.6811 42.2295C90.5992 42.1472 90.5207 42.0465 90.4466 41.9273C90.3931 41.8491 90.35 41.767 90.3173 41.6806C90.2888 41.5902 90.2664 41.5039 90.2492 41.4216C90.2328 41.3353 90.2224 41.2552 90.219 41.1811C90.2147 41.1071 90.2129 41.0434 90.2129 40.99C90.2129 40.7515 90.2414 40.5398 90.2992 40.3548C90.3561 40.1657 90.4302 40.0013 90.5207 39.8615C90.6112 39.7217 90.7138 39.6025 90.8293 39.5039C90.944 39.4052 91.0612 39.325 91.1811 39.2634C91.3121 39.1894 91.4578 39.1339 91.6181 39.0969C91.7785 39.0558 91.9354 39.027 92.0871 39.0105C92.2397 38.99 92.3811 38.9777 92.5129 38.9735C92.644 38.9694 92.7466 38.9674 92.8207 38.9674H96.4345V45.6889ZM94.6836 40.2809H93.2776C93.1293 40.2809 92.9811 40.2849 92.8336 40.2932C92.6854 40.3014 92.5517 40.3343 92.4328 40.3918C92.3173 40.4453 92.2224 40.5316 92.1492 40.6509C92.0793 40.7659 92.044 40.9303 92.044 41.1441C92.044 41.3538 92.0793 41.5141 92.1492 41.6251C92.2224 41.7361 92.3155 41.8184 92.4267 41.8718C92.5414 41.9253 92.669 41.956 92.8086 41.9643C92.9483 41.9725 93.088 41.9766 93.2276 41.9766H94.6836V40.2809ZM105.548 41.3415C105.516 41.1647 105.471 41.0105 105.413 40.879C105.355 40.7434 105.279 40.6303 105.185 40.5398C105.094 40.4453 104.981 40.3753 104.846 40.3302C104.714 40.2809 104.553 40.2562 104.365 40.2562C104.072 40.2562 103.839 40.324 103.662 40.4597C103.489 40.5953 103.355 40.7659 103.261 40.9715C103.166 41.1771 103.103 41.4011 103.07 41.6436C103.041 41.8862 103.027 42.1143 103.027 42.3281C103.027 42.5501 103.039 42.7844 103.064 43.0311C103.088 43.2736 103.146 43.4977 103.236 43.7033C103.327 43.9047 103.46 44.0712 103.637 44.2028C103.814 44.3343 104.056 44.4001 104.365 44.4001C104.566 44.4001 104.741 44.361 104.889 44.2828C105.037 44.2007 105.16 44.0999 105.259 43.9807C105.358 43.8615 105.429 43.734 105.475 43.5984C105.524 43.4628 105.548 43.3394 105.548 43.2284H107.368C107.368 43.3394 107.347 43.4833 107.306 43.6601C107.269 43.8368 107.205 44.0239 107.115 44.2212C107.024 44.4185 106.903 44.6179 106.751 44.8194C106.603 45.0167 106.416 45.1955 106.19 45.3559C105.968 45.5121 105.707 45.6395 105.407 45.7382C105.107 45.8409 104.76 45.8923 104.365 45.8923C103.851 45.8923 103.397 45.8142 103.002 45.658C102.611 45.5018 102.283 45.2736 102.016 44.9735C101.752 44.6693 101.551 44.2953 101.411 43.8512C101.275 43.4072 101.208 42.8996 101.208 42.3281C101.208 41.7566 101.281 41.251 101.429 40.8111C101.582 40.3672 101.795 39.9951 102.071 39.695C102.347 39.3908 102.677 39.1606 103.064 39.0044C103.454 38.8482 103.888 38.7701 104.365 38.7701C104.57 38.7701 104.782 38.7865 105 38.8194C105.222 38.8522 105.44 38.9098 105.653 38.9921C105.867 39.0702 106.071 39.1729 106.264 39.3003C106.461 39.4278 106.636 39.5881 106.788 39.7814C106.944 39.9704 107.072 40.1945 107.171 40.4535C107.273 40.7084 107.339 41.0044 107.368 41.3415H105.548ZM108.638 38.9674H110.383V43.1113H110.408L112.856 38.9674H114.687V45.6889H112.948V41.6375H112.917L110.543 45.6889H108.638V38.9674ZM120.299 41.3415C120.266 41.1647 120.221 41.0105 120.163 40.879C120.106 40.7434 120.029 40.6303 119.935 40.5398C119.845 40.4453 119.732 40.3753 119.596 40.3302C119.465 40.2809 119.304 40.2562 119.115 40.2562C118.823 40.2562 118.589 40.324 118.412 40.4597C118.239 40.5953 118.106 40.7659 118.011 40.9715C117.916 41.1771 117.853 41.4011 117.82 41.6436C117.791 41.8862 117.777 42.1143 117.777 42.3281C117.777 42.5501 117.789 42.7844 117.814 43.0311C117.839 43.2736 117.896 43.4977 117.986 43.7033C118.077 43.9047 118.21 44.0712 118.387 44.2028C118.564 44.3343 118.807 44.4001 119.115 44.4001C119.316 44.4001 119.491 44.361 119.639 44.2828C119.787 44.2007 119.91 44.0999 120.009 43.9807C120.108 43.8615 120.179 43.734 120.225 43.5984C120.274 43.4628 120.299 43.3394 120.299 43.2284H122.118C122.118 43.3394 122.097 43.4833 122.056 43.6601C122.019 43.8368 121.955 44.0239 121.866 44.2212C121.775 44.4185 121.653 44.6179 121.501 44.8194C121.353 45.0167 121.166 45.1955 120.941 45.3559C120.718 45.5121 120.457 45.6395 120.157 45.7382C119.857 45.8409 119.51 45.8923 119.115 45.8923C118.601 45.8923 118.147 45.8142 117.752 45.658C117.361 45.5018 117.033 45.2736 116.766 44.9735C116.503 44.6693 116.301 44.2953 116.161 43.8512C116.026 43.4072 115.958 42.8996 115.958 42.3281C115.958 41.7566 116.032 41.251 116.179 40.8111C116.332 40.3672 116.546 39.9951 116.821 39.695C117.097 39.3908 117.428 39.1606 117.814 39.0044C118.204 38.8482 118.638 38.7701 119.115 38.7701C119.321 38.7701 119.532 38.7865 119.75 38.8194C119.972 38.8522 120.19 38.9098 120.403 38.9921C120.617 39.0702 120.821 39.1729 121.014 39.3003C121.211 39.4278 121.386 39.5881 121.538 39.7814C121.695 39.9704 121.822 40.1945 121.921 40.4535C122.023 40.7084 122.089 41.0044 122.118 41.3415H120.299ZM124.843 40.3857H122.809V38.9674H128.617V40.3857H126.583V45.6889H124.843V40.3857ZM130.954 42.8708C130.954 42.9324 130.96 43.0147 130.973 43.1174C130.985 43.2202 131.01 43.3312 131.047 43.4504C131.084 43.5697 131.137 43.6909 131.208 43.8142C131.278 43.9334 131.37 44.0424 131.485 44.141C131.604 44.2397 131.748 44.3199 131.916 44.3815C132.089 44.4432 132.295 44.474 132.533 44.474C132.656 44.474 132.778 44.4576 132.897 44.4247C133.021 44.3877 133.134 44.3363 133.236 44.2705C133.339 44.2007 133.428 44.1184 133.501 44.0239C133.579 43.9253 133.634 43.8142 133.668 43.6909H135.474C135.474 43.8142 135.447 43.956 135.394 44.1164C135.341 44.2726 135.259 44.4329 135.147 44.5974C135.041 44.7577 134.905 44.9159 134.741 45.0721C134.576 45.2284 134.381 45.3682 134.155 45.4915C133.928 45.6108 133.672 45.7073 133.385 45.7814C133.101 45.8553 132.784 45.8923 132.434 45.8923C131.986 45.8923 131.565 45.8245 131.171 45.6889C130.78 45.5573 130.436 45.3477 130.141 45.0598C129.848 44.768 129.618 44.3918 129.45 43.9314C129.281 43.4709 129.197 42.9119 129.197 42.2541C129.197 41.7978 129.257 41.36 129.376 40.9407C129.499 40.5172 129.688 40.1452 129.943 39.8245C130.203 39.5039 130.531 39.249 130.93 39.0598C131.333 38.8666 131.816 38.7701 132.379 38.7701C132.975 38.7701 133.477 38.8687 133.884 39.066C134.291 39.2592 134.617 39.5347 134.864 39.8923C135.115 40.25 135.294 40.6816 135.401 41.1873C135.508 41.6929 135.561 42.2541 135.561 42.8708H130.954ZM133.748 41.7115C133.748 41.4154 133.703 41.1688 133.612 40.9715C133.526 40.7741 133.415 40.6179 133.279 40.5028C133.147 40.3836 133.002 40.3014 132.841 40.2562C132.681 40.2068 132.527 40.1822 132.379 40.1822C132.235 40.1822 132.083 40.2068 131.922 40.2562C131.762 40.3014 131.615 40.3836 131.478 40.5028C131.347 40.6179 131.236 40.7741 131.146 40.9715C131.06 41.1688 131.016 41.4154 131.016 41.7115H133.748ZM136.733 38.9674H139.36L140.494 43.8451H140.525L141.634 38.9674H144.182V45.6889H142.541V40.2809H142.516L141.253 45.6889H139.661L138.403 40.2809H138.372V45.6889H136.733V38.9674ZM151.291 44.363C151.291 44.5645 151.302 44.7309 151.322 44.8625C151.347 44.99 151.378 45.0928 151.415 45.1709C151.452 45.2448 151.493 45.3003 151.538 45.3373C151.588 45.3703 151.639 45.3949 151.692 45.4114V45.6889H149.762C149.729 45.6108 149.692 45.5079 149.651 45.3805C149.615 45.249 149.596 45.0907 149.596 44.9057C149.46 45.0454 149.327 45.175 149.195 45.2942C149.067 45.4134 148.923 45.5183 148.763 45.6087C148.603 45.695 148.418 45.7628 148.209 45.8122C147.998 45.8656 147.746 45.8923 147.45 45.8923C147.15 45.8923 146.872 45.8472 146.617 45.7566C146.366 45.6703 146.149 45.5409 145.964 45.3682C145.778 45.1955 145.635 44.9796 145.532 44.7207C145.429 44.4617 145.378 44.1616 145.378 43.8204C145.378 43.545 145.421 43.2901 145.508 43.0558C145.594 42.8173 145.715 42.6097 145.872 42.4329C146.032 42.2521 146.225 42.104 146.451 41.989C146.681 41.8697 146.938 41.7896 147.222 41.7484L148.93 41.4956C148.991 41.4874 149.057 41.4751 149.127 41.4586C149.201 41.4421 149.269 41.4154 149.331 41.3784C149.392 41.3373 149.444 41.2839 149.484 41.2181C149.526 41.1483 149.547 41.0558 149.547 40.9407C149.547 40.8296 149.528 40.729 149.491 40.6384C149.458 40.544 149.401 40.4638 149.318 40.398C149.236 40.3281 149.125 40.2747 148.985 40.2377C148.85 40.2007 148.679 40.1822 148.473 40.1822C148.239 40.1822 148.05 40.2068 147.906 40.2562C147.766 40.3014 147.655 40.3672 147.573 40.4535C147.491 40.5357 147.431 40.6344 147.394 40.7495C147.358 40.8605 147.331 40.9797 147.314 41.1071H145.569C145.569 41.0249 145.581 40.9119 145.606 40.768C145.635 40.62 145.685 40.4596 145.754 40.287C145.828 40.1143 145.928 39.9397 146.056 39.7628C146.188 39.586 146.359 39.4258 146.568 39.2819C146.782 39.1339 147.041 39.0126 147.345 38.918C147.649 38.8234 148.013 38.7741 148.436 38.7701C149.037 38.7701 149.522 38.8317 149.891 38.955C150.266 39.0742 150.556 39.2325 150.761 39.4298C150.971 39.6231 151.11 39.8409 151.18 40.0835C151.254 40.322 151.291 40.5603 151.291 40.7988V44.363ZM149.547 42.4083C149.44 42.4659 149.333 42.5193 149.226 42.5686C149.119 42.6138 148.977 42.6528 148.8 42.6858L148.338 42.7721C148.136 42.809 147.96 42.8522 147.808 42.9015C147.655 42.9509 147.528 43.0167 147.425 43.0989C147.327 43.1771 147.251 43.2736 147.197 43.3887C147.147 43.5039 147.123 43.6478 147.123 43.8204C147.123 43.9643 147.146 44.0897 147.191 44.1965C147.236 44.2993 147.297 44.3857 147.376 44.4555C147.458 44.5213 147.553 44.5707 147.66 44.6035C147.766 44.6365 147.882 44.6528 148.005 44.6528C148.071 44.6528 148.155 44.6467 148.258 44.6344C148.36 44.6179 148.469 44.5891 148.585 44.548C148.7 44.5069 148.815 44.4515 148.93 44.3815C149.045 44.3076 149.147 44.213 149.238 44.0979C149.328 43.9828 149.403 43.843 149.46 43.6785C149.518 43.51 149.547 43.3127 149.547 43.0865V42.4083ZM156.403 38.9674H162.453V45.6889H160.714V40.3857H158.149V45.6889H156.403V38.9674ZM164.075 38.9674H165.74V39.9293H165.765C165.884 39.7279 166.009 39.5553 166.141 39.4114C166.272 39.2634 166.418 39.1421 166.578 39.0475C166.739 38.953 166.916 38.8831 167.109 38.8378C167.306 38.7927 167.528 38.7701 167.775 38.7701C167.98 38.7701 168.192 38.7947 168.409 38.844C168.628 38.8934 168.84 38.9735 169.045 39.0846C169.254 39.1914 169.452 39.3333 169.637 39.51C169.822 39.6827 169.984 39.8965 170.124 40.1514C170.264 40.4062 170.375 40.7042 170.457 41.0455C170.54 41.3826 170.58 41.769 170.58 42.2047C170.58 42.7474 170.521 43.2448 170.402 43.6971C170.286 44.1493 170.109 44.5378 169.872 44.8625C169.637 45.1873 169.339 45.4401 168.977 45.621C168.62 45.8019 168.198 45.8923 167.713 45.8923C167.544 45.8923 167.374 45.8759 167.201 45.843C167.028 45.8101 166.86 45.7546 166.696 45.6765C166.531 45.5984 166.375 45.4935 166.227 45.362C166.083 45.2264 165.955 45.0578 165.845 44.8564H165.82V48.2911H164.075V38.9674ZM167.257 40.3363C166.977 40.3363 166.741 40.3959 166.547 40.5152C166.359 40.6344 166.204 40.7885 166.085 40.9777C165.97 41.1667 165.885 41.3805 165.832 41.619C165.778 41.8574 165.752 42.0938 165.752 42.3281C165.752 42.4555 165.758 42.5953 165.771 42.7474C165.787 42.8954 165.816 43.0475 165.857 43.2037C165.898 43.3559 165.953 43.5039 166.023 43.6478C166.097 43.7916 166.19 43.919 166.301 44.0301C166.412 44.141 166.546 44.2315 166.702 44.3014C166.858 44.3671 167.043 44.4001 167.257 44.4001C167.471 44.4001 167.655 44.3671 167.811 44.3014C167.968 44.2315 168.102 44.141 168.212 44.0301C168.323 43.919 168.414 43.7916 168.484 43.6478C168.558 43.5039 168.616 43.3559 168.656 43.2037C168.697 43.0475 168.724 42.8954 168.736 42.7474C168.753 42.5953 168.761 42.4555 168.761 42.3281C168.761 42.0938 168.735 41.8574 168.681 41.619C168.628 41.3805 168.541 41.1667 168.422 40.9777C168.307 40.7885 168.153 40.6344 167.959 40.5152C167.766 40.3959 167.532 40.3363 167.257 40.3363ZM171.444 42.3281C171.444 41.8101 171.522 41.3333 171.678 40.8975C171.838 40.4617 172.066 40.0876 172.362 39.7752C172.663 39.4586 173.024 39.212 173.447 39.0352C173.872 38.8584 174.348 38.7701 174.878 38.7701C175.417 38.7701 175.898 38.8584 176.322 39.0352C176.749 39.212 177.109 39.4586 177.401 39.7752C177.697 40.0876 177.922 40.4617 178.078 40.8975C178.235 41.3333 178.313 41.8101 178.313 42.3281C178.313 42.8461 178.235 43.3229 178.078 43.7587C177.922 44.1945 177.697 44.5707 177.401 44.8872C177.109 45.2037 176.749 45.4504 176.322 45.6272C175.898 45.804 175.417 45.8923 174.878 45.8923C174.348 45.8923 173.872 45.804 173.447 45.6272C173.024 45.4504 172.663 45.2037 172.362 44.8872C172.066 44.5707 171.838 44.1945 171.678 43.7587C171.522 43.3229 171.444 42.8461 171.444 42.3281ZM173.263 42.3281C173.263 42.583 173.29 42.8358 173.343 43.0865C173.401 43.3333 173.493 43.5553 173.621 43.7526C173.748 43.9458 173.915 44.102 174.12 44.2212C174.326 44.3404 174.578 44.4001 174.878 44.4001C175.191 44.4001 175.45 44.3425 175.655 44.2274C175.865 44.1082 176.032 43.954 176.155 43.7649C176.278 43.5717 176.365 43.3517 176.414 43.1051C176.467 42.8543 176.494 42.5953 176.494 42.3281C176.494 42.065 176.467 41.8081 176.414 41.5573C176.365 41.3065 176.278 41.0865 176.155 40.8975C176.032 40.7042 175.865 40.5501 175.655 40.435C175.45 40.3158 175.191 40.2562 174.878 40.2562C174.578 40.2562 174.326 40.3158 174.12 40.435C173.915 40.5542 173.748 40.7125 173.621 40.9098C173.493 41.103 173.401 41.325 173.343 41.5758C173.29 41.8224 173.263 42.0732 173.263 42.3281ZM181.372 41.6066H182.716C182.913 41.6066 183.078 41.5922 183.209 41.5634C183.341 41.5306 183.444 41.4853 183.517 41.4278C183.596 41.3661 183.649 41.2921 183.678 41.2058C183.711 41.1153 183.728 41.0105 183.728 40.8913C183.728 40.7927 183.711 40.7022 183.678 40.62C183.649 40.5336 183.597 40.4617 183.524 40.4041C183.45 40.3425 183.351 40.2953 183.228 40.2623C183.104 40.2253 182.95 40.2068 182.766 40.2068H181.372V41.6066ZM179.627 38.9674H183.104C183.413 38.9674 183.709 38.994 183.992 39.0475C184.28 39.1009 184.533 39.1955 184.751 39.3312C184.969 39.4628 185.141 39.6436 185.269 39.8739C185.401 40.0999 185.466 40.3878 185.466 40.7372C185.466 40.9386 185.444 41.1133 185.398 41.2613C185.357 41.4093 185.3 41.5367 185.226 41.6436C185.152 41.7464 185.066 41.8348 184.966 41.9088C184.872 41.9787 184.773 42.0383 184.671 42.0876C185.008 42.2068 185.265 42.398 185.441 42.6611C185.618 42.9201 185.707 43.2304 185.707 43.5922C185.707 43.9088 185.651 44.1965 185.541 44.4555C185.434 44.7104 185.279 44.9303 185.078 45.1153C184.88 45.2962 184.638 45.4381 184.35 45.5409C184.066 45.6395 183.748 45.6889 183.394 45.6889H179.627V38.9674ZM181.372 44.4494H182.716C182.966 44.4494 183.168 44.4227 183.321 44.3692C183.477 44.3158 183.596 44.2479 183.678 44.1657C183.765 44.0835 183.82 43.993 183.845 43.8944C183.873 43.7957 183.888 43.7033 183.888 43.6169C183.888 43.4525 183.865 43.3168 183.82 43.2099C183.778 43.0989 183.711 43.0105 183.616 42.9447C183.526 42.879 183.404 42.8338 183.253 42.809C183.104 42.7844 182.926 42.7721 182.716 42.7721H181.372V44.4494ZM188.365 42.8708C188.365 42.9324 188.371 43.0147 188.383 43.1174C188.396 43.2202 188.42 43.3312 188.457 43.4504C188.494 43.5697 188.547 43.6909 188.617 43.8142C188.687 43.9334 188.779 44.0424 188.895 44.141C189.014 44.2397 189.158 44.3199 189.327 44.3815C189.499 44.4432 189.704 44.474 189.943 44.474C190.066 44.474 190.188 44.4576 190.307 44.4247C190.43 44.3877 190.543 44.3363 190.646 44.2705C190.749 44.2007 190.837 44.1184 190.911 44.0239C190.99 43.9253 191.045 43.8142 191.078 43.6909H192.885C192.885 43.8142 192.858 43.956 192.804 44.1164C192.751 44.2726 192.669 44.4329 192.558 44.5974C192.451 44.7577 192.316 44.9159 192.151 45.0721C191.986 45.2284 191.791 45.3682 191.565 45.4915C191.339 45.6108 191.082 45.7073 190.794 45.7814C190.51 45.8553 190.194 45.8923 189.845 45.8923C189.397 45.8923 188.975 45.8245 188.58 45.6889C188.19 45.5573 187.847 45.3477 187.551 45.0598C187.259 44.768 187.028 44.3918 186.86 43.9314C186.691 43.4709 186.607 42.9119 186.607 42.2541C186.607 41.7978 186.666 41.36 186.786 40.9407C186.91 40.5172 187.098 40.1452 187.353 39.8245C187.612 39.5039 187.941 39.249 188.34 39.0598C188.743 38.8666 189.226 38.7701 189.789 38.7701C190.385 38.7701 190.886 38.8687 191.294 39.066C191.701 39.2592 192.028 39.5347 192.274 39.8923C192.525 40.25 192.703 40.6816 192.81 41.1873C192.917 41.6929 192.971 42.2541 192.971 42.8708H188.365ZM191.158 41.7115C191.158 41.4154 191.113 41.1688 191.022 40.9715C190.936 40.7741 190.825 40.6179 190.69 40.5028C190.558 40.3836 190.412 40.3014 190.252 40.2562C190.091 40.2068 189.937 40.1822 189.789 40.1822C189.645 40.1822 189.493 40.2068 189.333 40.2562C189.172 40.3014 189.024 40.3836 188.889 40.5028C188.757 40.6179 188.646 40.7741 188.556 40.9715C188.469 41.1688 188.426 41.4154 188.426 41.7115H191.158ZM194.093 38.9674H195.758V39.9293H195.783C195.902 39.7279 196.028 39.5553 196.159 39.4114C196.291 39.2634 196.436 39.1421 196.597 39.0475C196.757 38.953 196.934 38.8831 197.127 38.8378C197.324 38.7927 197.547 38.7701 197.793 38.7701C197.998 38.7701 198.21 38.7947 198.428 38.844C198.646 38.8934 198.858 38.9735 199.063 39.0846C199.273 39.1914 199.471 39.3333 199.655 39.51C199.841 39.6827 200.003 39.8965 200.142 40.1514C200.282 40.4062 200.393 40.7042 200.476 41.0455C200.558 41.3826 200.599 41.769 200.599 42.2047C200.599 42.7474 200.539 43.2448 200.42 43.6971C200.305 44.1493 200.128 44.5378 199.89 44.8625C199.655 45.1873 199.357 45.4401 198.996 45.621C198.638 45.8019 198.216 45.8923 197.731 45.8923C197.563 45.8923 197.392 45.8759 197.22 45.843C197.047 45.8101 196.878 45.7546 196.714 45.6765C196.549 45.5984 196.393 45.4935 196.246 45.362C196.102 45.2264 195.974 45.0578 195.863 44.8564H195.838V48.2911H194.093V38.9674ZM197.275 40.3363C196.996 40.3363 196.759 40.3959 196.566 40.5152C196.377 40.6344 196.222 40.7885 196.103 40.9777C195.988 41.1667 195.904 41.3805 195.851 41.619C195.797 41.8574 195.771 42.0938 195.771 42.3281C195.771 42.4555 195.777 42.5953 195.789 42.7474C195.805 42.8954 195.834 43.0475 195.875 43.2037C195.916 43.3559 195.972 43.5039 196.041 43.6478C196.116 43.7916 196.209 43.919 196.319 44.0301C196.43 44.141 196.564 44.2315 196.72 44.3014C196.877 44.3671 197.061 44.4001 197.275 44.4001C197.489 44.4001 197.674 44.3671 197.83 44.3014C197.986 44.2315 198.12 44.141 198.231 44.0301C198.342 43.919 198.432 43.7916 198.503 43.6478C198.576 43.5039 198.634 43.3559 198.675 43.2037C198.716 43.0475 198.743 42.8954 198.755 42.7474C198.772 42.5953 198.779 42.4555 198.779 42.3281C198.779 42.0938 198.753 41.8574 198.699 41.619C198.646 41.3805 198.559 41.1667 198.441 40.9777C198.326 40.7885 198.172 40.6344 197.978 40.5152C197.785 40.3959 197.551 40.3363 197.275 40.3363ZM201.912 38.9674H203.658V41.5203L206.173 38.9674H208.492L205.717 41.7608L208.61 45.6889H206.334L204.36 42.8522L203.658 43.5614V45.6889H201.912V38.9674ZM209.584 38.9674H211.328V43.1113H211.353L213.801 38.9674H215.633V45.6889H213.894V41.6375H213.863L211.489 45.6889H209.584V38.9674ZM220.868 38.9674H222.613V41.5203L225.129 38.9674H227.447L224.672 41.7608L227.565 45.6889H225.29L223.316 42.8522L222.613 43.5614V45.6889H220.868V38.9674ZM228.138 42.3281C228.138 41.8101 228.216 41.3333 228.372 40.8975C228.533 40.4617 228.761 40.0876 229.057 39.7752C229.357 39.4586 229.719 39.212 230.142 39.0352C230.566 38.8584 231.043 38.7701 231.573 38.7701C232.111 38.7701 232.592 38.8584 233.016 39.0352C233.444 39.212 233.803 39.4586 234.095 39.7752C234.391 40.0876 234.617 40.4617 234.773 40.8975C234.929 41.3333 235.008 41.8101 235.008 42.3281C235.008 42.8461 234.929 43.3229 234.773 43.7587C234.617 44.1945 234.391 44.5707 234.095 44.8872C233.803 45.2037 233.444 45.4504 233.016 45.6272C232.592 45.804 232.111 45.8923 231.573 45.8923C231.043 45.8923 230.566 45.804 230.142 45.6272C229.719 45.4504 229.357 45.2037 229.057 44.8872C228.761 44.5707 228.533 44.1945 228.372 43.7587C228.216 43.3229 228.138 42.8461 228.138 42.3281ZM229.958 42.3281C229.958 42.583 229.984 42.8358 230.038 43.0865C230.095 43.3333 230.188 43.5553 230.316 43.7526C230.442 43.9458 230.609 44.102 230.815 44.2212C231.02 44.3404 231.273 44.4001 231.573 44.4001C231.885 44.4001 232.145 44.3425 232.35 44.2274C232.56 44.1082 232.726 43.954 232.849 43.7649C232.973 43.5717 233.06 43.3517 233.109 43.1051C233.162 42.8543 233.189 42.5953 233.189 42.3281C233.189 42.065 233.162 41.8081 233.109 41.5573C233.06 41.3065 232.973 41.0865 232.849 40.8975C232.726 40.7042 232.56 40.5501 232.35 40.435C232.145 40.3158 231.885 40.2562 231.573 40.2562C231.273 40.2562 231.02 40.3158 230.815 40.435C230.609 40.5542 230.442 40.7125 230.316 40.9098C230.188 41.103 230.095 41.325 230.038 41.5758C229.984 41.8224 229.958 42.0732 229.958 42.3281ZM236.272 38.9674H238.017V41.397H240.582V38.9674H242.322V45.6889H240.582V42.809H238.017V45.6889H236.272V38.9674ZM245.447 40.3857H243.413V38.9674H249.222V40.3857H247.186V45.6889H245.447V40.3857ZM250.258 38.9674H251.922V39.9293H251.947C252.066 39.7279 252.191 39.5553 252.323 39.4114C252.455 39.2634 252.601 39.1421 252.761 39.0475C252.922 38.953 253.098 38.8831 253.291 38.8378C253.489 38.7927 253.71 38.7701 253.958 38.7701C254.163 38.7701 254.375 38.7947 254.592 38.844C254.81 38.8934 255.022 38.9735 255.228 39.0846C255.437 39.1914 255.635 39.3333 255.82 39.51C256.004 39.6827 256.167 39.8965 256.307 40.1514C256.447 40.4062 256.558 40.7042 256.64 41.0455C256.722 41.3826 256.763 41.769 256.763 42.2047C256.763 42.7474 256.703 43.2448 256.585 43.6971C256.469 44.1493 256.292 44.5378 256.054 44.8625C255.82 45.1873 255.522 45.4401 255.159 45.621C254.803 45.8019 254.381 45.8923 253.896 45.8923C253.728 45.8923 253.557 45.8759 253.384 45.843C253.211 45.8101 253.043 45.7546 252.878 45.6765C252.714 45.5984 252.558 45.4935 252.409 45.362C252.266 45.2264 252.138 45.0578 252.028 44.8564H252.003V48.2911H250.258V38.9674ZM253.44 40.3363C253.159 40.3363 252.923 40.3959 252.73 40.5152C252.541 40.6344 252.387 40.7885 252.268 40.9777C252.153 41.1667 252.068 41.3805 252.015 41.619C251.961 41.8574 251.934 42.0938 251.934 42.3281C251.934 42.4555 251.941 42.5953 251.953 42.7474C251.97 42.8954 251.998 43.0475 252.04 43.2037C252.081 43.3559 252.136 43.5039 252.206 43.6478C252.28 43.7916 252.372 43.919 252.484 44.0301C252.595 44.141 252.728 44.2315 252.885 44.3014C253.041 44.3671 253.226 44.4001 253.44 44.4001C253.653 44.4001 253.838 44.3671 253.995 44.3014C254.151 44.2315 254.284 44.141 254.395 44.0301C254.506 43.919 254.597 43.7916 254.666 43.6478C254.741 43.5039 254.798 43.3559 254.839 43.2037C254.88 43.0475 254.907 42.8954 254.919 42.7474C254.936 42.5953 254.944 42.4555 254.944 42.3281C254.944 42.0938 254.917 41.8574 254.864 41.619C254.81 41.3805 254.724 41.1667 254.605 40.9777C254.49 40.7885 254.335 40.6344 254.142 40.5152C253.949 40.3959 253.715 40.3363 253.44 40.3363ZM263.46 44.363C263.46 44.5645 263.47 44.7309 263.491 44.8625C263.516 44.99 263.547 45.0928 263.584 45.1709C263.621 45.2448 263.661 45.3003 263.707 45.3373C263.756 45.3703 263.808 45.3949 263.861 45.4114V45.6889H261.931C261.897 45.6108 261.861 45.5079 261.82 45.3805C261.783 45.249 261.764 45.0907 261.764 44.9057C261.628 45.0454 261.495 45.175 261.363 45.2942C261.236 45.4134 261.092 45.5183 260.932 45.6087C260.772 45.695 260.586 45.7628 260.377 45.8122C260.167 45.8656 259.915 45.8923 259.618 45.8923C259.318 45.8923 259.041 45.8472 258.785 45.7566C258.535 45.6703 258.317 45.5409 258.132 45.3682C257.947 45.1955 257.803 44.9796 257.701 44.7207C257.597 44.4617 257.547 44.1616 257.547 43.8204C257.547 43.545 257.59 43.2901 257.676 43.0558C257.762 42.8173 257.884 42.6097 258.04 42.4329C258.2 42.2521 258.393 42.104 258.619 41.989C258.849 41.8697 259.106 41.7896 259.39 41.7484L261.098 41.4956C261.159 41.4874 261.226 41.4751 261.296 41.4586C261.37 41.4421 261.437 41.4154 261.499 41.3784C261.56 41.3373 261.612 41.2839 261.653 41.2181C261.694 41.1483 261.715 41.0558 261.715 40.9407C261.715 40.8296 261.697 40.729 261.659 40.6384C261.627 40.544 261.569 40.4638 261.487 40.398C261.404 40.3281 261.293 40.2747 261.153 40.2377C261.018 40.2007 260.847 40.1822 260.642 40.1822C260.408 40.1822 260.218 40.2068 260.074 40.2562C259.935 40.3014 259.824 40.3672 259.741 40.4535C259.659 40.5357 259.6 40.6344 259.563 40.7495C259.526 40.8605 259.499 40.9797 259.483 41.1071H257.737C257.737 41.0249 257.75 40.9119 257.774 40.768C257.803 40.62 257.853 40.4596 257.922 40.287C257.997 40.1143 258.097 39.9397 258.225 39.7628C258.356 39.586 258.527 39.4258 258.736 39.2819C258.95 39.1339 259.21 39.0126 259.514 38.918C259.817 38.8234 260.181 38.7741 260.605 38.7701C261.205 38.7701 261.691 38.8317 262.06 38.955C262.434 39.0742 262.724 39.2325 262.929 39.4298C263.14 39.6231 263.279 39.8409 263.349 40.0835C263.423 40.322 263.46 40.5603 263.46 40.7988V44.363ZM261.715 42.4083C261.608 42.4659 261.501 42.5193 261.394 42.5686C261.287 42.6138 261.146 42.6528 260.969 42.6858L260.506 42.7721C260.305 42.809 260.128 42.8522 259.976 42.9015C259.824 42.9509 259.697 43.0167 259.594 43.0989C259.495 43.1771 259.419 43.2736 259.366 43.3887C259.316 43.5039 259.291 43.6478 259.291 43.8204C259.291 43.9643 259.314 44.0897 259.359 44.1965C259.404 44.2993 259.466 44.3857 259.544 44.4555C259.627 44.5213 259.721 44.5707 259.828 44.6035C259.934 44.6365 260.05 44.6528 260.173 44.6528C260.239 44.6528 260.323 44.6467 260.426 44.6344C260.528 44.6179 260.638 44.5891 260.753 44.548C260.868 44.5069 260.983 44.4515 261.098 44.3815C261.213 44.3076 261.316 44.213 261.407 44.0979C261.497 43.9828 261.571 43.843 261.628 43.6785C261.686 43.51 261.715 43.3127 261.715 43.0865V42.4083ZM265.057 38.9674H269.577V40.3857H266.803V45.6889H265.057V38.9674ZM271.921 42.8708C271.921 42.9324 271.927 43.0147 271.939 43.1174C271.951 43.2202 271.976 43.3312 272.013 43.4504C272.05 43.5697 272.103 43.6909 272.173 43.8142C272.243 43.9334 272.335 44.0424 272.451 44.141C272.57 44.2397 272.714 44.3199 272.883 44.3815C273.055 44.4432 273.26 44.474 273.499 44.474C273.622 44.474 273.744 44.4576 273.863 44.4247C273.986 44.3877 274.099 44.3363 274.202 44.2705C274.305 44.2007 274.393 44.1184 274.467 44.0239C274.545 43.9253 274.601 43.8142 274.634 43.6909H276.441C276.441 43.8142 276.414 43.956 276.36 44.1164C276.307 44.2726 276.225 44.4329 276.114 44.5974C276.007 44.7577 275.871 44.9159 275.707 45.0721C275.542 45.2284 275.347 45.3682 275.121 45.4915C274.895 45.6108 274.638 45.7073 274.35 45.7814C274.066 45.8553 273.75 45.8923 273.4 45.8923C272.953 45.8923 272.531 45.8245 272.136 45.6889C271.746 45.5573 271.403 45.3477 271.106 45.0598C270.815 44.768 270.585 44.3918 270.416 43.9314C270.247 43.4709 270.163 42.9119 270.163 42.2541C270.163 41.7978 270.222 41.36 270.341 40.9407C270.466 40.5172 270.654 40.1452 270.91 39.8245C271.168 39.5039 271.497 39.249 271.896 39.0598C272.298 38.8666 272.782 38.7701 273.345 38.7701C273.941 38.7701 274.442 38.8687 274.849 39.066C275.256 39.2592 275.584 39.5347 275.83 39.8923C276.081 40.25 276.259 40.6816 276.366 41.1873C276.473 41.6929 276.527 42.2541 276.527 42.8708H271.921ZM274.714 41.7115C274.714 41.4154 274.669 41.1688 274.578 40.9715C274.491 40.7741 274.381 40.6179 274.245 40.5028C274.114 40.3836 273.967 40.3014 273.808 40.2562C273.647 40.2068 273.493 40.1822 273.345 40.1822C273.201 40.1822 273.049 40.2068 272.889 40.2562C272.728 40.3014 272.58 40.3836 272.445 40.5028C272.313 40.6179 272.202 40.7741 272.111 40.9715C272.025 41.1688 271.982 41.4154 271.982 41.7115H274.714ZM277.698 38.9674H279.443V41.397H282.009V38.9674H283.747V45.6889H282.009V42.809H279.443V45.6889H277.698V38.9674ZM286.874 40.3857H284.839V38.9674H290.648V40.3857H288.613V45.6889H286.874V40.3857ZM291.333 42.3281C291.333 41.8101 291.41 41.3333 291.566 40.8975C291.727 40.4617 291.955 40.0876 292.251 39.7752C292.552 39.4586 292.913 39.212 293.336 39.0352C293.76 38.8584 294.237 38.7701 294.767 38.7701C295.306 38.7701 295.787 38.8584 296.21 39.0352C296.638 39.212 296.997 39.4586 297.29 39.7752C297.585 40.0876 297.811 40.4617 297.967 40.8975C298.124 41.3333 298.202 41.8101 298.202 42.3281C298.202 42.8461 298.124 43.3229 297.967 43.7587C297.811 44.1945 297.585 44.5707 297.29 44.8872C296.997 45.2037 296.638 45.4504 296.21 45.6272C295.787 45.804 295.306 45.8923 294.767 45.8923C294.237 45.8923 293.76 45.804 293.336 45.6272C292.913 45.4504 292.552 45.2037 292.251 44.8872C291.955 44.5707 291.727 44.1945 291.566 43.7587C291.41 43.3229 291.333 42.8461 291.333 42.3281ZM293.152 42.3281C293.152 42.583 293.178 42.8358 293.232 43.0865C293.29 43.3333 293.382 43.5553 293.51 43.7526C293.637 43.9458 293.803 44.102 294.009 44.2212C294.215 44.3404 294.467 44.4001 294.767 44.4001C295.079 44.4001 295.339 44.3425 295.544 44.2274C295.753 44.1082 295.921 43.954 296.044 43.7649C296.167 43.5717 296.253 43.3517 296.303 43.1051C296.356 42.8543 296.383 42.5953 296.383 42.3281C296.383 42.065 296.356 41.8081 296.303 41.5573C296.253 41.3065 296.167 41.0865 296.044 40.8975C295.921 40.7042 295.753 40.5501 295.544 40.435C295.339 40.3158 295.079 40.2562 294.767 40.2562C294.467 40.2562 294.215 40.3158 294.009 40.435C293.803 40.5542 293.637 40.7125 293.51 40.9098C293.382 41.103 293.29 41.325 293.232 41.5758C293.178 41.8224 293.152 42.0732 293.152 42.3281ZM301.26 41.6066H302.605C302.802 41.6066 302.966 41.5922 303.098 41.5634C303.229 41.5306 303.333 41.4853 303.406 41.4278C303.484 41.3661 303.538 41.2921 303.566 41.2058C303.6 41.1153 303.616 41.0105 303.616 40.8913C303.616 40.7927 303.6 40.7022 303.566 40.62C303.538 40.5336 303.486 40.4617 303.413 40.4041C303.339 40.3425 303.24 40.2953 303.116 40.2623C302.993 40.2253 302.839 40.2068 302.654 40.2068H301.26V41.6066ZM299.516 38.9674H302.993C303.302 38.9674 303.597 38.994 303.881 39.0475C304.169 39.1009 304.422 39.1955 304.64 39.3312C304.858 39.4628 305.03 39.6436 305.158 39.8739C305.29 40.0999 305.355 40.3878 305.355 40.7372C305.355 40.9386 305.333 41.1133 305.287 41.2613C305.247 41.4093 305.189 41.5367 305.115 41.6436C305.041 41.7464 304.954 41.8348 304.855 41.9088C304.761 41.9787 304.662 42.0383 304.56 42.0876C304.897 42.2068 305.153 42.398 305.33 42.6611C305.507 42.9201 305.596 43.2304 305.596 43.5922C305.596 43.9088 305.54 44.1965 305.429 44.4555C305.322 44.7104 305.168 44.9303 304.966 45.1153C304.769 45.2962 304.527 45.4381 304.239 45.5409C303.955 45.6395 303.637 45.6889 303.283 45.6889H299.516V38.9674ZM301.26 44.4494H302.605C302.855 44.4494 303.057 44.4227 303.209 44.3692C303.366 44.3158 303.484 44.2479 303.566 44.1657C303.653 44.0835 303.709 43.993 303.734 43.8944C303.762 43.7957 303.777 43.7033 303.777 43.6169C303.777 43.4525 303.753 43.3168 303.709 43.2099C303.667 43.0989 303.6 43.0105 303.505 42.9447C303.415 42.879 303.293 42.8338 303.141 42.809C302.993 42.7844 302.815 42.7721 302.605 42.7721H301.26V44.4494Z" fill="#939393"/>
<path d="M300.464 6.87085V2.70673H301.786C302.166 2.70673 302.478 2.75151 302.727 2.84105C302.974 2.92372 303.157 3.05804 303.274 3.24404C303.391 3.42314 303.45 3.65046 303.45 3.926C303.45 4.17398 303.381 4.39098 303.243 4.57697C303.112 4.76296 302.923 4.9145 302.675 5.0316L303.873 6.87085H302.799L301.859 5.2796H301.404V6.87085H300.464ZM301.404 4.57697H301.766C301.993 4.57697 302.169 4.52874 302.292 4.4323C302.423 4.32898 302.489 4.17054 302.489 3.957C302.489 3.76412 302.427 3.62635 302.303 3.54368C302.186 3.46103 302.003 3.41969 301.755 3.41969H301.404V4.57697ZM301.848 9.26802C301.228 9.26802 300.647 9.15095 300.102 8.91673C299.565 8.6894 299.09 8.3725 298.676 7.96612C298.27 7.55281 297.949 7.0775 297.716 6.5402C297.488 5.996 297.374 5.41392 297.374 4.79396C297.374 4.17398 297.488 3.59535 297.716 3.05804C297.949 2.51385 298.27 2.03854 298.676 1.63212C299.09 1.21881 299.565 0.898493 300.102 0.671174C300.647 0.436958 301.228 0.319855 301.848 0.319855C302.468 0.319855 303.047 0.436958 303.584 0.671174C304.128 0.898493 304.603 1.21881 305.01 1.63212C305.423 2.03854 305.744 2.51385 305.971 3.05804C306.205 3.59535 306.322 4.17398 306.322 4.79396C306.322 5.41392 306.205 5.996 305.971 6.5402C305.744 7.0775 305.423 7.55281 305.01 7.96612C304.603 8.3725 304.128 8.6894 303.584 8.91673C303.047 9.15095 302.468 9.26802 301.848 9.26802ZM301.848 8.34845C302.344 8.34845 302.806 8.25888 303.233 8.07974C303.66 7.89379 304.035 7.63888 304.359 7.31516C304.69 6.9845 304.945 6.60564 305.124 6.17854C305.309 5.74457 305.403 5.28304 305.403 4.79396C305.403 4.29798 305.309 3.83645 305.124 3.40936C304.945 2.98227 304.69 2.60685 304.359 2.28309C304.035 1.95244 303.657 1.69756 303.222 1.51846C302.796 1.33247 302.337 1.23948 301.848 1.23948C301.353 1.23948 300.891 1.33247 300.464 1.51846C300.036 1.69756 299.658 1.95244 299.327 2.28309C299.003 2.60685 298.748 2.98572 298.562 3.41969C298.384 3.84679 298.294 4.30487 298.294 4.79396C298.294 5.28992 298.384 5.75146 298.562 6.17854C298.748 6.60564 299.003 6.9845 299.327 7.31516C299.658 7.63888 300.036 7.89379 300.464 8.07974C300.897 8.25888 301.359 8.34845 301.848 8.34845Z" fill="black"/>
<path d="M6.13566 15.3253L9.57602 15.3389C9.9643 15.3389 10.33 15.2847 10.6731 15.1764C11.0252 15.068 11.3277 14.9054 11.5806 14.6887C11.8425 14.463 12.0502 14.1876 12.2037 13.8625C12.3571 13.5374 12.434 13.1582 12.434 12.7247C12.434 12.174 12.3256 11.7179 12.1089 11.3567C11.8921 10.9955 11.6122 10.7111 11.2691 10.5035C10.9259 10.2958 10.5422 10.1513 10.1178 10.07C9.69335 9.98871 9.26895 9.9481 8.84455 9.9481C8.29378 9.9481 7.81068 10.0068 7.39531 10.1241C6.98897 10.2325 6.63681 10.377 6.33883 10.5576C6.04987 10.7382 5.80607 10.9414 5.60742 11.1672C5.41779 11.3838 5.2688 11.6051 5.16044 11.8308C5.05209 12.0475 4.97533 12.2552 4.93018 12.4539C4.88504 12.6435 4.86246 12.797 4.86246 12.9144H1.02932C1.02932 12.6345 1.06093 12.2868 1.12413 11.8715C1.19637 11.456 1.33182 11.0181 1.53048 10.5576C1.72912 10.0971 2.00905 9.63655 2.37024 9.17604C2.74046 8.71552 3.22807 8.30017 3.83306 7.92992C4.43806 7.55973 5.17399 7.26174 6.04085 7.03599C6.91674 6.80123 7.95968 6.68384 9.16964 6.68384C10.4428 6.68384 11.5355 6.8554 12.4475 7.19854C13.3685 7.53263 14.1225 7.96604 14.7095 8.4988C15.2964 9.02259 15.7298 9.60948 16.0097 10.2597C16.2896 10.9097 16.4296 11.5464 16.4296 12.1694C16.4296 12.5216 16.3845 12.8918 16.2941 13.2801C16.2129 13.6684 16.0549 14.0476 15.8201 14.4178C15.5944 14.788 15.2828 15.1312 14.8855 15.4472C14.4972 15.7633 13.9915 16.0206 13.3685 16.2193V16.2735C13.5671 16.3277 13.7974 16.3953 14.0593 16.4766C14.3211 16.5579 14.5875 16.6753 14.8584 16.8288C15.1383 16.9733 15.4092 17.1628 15.6711 17.3977C15.942 17.6324 16.1813 17.9259 16.389 18.2781C16.5966 18.6303 16.7637 19.0547 16.8902 19.5513C17.0256 20.0389 17.0933 20.6122 17.0933 21.2715C17.0933 22.1383 16.9082 22.9555 16.5379 23.723C16.1677 24.4905 15.6259 25.1633 14.9126 25.7412C14.2083 26.3101 13.3324 26.7616 12.2849 27.0956C11.2465 27.4297 10.0546 27.5968 8.70912 27.5968C8.02288 27.5968 7.34113 27.5561 6.6639 27.4749C5.98667 27.4027 5.34104 27.2717 4.72701 27.0821C4.12202 26.8925 3.55766 26.6441 3.03393 26.3372C2.5102 26.0211 2.0542 25.6328 1.66592 25.1723C1.28667 24.7028 0.988684 24.1519 0.771968 23.5198C0.555253 22.8787 0.446899 22.1383 0.446899 21.2985H4.28004C4.28004 21.6326 4.3568 21.9803 4.5103 22.3415C4.67283 22.6936 4.93018 23.0187 5.28235 23.3166C5.6345 23.6056 6.09502 23.8449 6.6639 24.0346C7.23278 24.2241 7.92355 24.319 8.73619 24.319C9.49473 24.319 10.1403 24.2332 10.6731 24.0616C11.2058 23.881 11.6393 23.6463 11.9734 23.3573C12.3075 23.0593 12.5513 22.7253 12.7048 22.355C12.8583 21.9758 12.9351 21.5875 12.9351 21.1902C12.9351 20.5672 12.8267 20.0705 12.61 19.7003C12.4023 19.321 12.1359 19.0321 11.8108 18.8334C11.4858 18.6347 11.1336 18.5084 10.7544 18.4541C10.3752 18.3909 10.0184 18.3593 9.68438 18.3593H6.13566V15.3253ZM25.9921 7.18498H30.7463L37.7896 27.0956H33.2656L31.9924 22.9916H24.6377L23.2561 27.0956H18.8677L25.9921 7.18498ZM25.7483 19.5513H30.8276L28.3489 11.6683H28.2947L25.7483 19.5513Z" fill="#FC3145"/>
<path d="M50.9278 19.1314C50.2326 19.2759 49.5914 19.3933 49.0045 19.4835C48.4176 19.5648 47.8983 19.628 47.4469 19.6732C47.0044 19.7093 46.6297 19.7364 46.3227 19.7544C46.0247 19.7634 45.8125 19.768 45.6861 19.768C44.7018 19.768 43.8665 19.6867 43.1803 19.5241C42.494 19.3616 41.9252 19.1449 41.4737 18.874C41.0222 18.6031 40.6701 18.2871 40.4172 17.9259C40.1644 17.5647 39.9747 17.19 39.8483 16.8017C39.7219 16.4134 39.6452 16.0206 39.6181 15.6233C39.591 15.226 39.5774 14.8513 39.5774 14.4991V7.18498H43.5731V13.4968C43.5731 14.147 43.6363 14.6797 43.7627 15.0951C43.8891 15.5014 44.0923 15.822 44.3722 16.0567C44.6521 16.2916 45.0133 16.4541 45.4558 16.5443C45.9073 16.6256 46.4536 16.6662 47.0947 16.6662C47.3566 16.6662 47.6545 16.6572 47.9887 16.6391C48.3318 16.6121 48.6749 16.5759 49.0181 16.5308C49.3702 16.4857 49.7089 16.4315 50.0339 16.3683C50.368 16.296 50.666 16.2193 50.9278 16.138V7.18498H55.0861V27.0956H50.9278V19.1314ZM59.1359 7.18498H73.7506V10.6118H63.1316V15.0273H72.8973V18.4677H63.1316V23.4928H74.2246V27.0956H59.1359V7.18498ZM90.1802 13.7271C90.1258 13.5374 90.0586 13.3207 89.9767 13.0769C89.8957 12.8241 89.7827 12.5712 89.6388 12.3184C89.5034 12.0656 89.3267 11.8172 89.1103 11.5734C88.9026 11.3297 88.6405 11.1129 88.325 10.9233C88.0086 10.7337 87.6293 10.5802 87.187 10.4628C86.7448 10.3454 86.225 10.2867 85.6293 10.2867C85.3764 10.2867 85.0784 10.3183 84.7353 10.3815C84.3922 10.4447 84.0401 10.5666 83.6789 10.7472C83.3177 10.9188 82.961 11.1626 82.6089 11.4786C82.2566 11.7947 81.9406 12.2101 81.6607 12.7247C81.3898 13.2304 81.1686 13.8445 80.997 14.5668C80.8254 15.2892 80.7396 16.1471 80.7396 17.1403C80.7396 18.2148 80.8526 19.1766 81.0783 20.0253C81.304 20.8741 81.6291 21.592 82.0535 22.179C82.4779 22.7659 82.9881 23.2173 83.584 23.5334C84.189 23.8404 84.8708 23.9939 85.6293 23.9939C86.5051 23.9939 87.2189 23.8584 87.7689 23.5876C88.3198 23.3166 88.7577 22.9871 89.0827 22.5988C89.4172 22.2105 89.6655 21.8042 89.8284 21.3798C89.9905 20.9554 90.1172 20.5852 90.2077 20.2691H94.3388C94.1129 21.5153 93.7379 22.5988 93.2146 23.5198C92.6905 24.4319 92.0543 25.1903 91.3043 25.7953C90.5551 26.4003 89.7103 26.8518 88.7715 27.1498C87.8414 27.4478 86.8483 27.5968 85.7918 27.5968C84.3109 27.5968 82.9971 27.353 81.8503 26.8653C80.7126 26.3687 79.7509 25.6644 78.9653 24.7524C78.1888 23.8404 77.5973 22.7433 77.1909 21.461C76.7846 20.1698 76.5814 18.7296 76.5814 17.1403C76.5814 15.9122 76.6989 14.8016 76.9336 13.8084C77.1683 12.8151 77.4934 11.9347 77.9089 11.1672C78.3333 10.3905 78.8299 9.72233 79.3988 9.1625C79.9677 8.59362 80.5862 8.12862 81.2544 7.76741C81.9316 7.39719 82.6404 7.12629 83.3808 6.95472C84.1213 6.77413 84.8708 6.68383 85.6293 6.68383C86.7129 6.68383 87.6741 6.7967 88.5146 7.02245C89.3543 7.2482 90.0896 7.55069 90.7224 7.92991C91.3543 8.30922 91.8914 8.74258 92.3336 9.23026C92.7853 9.71784 93.1508 10.2235 93.431 10.7472C93.7198 11.2619 93.9319 11.7811 94.0672 12.3048C94.212 12.8196 94.3026 13.2936 94.3388 13.7271H90.1802ZM95.7474 7.18498H112.055V10.6118H105.973V27.0956H101.815V10.6118H95.7474V7.18498ZM114.33 7.18498H118.503V14.7565H126.317V7.18498H130.476V27.0956H126.317V18.1968H118.503V27.0956H114.33V7.18498ZM152.689 7.18498H156.847V27.0956H152.689V7.18498ZM138.873 23.6553H142.395C142.774 23.6553 143.163 23.6282 143.559 23.574C143.966 23.5198 144.336 23.4025 144.671 23.2219C145.014 23.0413 145.293 22.7749 145.51 22.4228C145.727 22.0616 145.835 21.5829 145.835 20.987C145.835 20.364 145.727 19.8763 145.51 19.5241C145.303 19.163 145.027 18.8921 144.684 18.7115C144.34 18.5309 143.953 18.418 143.519 18.3728C143.095 18.3278 142.665 18.3052 142.233 18.3052H138.873V23.6553ZM134.716 7.18498H138.873V15.0273H142.842C143.14 15.0273 143.519 15.0364 143.979 15.0544C144.449 15.0725 144.95 15.1403 145.483 15.2576C146.015 15.3659 146.548 15.5421 147.081 15.7859C147.614 16.0297 148.097 16.3773 148.531 16.8288C148.964 17.2712 149.316 17.8401 149.587 18.5354C149.858 19.2216 149.993 20.0705 149.993 21.0818C149.993 22.0841 149.858 22.9284 149.587 23.6147C149.316 24.3009 148.969 24.8698 148.544 25.3213C148.129 25.7637 147.664 26.1069 147.149 26.3507C146.643 26.5854 146.147 26.7615 145.659 26.879C145.181 26.9872 144.738 27.0505 144.332 27.0685C143.934 27.0866 143.641 27.0956 143.452 27.0956H134.716V7.18498ZM160.572 7.18498H164.567V20.7432H164.622L172.505 7.18498H176.717V27.0956H172.722V13.6187H172.667L164.798 27.0956H160.572V7.18498ZM168.983 6.14204C167.249 6.14204 165.945 5.80343 165.069 5.1262C164.193 4.43993 163.755 3.38796 163.755 1.97029H166.897C166.906 2.25021 166.947 2.50756 167.019 2.74233C167.101 2.97711 167.222 3.18028 167.384 3.35184C167.547 3.52341 167.759 3.65886 168.022 3.75819C168.284 3.84848 168.604 3.89363 168.983 3.89363C169.362 3.89363 169.683 3.84848 169.945 3.75819C170.215 3.65886 170.433 3.52793 170.595 3.36539C170.766 3.19383 170.889 2.99065 170.96 2.75588C171.042 2.5211 171.078 2.25924 171.069 1.97029H174.211C174.211 3.38796 173.773 4.43993 172.897 5.1262C172.022 5.80343 170.717 6.14204 168.983 6.14204ZM180.957 7.18498H195.449V10.6118H185.115V15.0273H190.059C190.357 15.0273 190.74 15.0364 191.21 15.0544C191.679 15.0725 192.176 15.1403 192.7 15.2576C193.233 15.3659 193.765 15.5421 194.298 15.7859C194.84 16.0297 195.328 16.3773 195.761 16.8288C196.194 17.2712 196.547 17.8401 196.817 18.5354C197.088 19.2216 197.224 20.0705 197.224 21.0818C197.224 22.0841 197.088 22.9284 196.817 23.6147C196.547 24.3009 196.199 24.8698 195.774 25.3213C195.359 25.7637 194.894 26.1069 194.379 26.3507C193.865 26.5854 193.364 26.7615 192.876 26.879C192.397 26.9872 191.955 27.0505 191.548 27.0685C191.151 27.0866 190.858 27.0956 190.668 27.0956H180.957V7.18498ZM185.115 23.6553H189.612C189.99 23.6553 190.379 23.6282 190.777 23.574C191.183 23.5198 191.553 23.4025 191.887 23.2219C192.23 23.0413 192.51 22.7749 192.727 22.4228C192.944 22.0616 193.052 21.5829 193.052 20.987C193.052 20.364 192.944 19.8763 192.727 19.5241C192.519 19.163 192.244 18.8921 191.901 18.7115C191.558 18.5309 191.169 18.418 190.736 18.3728C190.311 18.3278 189.883 18.3052 189.449 18.3052H185.115V23.6553ZM200.528 7.18498H204.524V20.7432H204.578L212.461 7.18498H216.674V27.0956H212.678V13.6187H212.624L204.754 27.0956H200.528V7.18498ZM225.153 15.3253L228.593 15.3389C228.982 15.3389 229.347 15.2847 229.691 15.1764C230.042 15.068 230.345 14.9054 230.597 14.6887C230.859 14.463 231.067 14.1876 231.221 13.8625C231.374 13.5374 231.451 13.1582 231.451 12.7247C231.451 12.174 231.343 11.7179 231.126 11.3567C230.909 10.9955 230.629 10.7111 230.286 10.5034C229.943 10.2958 229.559 10.1513 229.135 10.07C228.71 9.98871 228.286 9.9481 227.862 9.9481C227.311 9.9481 226.828 10.0068 226.413 10.1241C226.006 10.2325 225.654 10.377 225.356 10.5576C225.067 10.7382 224.823 10.9414 224.625 11.1672C224.435 11.3838 224.286 11.6051 224.178 11.8308C224.069 12.0475 223.992 12.2552 223.947 12.4539C223.903 12.6434 223.879 12.797 223.879 12.9144H220.047C220.047 12.6345 220.078 12.2868 220.141 11.8715C220.214 11.456 220.349 11.0181 220.547 10.5576C220.747 10.0971 221.026 9.63655 221.387 9.17603C221.758 8.71551 222.246 8.30017 222.85 7.92991C223.455 7.55972 224.191 7.26174 225.058 7.03599C225.934 6.80122 226.977 6.68383 228.187 6.68383C229.46 6.68383 230.553 6.85539 231.465 7.19853C232.385 7.53263 233.14 7.96603 233.727 8.49879C234.314 9.02258 234.747 9.60948 235.027 10.2597C235.307 10.9097 235.447 11.5464 235.447 12.1694C235.447 12.5215 235.402 12.8918 235.311 13.2801C235.23 13.6684 235.072 14.0476 234.837 14.4178C234.611 14.788 234.3 15.1312 233.903 15.4472C233.515 15.7633 233.009 16.0206 232.385 16.2193V16.2734C232.584 16.3277 232.815 16.3953 233.077 16.4766C233.339 16.5579 233.605 16.6753 233.876 16.8288C234.155 16.9733 234.427 17.1628 234.688 17.3977C234.959 17.6324 235.198 17.9259 235.406 18.2781C235.614 18.6303 235.781 19.0547 235.908 19.5513C236.043 20.0389 236.11 20.6122 236.11 21.2715C236.11 22.1383 235.925 22.9555 235.555 23.723C235.185 24.4905 234.643 25.1633 233.93 25.7412C233.226 26.3101 232.35 26.7616 231.302 27.0956C230.264 27.4297 229.072 27.5968 227.727 27.5968C227.04 27.5968 226.359 27.5561 225.681 27.4749C225.004 27.4027 224.359 27.2717 223.744 27.0821C223.14 26.8925 222.575 26.6441 222.051 26.3372C221.528 26.0211 221.072 25.6328 220.683 25.1723C220.304 24.7028 220.006 24.1519 219.789 23.5198C219.572 22.8787 219.464 22.1383 219.464 21.2985H223.297C223.297 21.6326 223.374 21.9803 223.528 22.3415C223.69 22.6936 223.947 23.0187 224.299 23.3166C224.652 23.6056 225.112 23.8449 225.681 24.0346C226.25 24.2241 226.941 24.319 227.753 24.319C228.512 24.319 229.158 24.2332 229.691 24.0616C230.223 23.881 230.657 23.6463 230.991 23.3573C231.325 23.0593 231.568 22.7253 231.722 22.355C231.876 21.9758 231.953 21.5875 231.953 21.1902C231.953 20.5672 231.844 20.0705 231.628 19.7003C231.42 19.321 231.153 19.0321 230.828 18.8334C230.503 18.6347 230.151 18.5084 229.772 18.4541C229.392 18.3909 229.035 18.3593 228.702 18.3593H225.153V15.3253ZM239.266 7.18498H243.438V14.7565H251.253V7.18498H255.412V27.0956H251.253V18.1968H243.438V27.0956H239.266V7.18498ZM259.651 7.18498H274.266V10.6118H263.647V15.0273H273.413V18.4677H263.647V23.4928H274.74V27.0956H259.651V7.18498ZM290.696 13.7271C290.641 13.5374 290.573 13.3207 290.492 13.0769C290.411 12.8241 290.298 12.5712 290.153 12.3184C290.018 12.0656 289.842 11.8172 289.626 11.5734C289.418 11.3297 289.156 11.1129 288.84 10.9233C288.524 10.7337 288.145 10.5802 287.702 10.4628C287.259 10.3454 286.741 10.2867 286.145 10.2867C285.891 10.2867 285.594 10.3183 285.251 10.3815C284.908 10.4447 284.555 10.5666 284.194 10.7472C283.833 10.9188 283.476 11.1626 283.124 11.4786C282.772 11.7947 282.456 12.2101 282.176 12.7247C281.905 13.2304 281.684 13.8445 281.512 14.5668C281.34 15.2892 281.255 16.1471 281.255 17.1403C281.255 18.2148 281.368 19.1766 281.593 20.0253C281.819 20.8741 282.144 21.592 282.569 22.179C282.993 22.7659 283.503 23.2173 284.099 23.5334C284.704 23.8404 285.386 23.9939 286.145 23.9939C287.021 23.9939 287.734 23.8584 288.284 23.5876C288.835 23.3166 289.273 22.9871 289.598 22.5988C289.933 22.2105 290.181 21.8042 290.343 21.3798C290.506 20.9554 290.632 20.5852 290.722 20.2691H294.853C294.628 21.5153 294.253 22.5988 293.729 23.5198C293.206 24.4319 292.569 25.1903 291.82 25.7953C291.07 26.4003 290.226 26.8518 289.287 27.1498C288.357 27.4478 287.364 27.5968 286.307 27.5968C284.826 27.5968 283.512 27.353 282.366 26.8653C281.228 26.3687 280.266 25.6644 279.48 24.7524C278.704 23.8404 278.112 22.7433 277.706 21.461C277.3 20.1698 277.097 18.7296 277.097 17.1403C277.097 15.9122 277.214 14.8016 277.449 13.8084C277.684 12.8151 278.009 11.9347 278.424 11.1672C278.848 10.3905 279.345 9.72233 279.914 9.1625C280.483 8.59362 281.102 8.12862 281.77 7.76741C282.447 7.39719 283.156 7.12629 283.896 6.95472C284.636 6.77413 285.386 6.68383 286.145 6.68383C287.228 6.68383 288.19 6.7967 289.029 7.02245C289.869 7.2482 290.605 7.55069 291.237 7.92991C291.869 8.30922 292.407 8.74258 292.849 9.23026C293.301 9.71784 293.666 10.2235 293.947 10.7472C294.235 11.2619 294.447 11.7811 294.583 12.3048C294.728 12.8196 294.817 13.2936 294.853 13.7271H290.696Z" fill="black"/>
</svg>
