<svg width="673" height="673" viewBox="0 0 673 673" fill="none" xmlns="http://www.w3.org/2000/svg">
<path d="M11.3059 585.093C11.035 585.349 10.7173 585.526 10.4569 585.786C9.89438 586.349 9.49855 587.005 8.98808 587.583C8.23287 588.448 7.47769 589.302 6.83182 590.224C6.1912 591.135 5.64953 592.078 5.11302 593.031C4.56614 594.005 4.01928 594.953 3.58182 595.943C3.1339 596.953 2.79015 597.979 2.44641 599.026C2.10786 600.041 1.77452 601.041 1.54536 602.078C1.30578 603.146 1.16515 604.213 1.02454 605.286C0.889128 606.349 0.753703 607.39 0.71725 608.458C0.680791 609.531 0.748499 610.594 0.816208 611.666C0.883916 612.739 0.95162 613.807 1.1235 614.885C1.29538 615.948 1.56621 616.974 1.84225 618.021C2.11829 619.073 2.38912 620.109 2.76932 621.135C3.14954 622.182 3.64432 623.172 4.12866 624.182C4.5974 625.146 5.06095 626.109 5.62866 627.036C6.23283 628.021 6.95158 628.948 7.66506 629.89C8.12861 630.495 8.47235 631.151 8.97756 631.729C9.20152 631.989 9.48278 632.161 9.72236 632.406C9.99318 632.698 10.1755 633.026 10.4619 633.307L39.6286 662.474C39.8994 662.745 40.2119 662.916 40.4776 663.166C40.738 663.411 40.9307 663.713 41.2067 663.953C41.8734 664.541 42.6182 664.969 43.3213 665.489C44.0765 666.057 44.8057 666.646 45.5921 667.146C46.6806 667.823 47.8161 668.37 48.9618 668.916C49.7222 669.281 50.4566 669.703 51.2326 670C52.5711 670.515 53.9357 670.864 55.3107 671.208C55.9514 671.364 56.5712 671.604 57.217 671.724C59.2482 672.119 61.3107 672.328 63.3733 672.328H63.3785H63.3837C65.6337 672.328 67.8733 672.083 70.0816 671.635C70.7691 671.494 71.4201 671.218 72.0972 671.036C73.5972 670.635 75.0816 670.224 76.5346 669.609C77.3471 669.265 78.1024 668.781 78.8992 668.364C80.1335 667.724 81.3628 667.078 82.5189 666.276C83.3262 665.713 84.0553 665.031 84.8262 664.396C85.5971 663.755 86.4252 663.224 87.1492 662.5C87.4304 662.218 87.6179 661.885 87.8887 661.599C88.1179 661.354 88.4044 661.182 88.6335 660.921L298.394 422.202C339.774 453.123 389.112 468.623 438.474 468.623C498.463 468.623 558.447 445.789 604.114 400.123C695.447 308.789 695.447 160.176 604.114 68.8428C512.791 -22.4905 364.167 -22.4958 272.834 68.8428C189.588 152.083 182.25 282.896 250.746 374.563L12.0255 584.31C11.7495 584.549 11.562 584.846 11.2912 585.091L11.3059 585.093ZM299.239 95.2268C337.625 56.8414 388.057 37.6428 438.479 37.6428C488.901 37.6428 539.323 56.8401 577.719 95.2268C654.49 171.997 654.49 296.92 577.719 373.707C500.938 450.488 376.026 450.477 299.239 373.707C222.469 296.925 222.469 172.013 299.239 95.2268Z" fill="#8757E8"/>
<path d="M326.452 253.147H419.801V346.496C419.801 356.809 428.155 365.163 438.468 365.163C448.78 365.163 457.134 356.809 457.134 346.496V253.147H550.484C560.796 253.147 569.151 244.793 569.151 234.48C569.151 224.167 560.796 215.813 550.484 215.813H457.145V122.459C457.145 112.146 448.791 103.792 438.478 103.792C428.166 103.792 419.812 112.146 419.812 122.459V215.808H326.452C316.139 215.808 307.785 224.162 307.785 234.475C307.785 244.787 316.139 253.147 326.452 253.147Z" fill="#8757E8"/>
</svg>
